<?xml version="1.0" encoding="utf-8" ?>
<svg xmlns="http://www.w3.org/2000/svg" xmlns:xlink="http://www.w3.org/1999/xlink" width="343" height="343">
	<path fill="#3502FB" transform="matrix(0.669922 0 0 0.669922 0 -0.000488281)" d="M416.996 239.757C426.981 239.21 425.741 252.291 425.75 258.656C425.76 264.814 426.242 269.337 419.365 271.45C410.079 272.876 410.379 263.07 410.377 257.2C410.376 253.601 409.766 248.357 411.085 245.046L411.747 243.525C412.876 241.4 414.816 240.463 416.996 239.757Z"/>
	<path fill="#3502FB" transform="matrix(0.669922 0 0 0.669922 0 -0.000488281)" d="M129.354 47.1357C133.901 47.0192 145.699 46.0269 148.974 48.8609C152.104 51.569 152.854 56.672 149.689 59.6587C146.917 62.2739 142.785 62.2652 139.223 62.2544C134.713 62.2629 130.224 62.4194 125.75 61.7739C117.371 60.565 113.584 51.0055 121.994 48.018L122.389 47.8816C124.529 47.1211 127.099 47.2098 129.354 47.1357Z"/>
	<path fill="#3502FB" transform="matrix(0.669922 0 0 0.669922 0 -0.000488281)" d="M173.995 47.6223L186.63 47.541C189.734 47.5436 193.791 47.129 196.78 48.0035L197.125 48.1122C197.747 48.2945 198.254 48.4632 198.786 48.8463L199 49.0052C203.635 52.3882 201.545 61.1985 195.75 61.851L192.325 62.1955L183.125 62.3602C178.164 62.5338 173.163 63.4223 168.836 60.3198C161.784 55.2638 167.235 48.3064 173.995 47.6223Z"/>
	<path fill="#AB00F7" transform="matrix(0.669922 0 0 0.669922 0 -0.000488281)" d="M92.8352 99.5598L93.625 99.5446C100.388 99.7865 100.56 104.42 100.512 109.474L100.482 135.413C100.48 137.87 101.541 145.217 99.4997 146.923L99.2524 147.125C97.6723 148.467 96.2922 149.186 94.3111 149.726C87.8986 150.139 86.5294 143.903 86.5009 138.979L86.4699 130.657C86.4513 122.539 83.2377 102.137 92.8352 99.5598Z"/>
	<path fill="#3502FB" transform="matrix(0.669922 0 0 0.669922 0 -0.000488281)" d="M139.308 80.877L178.447 80.7546C183.489 80.7544 189.616 80.3453 190.402 86.7689C191.105 92.5105 186.226 95.026 181.312 95.3653C178.376 95.5977 175.351 95.4633 172.406 95.4652L143.789 95.5012C141.701 95.503 139.461 95.6768 137.394 95.3997C129.308 94.3162 126.394 81.8255 139.308 80.877Z"/>
	<path fill="#AB00F7" transform="matrix(0.669922 0 0 0.669922 0 -0.000488281)" d="M42.4191 163.782C45.7985 163.546 48.5851 165.697 49.6638 168.842L49.7984 169.25C50.7623 172.103 50.4495 175.677 50.4517 178.673L50.4808 225.002C49.1113 226.815 46.2908 227.681 44.191 228.273C34.8467 230.012 36.4464 215.345 36.4372 209.878L36.3655 177.625C36.2289 171.205 35.3161 166.565 42.4191 163.782Z"/>
	<path fill="#AB00F7" transform="matrix(0.669922 0 0 0.669922 0 -0.000488281)" d="M59.6428 83.8377C65.0282 84.2541 68.4301 88.8763 66.7059 94.125C65.5063 97.7765 60.8177 98.7934 57.723 100.375C49.4005 104.627 50.7926 110.569 50.7864 118.735L50.8375 134.957C50.8666 141.379 52.2916 145.59 44.2493 146.665C38.0376 146.154 36.4793 143.059 36.4511 137.029L36.4439 128.662C36.4512 117.316 34.795 105.037 41.8434 95.2702C46.353 89.0215 52.0323 85.0817 59.6428 83.8377Z"/>
	<path fill="#AB00F7" transform="matrix(0.669922 0 0 0.669922 0 -0.000488281)" d="M372.168 408.363L234.707 408.466C230.641 408.464 217.281 409.704 214.235 407.439L213.369 406.77C210.951 404.528 210.76 399.397 213.03 397.023C216.263 393.642 221.139 394.262 225.376 394.262L396.39 394.276L356.625 395.372C355.339 395.487 353.227 395.11 352.165 395.915C352.302 396.063 352.917 396.622 352.953 396.767C353.677 399.73 355.783 403.953 357.366 406.652L359.196 407.236C360.429 407.679 361.842 407.635 363.125 407.877L372.168 408.363Z"/>
	<defs>
		<linearGradient id="gradient_0" gradientUnits="userSpaceOnUse" x1="270.24579" y1="235.94579" x2="71.270798" y2="318.12784">
			<stop offset="0" stop-color="#A200FD"/>
			<stop offset="1" stop-color="#EF00F4"/>
		</linearGradient>
	</defs>
	<path fill="url(#gradient_0)" transform="matrix(0.669922 0 0 0.669922 0 -0.000488281)" d="M318.252 351.975C318.492 361.333 309.666 359.826 302.963 359.809L93.2328 359.752C89.4496 359.562 86.1996 356.658 86.0194 352.773L86.435 186.106C86.4187 182.553 86.2361 178.916 86.4475 175.371C86.9402 167.108 99.4751 165.244 100.334 174.491C100.846 180.007 100.464 185.914 100.47 191.468L100.423 313.949C100.41 316.876 99.9935 319.726 99.9201 322.625L99.8554 345.985L129.911 345.98L129.734 345.077C128.836 339.857 129.226 333.972 129.213 328.659C129.15 303.18 130.573 281 157.531 267.998C167.134 263.366 178.007 261.211 188.25 258.428C198.81 255.558 209.558 251.71 220.566 250.998C230.177 264.506 219.922 265.142 209.25 268.047L178.904 275.669C150.985 283.36 143.379 291.701 143.376 319.458L143.4 342.926C143.403 343.983 143.242 345.374 143.526 346.384L288.148 345.939L303.169 345.919C310.146 345.898 315.349 344.604 318.252 351.975Z"/>
	<path fill="#3502FB" transform="matrix(0.669922 0 0 0.669922 0 -0.000488281)" d="M396.39 394.283L461.402 394.262L461.367 119.828C461.352 110.282 462.515 106.185 453.25 100.481C450.162 98.5799 442.784 95.5104 442.713 91.3627C442.63 86.5272 447.424 83.463 451.896 83.5304C463.339 83.703 474.421 97.8422 476.107 108.372C476.477 110.682 476.25 113.291 476.242 115.633L476.149 394.244L486.321 394.294C496.415 394.368 498.425 397.727 497.915 408.625C496.976 428.656 482.853 441.393 463.325 441.429L452.357 441.423L403.893 441.2C402.837 441.1 401.583 441.052 400.539 441.154L399.75 441.195C394.136 441.319 377.298 441.91 373.13 440.078C368.814 438.181 369.538 433.534 369.169 429.147L369.125 428.667C370.109 428.451 371.362 428.089 372.329 428.038L372.842 428.015C375.229 427.489 377.937 427.741 380.394 427.748L404.282 427.66C405.718 427.577 407.113 427.191 408.555 427.139L417.649 427.075L461.56 427.062C463.785 427.057 466.072 427.161 468.282 426.898C475.388 426.051 484.175 416.767 483.162 409.291C478.179 407.763 471.528 408.54 466.391 408.538L372.168 408.498L363.125 407.877C361.842 407.635 360.429 407.679 359.196 407.236L357.366 406.652C355.783 403.953 353.677 399.73 352.953 396.767C352.917 396.622 352.302 396.063 352.165 395.915C353.227 395.11 355.339 395.487 356.625 395.372L396.39 394.283Z"/>
	<path fill="#3502FB" transform="matrix(0.669922 0 0 0.669922 0 -0.000488281)" d="M263.923 13.2139C264.546 13.0546 265.669 13.2137 266.363 13.2137L416.862 13.1539C422.821 13.2489 424.916 16.6698 425.1 22.074L425.33 180.742C425.188 185.107 420.895 191.815 415.792 189.42L415.5 189.275C408.508 185.937 410.352 175.076 410.354 168.816L410.419 65.467L249.14 65.4199C242.982 65.4175 236.474 65.8444 230.359 65.3447C220.987 64.5788 220.877 51.5651 230.375 50.5276C232.266 50.3211 234.52 50.783 236.45 50.8548L298.375 50.9717L410.342 50.9876L410.48 27.7692L100.604 27.8487C100.225 31.8019 100.487 36.0151 100.477 39.9948L100.468 71.6572C100.466 73.0827 100.582 74.7748 100.078 76.1285L99.9804 76.375C97.218 83.6902 88.208 80.3543 86.9289 73.8582C86.1222 69.7618 86.464 65.255 86.4609 61.094L86.4034 28.5023C86.3809 24.1243 86.0019 14.0692 92.3924 13.3475L263.923 13.2139Z"/>
	<defs>
		<linearGradient id="gradient_1" gradientUnits="userSpaceOnUse" x1="395.26724" y1="289.21213" x2="20.132454" y2="428.3476">
			<stop offset="0" stop-color="#8300F7"/>
			<stop offset="1" stop-color="#F500F3"/>
		</linearGradient>
	</defs>
	<path fill="url(#gradient_1)" transform="matrix(0.669922 0 0 0.669922 0 -0.000488281)" d="M319.119 441.385L262.962 441.437C262.775 442.855 262.907 444.422 262.913 445.856L262.968 481.002L290.821 480.983C295.314 480.982 303.668 479.75 307.678 481.848L308 482.022C314.498 485.392 313.418 494.739 304.44 495.134L207.453 495.221C206.513 495.189 205.613 495.091 204.764 494.657L204.5 494.514C198.332 491.314 200.547 480.711 207.791 480.761L249.44 481.151L249.395 440.943L50.1001 441.408C47.1632 441.407 44.0568 441.535 41.1445 441.132C25.8484 439.016 15.7975 424.368 15.2237 409.601C14.5082 391.191 19.4399 393.693 36.9934 394.378C36.726 392.585 36.8109 390.753 36.7258 388.944L36.4652 254.125C36.9075 245.645 49.452 243.939 50.4995 254.117C50.9182 258.186 50.4912 262.685 50.4863 266.8L50.556 394.301L141.032 394.838C144.531 394.892 158.349 394.294 160.375 395.574C165.528 398.829 162.52 407.591 156.408 408.392C153.273 408.803 149.68 408.499 146.498 408.498L39.139 408.522C35.6865 408.53 32.0967 408.333 28.6802 408.859C28.7402 417.848 35.3104 426.742 44.625 427.639C48.0201 427.966 51.2884 427.296 54.6571 427.151L332.517 427.054L417.649 427.074L408.555 427.139C407.113 427.191 405.718 427.577 404.282 427.66L380.394 427.748C377.937 427.741 375.229 427.489 372.842 428.015L372.329 428.038C371.362 428.089 370.109 428.451 369.125 428.667L369.169 429.147C369.538 433.534 368.814 438.181 373.13 440.078C377.298 441.91 394.136 441.319 399.75 441.195L400.539 441.154C401.583 441.052 402.837 441.1 403.893 441.2L452.357 441.432L319.119 441.385Z"/>
	<defs>
		<linearGradient id="gradient_2" gradientUnits="userSpaceOnUse" x1="370.27975" y1="189.61552" x2="239.63272" y2="275.90674">
			<stop offset="0" stop-color="#0401FA"/>
			<stop offset="1" stop-color="#9500FF"/>
		</linearGradient>
	</defs>
	<path fill="url(#gradient_2)" transform="matrix(0.669922 0 0 0.669922 0 -0.000488281)" d="M186.728 147.308C183.815 129.825 187.776 109.901 201.795 97.9349C216.424 85.4479 244.02 80.2353 263.351 81.899C270.629 82.5255 283.38 84.1238 290.524 85.84C315.306 91.7929 327.046 127.836 324.641 150.547C323.447 161.83 317.837 170.17 320.154 180.875C322.854 193.344 309.627 219.395 302.584 228.673L296.419 236.197C294.344 238.59 290.901 241.611 290.22 244.75L290.15 245.054C289.918 246.16 289.649 249.096 290.093 250.083L322.018 258.661C333.979 261.701 347.139 264.155 357.827 270.566C368.864 277.186 379.251 289.566 381.628 302.305C382.482 306.879 382.17 311.797 382.161 316.439L382.104 342.313C382.101 343.326 381.958 344.55 382.199 345.536L411.072 345.51L411.065 301.783C411.06 299.904 410.756 297.649 411.383 295.875L411.508 295.513C414.446 287.535 424.683 289.772 425.151 298.298C425.336 301.685 425.191 305.165 425.193 308.563L425.215 346.316C425.247 351.639 426.926 357.233 420.75 359.725L420.386 359.878C418.529 360.592 415.87 360.252 413.879 360.253L360.062 359.799C353.498 359.736 346.791 360.172 340.25 359.863C332.768 359.51 331.059 348.386 337.269 346.548C340.931 345.464 345.586 345.972 349.403 345.967L367.474 346.008L367.495 322.208C367.503 307.923 368.502 299.221 357.556 288.178L357.301 287.925C348.544 279.333 335.316 277.326 323.938 274.314L296.387 266.668C288.733 264.493 279.811 264.119 278.318 254.599C278.151 253.531 278.569 250.545 277.508 250.139L276.97 250.249C269.691 254.06 259.724 255.113 251.712 254.957C218.622 253.589 203.841 226.818 195.413 198.118C193.439 191.395 191.364 185.874 192.997 178.875C193.337 177.417 193.834 175.963 193.793 174.452L193.781 174.223C190.296 167.893 187.166 154.933 186.728 147.308ZM214.661 158.738C212.843 161.174 211.106 163.616 209.754 166.349C207.054 171.962 206.216 177.306 206.204 183.44C206.155 207.719 221.798 232.245 245.493 239.75C253.167 241.833 259.558 240.554 267.092 238.248C290.753 229.289 305.635 204.093 304.727 179.149C304.487 172.56 301.311 166.53 296.47 162.135C290.086 156.338 280.026 157.948 271.994 156.63C257.699 154.284 244.752 148.355 229.864 149.287C223.293 149.698 218.759 154.043 214.661 158.738ZM254.952 96.3531C225.85 98.4351 197.187 106.452 200.267 142.293L201.555 151.944C207.651 144.536 216.745 135.433 226.766 134.396C230.937 133.964 234.918 134.67 239.055 134.758L247.505 134.754C251.886 134.77 254.728 135.547 258.671 137.637C268.051 142.428 277.985 143.379 288.229 142.024C295.663 141.04 298.149 145.002 302.724 150.37L307.862 156.572C310.778 149.202 311.254 143.892 309.998 136.01C304.418 100.965 287.279 95.8353 254.952 96.3531Z"/>
</svg>
