<?xml version="1.0" encoding="utf-8" ?>
<svg xmlns="http://www.w3.org/2000/svg" xmlns:xlink="http://www.w3.org/1999/xlink" width="343" height="343">
	<path fill="#181818" transform="matrix(0.669922 0 0 0.669922 0 -0.000244141)" d="M93.0995 139.739C95.9321 139.55 99.1051 141.724 100.006 144.395L100.095 144.678C101.272 148.296 99.5448 151.232 97.7011 154.218C88.557 169.031 85.7432 193.648 90.4695 210.75L95.3964 225.741C95.8333 227.104 96.9933 230.319 96.4829 231.548L95.9252 232.837C94.8349 235.03 92.5461 236.266 90.3255 236.983C84.8168 237.229 82.7236 231.546 80.7641 227.237C71.4464 206.749 73.8143 176.904 81.5106 156.5C83.7957 150.442 86.8649 142.552 93.0995 139.739Z"/>
	<path fill="#181818" transform="matrix(0.669922 0 0 0.669922 0 -0.000244141)" d="M417.621 139.294C426.635 140.236 431.492 156.286 433.625 163.512C438.87 181.281 438.86 200.089 433.874 217.92C432.128 224.166 429.969 234.356 422.823 236.348C410.991 235.945 415.908 226.546 418.457 219.982L420.639 213.522C425.37 197.879 424.298 176.294 417.642 161.148C414.423 153.822 405.442 143.321 417.621 139.294Z"/>
	<defs>
		<linearGradient id="gradient_0" gradientUnits="userSpaceOnUse" x1="131.72173" y1="241.70921" x2="8.7058821" y2="144.19067">
			<stop offset="0" stop-color="#181818"/>
			<stop offset="1" stop-color="#181818"/>
		</linearGradient>
	</defs>
	<path fill="url(#gradient_0)" transform="matrix(0.669922 0 0 0.669922 0 -0.000244141)" d="M20.8962 150.445C27.8302 126.617 39.1555 106.029 54.5812 86.5931C58.091 82.1708 62.0699 76.633 67.1132 73.9075C71.9229 71.3083 79.7048 75.4832 77.4677 81.3161C76.7387 83.2168 75.0849 84.997 73.7319 86.4845L61.25 100.608C39.6708 127.931 28.6299 161.93 28.7474 196.647C28.6302 229.881 42.2066 262.869 62.719 288.593L69.8747 296.709C74.8697 302.042 84.0461 311.382 71.3184 314.879C67.1553 313.658 64.317 310.496 61.4099 307.426L52.5429 297.17C20.0557 256.647 5.78226 200.789 20.8962 150.445Z"/>
	<path fill="#181818" transform="matrix(0.669922 0 0 0.669922 0 -0.000244141)" d="M441.023 72.5667C445.3 72.4694 447.708 75.6139 450.308 78.5177L457.263 86.6516C477.713 111.338 493.167 143.029 496.654 175C500.564 210.839 491.351 247.573 472.782 278.242C468.812 284.799 449.102 313.634 441.177 314.44C436.764 313.349 431.904 308.851 434.909 304.168C436.866 301.118 440.208 298.604 442.627 295.861C483.266 249.759 496.5 188.107 469.552 130.939C463.209 117.483 453.859 102.892 443.8 91.7822C441.388 89.1175 438.492 86.7735 436.331 83.9016C432.278 78.5178 434.89 73.7553 441.023 72.5667Z"/>
	<defs>
		<linearGradient id="gradient_1" gradientUnits="userSpaceOnUse" x1="240.65109" y1="492.36298" x2="337.69595" y2="48.154755">
			<stop offset="0" stop-color="#181818"/>
			<stop offset="1" stop-color="#181818"/>
		</linearGradient>
	</defs>
	<path fill="url(#gradient_1)" transform="matrix(0.669922 0 0 0.669922 0 -0.000244141)" d="M135.481 287.63L135.479 242.405C135.481 209.808 134.816 182.925 151.685 154.195C162.452 135.86 176.511 120.625 194.849 109.686C201.055 105.984 207.664 103.643 214.066 100.481C213.568 94.7563 213.954 88.7114 213.974 82.9553L214.025 72.5081C214.046 70.1196 213.994 67.6042 214.389 65.25C221.287 24.2041 281.279 18.9813 295.94 58.9736C298.516 66.0004 298.429 72.8236 298.438 80.2004L298.444 99.9384C299.073 100.951 305.941 103.63 307.393 104.331C336.268 118.289 359.219 143.348 369.836 173.797C375.465 187.632 376.708 201.761 376.698 216.464L376.674 320.617C376.645 347.228 383.823 367.799 402.449 387.501C410.324 395.831 424.263 402.829 425.629 415.462C426.184 417.469 426.256 419.417 426.263 421.484C426.323 438.673 416.923 451.803 399.943 455.419C394.754 456.523 389.276 456.24 384 456.239L299.811 456.239C299.369 457.305 299.424 458.495 299.249 459.625C292.641 502.328 227.882 507.717 214.019 464.834C213.757 464.023 212.303 456.358 212.168 456.243C210.184 454.54 127.508 459.115 109.852 454.938C85.9427 449.282 76.7108 416.254 95.5926 399.543C99.2964 396.265 103.339 393.566 106.86 390.041C128.936 367.942 135.414 346.103 135.452 315.032L135.481 287.63ZM148.978 306.132L148.972 324.054C148.931 354.14 138.973 378.34 117.37 399.94C112.551 404.759 105.298 407.964 101.81 413.913C95.2503 425.099 103.193 440.062 116.092 441.424C119.573 441.792 123.243 441.569 126.75 441.569L396.903 441.319C407.485 440.298 413.245 430.857 412.164 420.899L411.567 417.196C408.348 407.878 400.086 404.964 393.613 398.558C391.186 396.156 389.051 393.403 386.902 390.749C362.731 360.892 362.766 339.977 362.805 305.012L362.808 217.364C362.782 200.048 361.549 189.51 354.904 173.229C350.523 163.443 345.285 154.164 338.53 145.803C308.803 109 255.294 96.2101 212.091 115.825C185.308 127.985 165.367 151.179 155.082 178.516C149.202 194.144 148.997 210.282 148.984 226.746L148.978 306.132ZM276.38 456.227L225.912 456.482C229.793 464.644 229.796 469.225 238.738 475.475C256.031 486.25 282.54 477.738 285.62 456.179C284.405 455.362 277.575 455.814 276.38 456.227ZM252.876 45.8212C229.967 49.5087 227.756 67.8 227.751 86.7369C227.75 89.8232 227.577 93.0435 227.918 96.1097C229.179 95.9413 230.346 95.7305 231.569 95.3553C231.459 88.3763 230.641 79.9487 232.744 73.25C236.37 61.7021 246.483 56.4225 258.061 56.7925C271.008 58.4534 280.29 67.4488 280.402 80.5723L280.433 90.2898C280.44 93.8418 279.568 94.816 283.542 94.7582C284.619 93.5262 284.3 76.1419 284.121 73.4812C283.009 56.9297 270.117 44.5021 253.297 45.7858L252.876 45.8212ZM254.785 72.334C253.75 72.476 252.741 72.6003 251.75 72.9472L251.495 73.0348C243.721 75.844 244.548 86.2904 245.092 92.8411L255.937 92.7363L266.213 92.7525L266.203 83.6439C266.172 76.6126 263.842 72.1677 255.772 72.2792L254.785 72.334Z"/>
</svg>
