<?xml version="1.0" encoding="utf-8" ?>
<svg xmlns="http://www.w3.org/2000/svg" xmlns:xlink="http://www.w3.org/1999/xlink" width="343" height="343">
	<path fill="#6160FF" transform="scale(0.669922 0.669922)" d="M47.558 167.268C51.0941 167.106 54.3316 168.954 55.9642 172.224C57.6906 175.682 55.8472 192.009 54.641 195.17C53.9412 197.004 52.7607 197.588 51.0623 198.333C48.1749 198.486 44.3587 196.228 43.051 193.75C41.7412 191.268 42.0806 173.858 43.0787 171.082C43.7683 169.163 45.8271 168.097 47.558 167.268Z"/>
	<defs>
		<linearGradient id="gradient_0" gradientUnits="userSpaceOnUse" x1="354.31042" y1="145.0677" x2="171.56577" y2="291.21976">
			<stop offset="0" stop-color="#61E5FF"/>
			<stop offset="1" stop-color="#5E5EF9"/>
		</linearGradient>
	</defs>
	<path fill="url(#gradient_0)" transform="scale(0.669922 0.669922)" d="M290.19 244.081L351.806 182.461C355.446 178.637 365.085 165.747 370.792 167.921L371.122 168.042C374.385 169.311 378.292 173.762 376.758 177.538C375.967 179.483 374.261 181.092 372.827 182.577L326.056 229.004C320.21 234.78 314.691 241.223 308.563 246.666C305.385 250.564 300.923 253.702 297.28 257.162L228.833 324.773C226.788 326.66 224.606 328.579 221.961 329.541C215.011 327.95 206.569 316.675 201.574 311.808L148.15 259.692C144.841 256.422 141.297 253.198 138.297 249.641C133.585 244.055 136.56 236.738 142.697 237.152C145.313 237.328 147.3 239.021 149.275 240.585L154.89 245.286C158.515 248.476 161.74 252.058 165.14 255.478L205.059 294.833C210.717 300.358 216.349 305.644 221.475 311.691L290.19 244.081Z"/>
	<defs>
		<linearGradient id="gradient_1" gradientUnits="userSpaceOnUse" x1="205.74942" y1="165.36421" x2="67.306488" y2="312.00848">
			<stop offset="0" stop-color="#607FFF"/>
			<stop offset="1" stop-color="#685FFC"/>
		</linearGradient>
	</defs>
	<path fill="url(#gradient_1)" transform="scale(0.669922 0.669922)" d="M114.373 102.489L130.1 102.492C132.968 102.502 136.341 102.202 139.146 102.847C147.08 104.672 144.527 116.254 137.123 117.362C133.279 117.938 128.69 117.49 124.761 117.493L97.2832 117.495C97.0353 118.047 97.1305 118.793 97.126 119.401L97.1002 251.955C97.1046 259.039 96.8218 266.236 97.2885 273.3C99.6398 308.887 121.084 344.902 147.223 368.144C153.127 373.393 159.817 377.871 165.378 383.469C170.121 389.041 165.04 395.898 160.576 395.854C154.843 395.798 135.652 377.486 131.162 373.025C104.884 346.913 82.7435 306.54 82.6297 268.467L82.6043 133.403C82.5886 116.177 79.3503 103.669 102.125 102.642L114.373 102.489Z"/>
	<defs>
		<linearGradient id="gradient_2" gradientUnits="userSpaceOnUse" x1="450.76215" y1="253.73358" x2="166.89319" y2="298.10217">
			<stop offset="0" stop-color="#5FDBF9"/>
			<stop offset="1" stop-color="#7160FF"/>
		</linearGradient>
	</defs>
	<path fill="url(#gradient_2)" transform="scale(0.669922 0.669922)" d="M369.607 362.991L376.347 355.329C396.139 331.28 411.691 304.415 414.104 272.895C414.719 264.859 414.28 256.526 414.279 248.461L414.112 117.679L377.538 117.51C372.806 117.52 367.01 115.647 367.575 109.717C368.283 102.27 374.534 102.313 380.305 102.432L406.042 102.517C422.77 102.551 429.542 103.974 429.594 123.956L429.601 238.182C429.595 254.108 430.243 270.129 427.548 285.895C422.679 314.386 404.012 350.106 382.701 370.515L382.669 370.528C376.173 378.079 351.868 399.523 342.282 403.905L342.276 403.933C337.361 407.598 331.83 410.69 326.562 413.824L305.219 426.07L266.386 443.921C251.6 450.562 252.154 446.884 237.5 440.499L214.263 430.317L198.022 421.401C194.711 419.52 190.97 417.824 187.967 415.479C180.618 409.738 187.748 399.865 194.602 402.584C196.853 403.477 198.912 404.847 201.009 406.04L255.096 433.424L320.087 400.915L330.162 394.607C344.242 385.264 357.7 375.003 369.607 362.991Z"/>
	<defs>
		<linearGradient id="gradient_3" gradientUnits="userSpaceOnUse" x1="477.02448" y1="85.821289" x2="59.513561" y2="341.83301">
			<stop offset="0" stop-color="#60EFFF"/>
			<stop offset="1" stop-color="#6E5EFB"/>
		</linearGradient>
	</defs>
	<path fill="url(#gradient_3)" transform="scale(0.669922 0.669922)" d="M165.486 55.2601C189.089 49.8112 215.732 38.9475 234.482 23.0536C240.041 18.3419 243.96 14.0729 251.2 12.086C263.955 8.58534 272.401 20.5031 281.458 26.7485C306.146 43.7704 338.512 56.0585 368.25 57.8256C376.901 58.3396 385.693 58.0186 394.364 58.0183L443.364 58.0216C446.8 58.0235 451.06 57.6575 454.342 58.7349C465.477 62.3906 469.522 71.5861 469.547 82.2954L469.556 92.8757C469.553 101.137 471.828 110.844 462.067 114.292C464.422 121.008 469.517 119.13 469.535 128.461L469.433 275.422C468.751 295.156 460.041 324.535 451.125 342.941C442.152 361.467 426.505 382.896 412.403 397.296C404.665 406.34 395.611 414.209 386.503 421.818L366.728 437.503C364.552 439.074 361.9 441.354 359.508 442.454C339.862 457.452 311.873 470.127 290.023 482.004L277.401 489.341C270.055 493.802 262.465 498.617 253.441 497.328L253 497.26C245.822 496.196 239.277 492.536 233.066 488.982L195.531 468.85C182.125 461.885 168.816 454.368 156.372 445.783L118.365 416.095L103.329 401.301C66.9225 364.144 42.2885 318.379 42.301 265.778L42.1842 233.592C41.9653 230.121 41.0373 225.286 42.9131 222.134C46.1981 216.614 56.1999 218.079 57.2414 224.555L57.286 224.875C57.9572 229.456 57.1107 234.709 56.9101 239.338L56.9495 269.191C61.1454 345.671 116.11 404.813 178.552 442.795C193.173 451.688 208.382 459.536 223.678 467.189L238.669 475.178C244.156 478.256 249.61 481.784 255.681 483.586C259.023 482.987 262.224 481.248 265.25 479.755L287.728 467.477C306.362 457.434 325.405 448.108 343.233 436.64L362.88 422.212C375.578 412.361 387.277 401.835 398.713 390.562C422.746 365.131 441.984 334.364 450.68 300.227C453.938 287.433 454.727 275.011 454.721 261.923L454.73 127.498C454.744 121.836 457.088 119.431 462.175 116.503L462.488 116.326C461.862 115.042 461.7 114.335 460.457 113.544C454.44 109.717 454.748 102.429 454.739 96.0471L454.834 85.0065C455.06 75.0349 453.868 72.9728 442.742 72.9637L376.028 72.9368C337.669 72.7313 299.111 58.2631 268.656 35.3843C255.258 25.3198 256.713 24.8466 244.375 34.5119L237.811 39.2376C220.834 50.7857 201.329 61.2409 181.218 66.1731C167.405 71.2456 147.29 72.5192 132.86 72.4909L89.5241 72.4891C81.71 72.491 73.7848 72.1898 65.9914 72.6285C58.0212 73.0772 56.4714 75.5272 56.4422 83.7705L56.3876 134.63C56.3667 141.305 56.964 148.108 50.0542 151.528C46.5261 150.79 44.6493 148.88 43.1034 145.625L42.761 144.93C42.3149 143.596 42.3949 141.829 42.3655 140.422L42.3546 89.1924C42.3686 76.7699 41.5199 66.2621 54.6416 60.2846C57.4714 58.9955 60.4126 58.3321 63.5 58.1454L128.631 58.0217C141.444 58.0391 152.834 57.7836 165.486 55.2601Z"/>
</svg>
