<svg xmlns="http://www.w3.org/2000/svg" width="1024" height="1024" viewBox="0 0 1024 1024"><path fill="#E4DDD3" d="M0 0h1024v1024H0zm764.918 166.448-.719.72c-4.207-3.381-7.7-8.549-11.334-12.591-5.386-5.991-11.151-11.744-17.009-17.273-16.028-15.126-31.592-27.367-50.445-38.755-33.046-19.962-64.563-29.25-103.589-25.017-21.194 2.299-41.081 8.446-60.668 16.647-17.157 7.183-33.918 15.28-49.328 25.764-22.213 15.113-41.293 33.763-61.718 51.051a444 444 0 0 1-44.739 32.691c-40.109 25.332-83.657 45.031-125.467 67.311-9.231 4.919-17.613 11.482-26.732 16.654-3.271-11.047-7.131-21.906-10.853-32.807-1.966-5.757-4.473-11.69-5.55-17.67-1.521-8.44-.339-21.485-.349-30.437l-.14-69.025c-5.156-.056-10.351-.255-15.504-.108l-.172 111.968c-30.505 4.936-56.508-.932-81.772-19.059-6.15-4.413-12.092-10.697-18.418-14.433l-.773.505c.494 3.114 13.782 12.699 17.152 15.14 24.328 17.625 52.55 25.099 82.284 20.137a152 152 0 0 0 1.642-.282c-.107 20.177-1.05 40.784.006 60.919-7.737 6.503-15.654 12.939-23.003 19.878-11.45 10.811-22.031 22.697-32.474 34.478-7.039 7.942-12.944 17.653-20.651 24.833q-.305.288-.606.581c-3.493-.954-6.994-1.916-10.409-3.126-4.678-1.657-15.455-7.144-19.701-7.104l-.203.595c3.065 4.054 23.926 10.081 29.322 11.454-11.156 16.569-21.87 32.7-30.41 50.864-25.857 55.006-35.114 128.809-23.504 188.416 7.2 36.966 21.868 66.622 48.178 93.833 7.545 7.804 15.8 15.441 24.788 21.546 6.656 4.52 14.09 8.365 21.802 10.719 16.058 4.901 34.257 6.039 51.013 5.975 25.036-.097 50.158-2.413 75.036-5.044 2.97-.314 13.91-2.033 16.014-.687-17.615 10.028-34.632 21.403-51.535 32.575A1510 1510 0 0 0 75.76 909.619c-4.861 4.249-20.557 16.269-22.149 21.364 4.191-1.726 29.053-24.752 34.852-29.647a3531 3531 0 0 1 50.454-41.273c30.586-24.403 62.061-46.593 94.475-68.456 20.145-13.587 40.76-27.884 62.444-38.878 4.799.538 10.758-.571 15.591-1.029a1532 1532 0 0 0 29.463-3.11c6.483-.755 13.075-1.835 19.596-2.081.834 5.206 1.639 9.769 4.049 14.488-1.531 11.935-1.341 24.192-.958 36.198.406 12.712 1.358 31.965 11.608 41.127 1.76 1.574 3.772 2.662 6.079 3.185 6.27 1.419 28.311 1.015 35.623.705 5.398-5.603 7.207-13.423 8.929-20.774 11.281 3.879 22.278 8.593 33.45 12.777 9.443 3.537 19.298 6.553 28.443 10.797 2.714 13.401 7.302 37.503 14.098 48.469 5.35 8.631 13.885 15.483 23.888 17.747 10.981 2.484 26.301.91 35.881-5.35 9.897-6.468 13.315-16.495 15.801-27.538 12.193 1.076 24.081 2.794 36.375 2.636 18.844-.241 37.521-2.852 56.43-2.747 21.386.118 42.745 1.756 64.127 2.164 26.464.506 58.502-1.075 84.769-5.07q.202 1.277.472 2.541c1.013 4.547 4.234 8.159 8.102 10.596 3.387 2.134 7.297 3.499 11.211 4.272 8.947 1.768 31.278 1.84 39.934-.358 12.932-3.285 17.895-13.72 24.271-24.269 10.867-.063 31.471.881 41.534-.99 2.929-.544 6.127-1.553 8.395-3.575 4.857-4.331-.33-11.756-.666-16.94-.741-11.409 14.371-33.923 14.68-45.404.243-9.016-30.251-62.506-38.271-70.744-1.896-5.91 3.911-13.302 6.271-18.619 4.723-10.643 7.914-22.699 10.636-34.01a229.9 229.9 0 0 0 2.271-98.34c-2.047-10.433-4.95-20.758-7.738-31.018-6.575-24.2-14.707-47.764-23.52-71.224-3.946-10.505-7.301-21.28-11.405-31.7a2663 2663 0 0 1 27.041-12.299c4.399-1.972 10.636-3.602 14.255-6.694.647-.553.826-.543.897-1.388-4.618.085-36.632 15.515-42.804 18.269-2.646-4.652-4.543-9.96-6.586-14.907-4.606-11.154-8.873-22.406-13.219-33.661 6.954-3.882 58.969-28.158 60.129-31.533-1.253-.083-1.979.259-3.102.758-8.204 3.646-16.193 8.221-24.211 12.285a1411 1411 0 0 1-34.155 16.554c-2.347-5.12-3.808-11.19-5.859-16.515-3.498-9.085-7.552-17.895-11.478-26.797-1.856-4.207-3.52-8.997-6.154-12.754-.406-25.961-.039-51.982.049-77.948 8.278-6.002 16.967-11.567 25.422-17.331a3844 3844 0 0 0 37.553-25.867c7.469-5.103 21.969-13.361 27.391-19.943-8.611 3.209-27.712 17.872-36.331 23.852a2606 2606 0 0 1-54.128 36.863q-.158-27.972.002-55.946c5.336-3.219 10.404-7.237 15.464-10.879a1831 1831 0 0 0 29.119-21.272c13.256-9.761 27.077-18.835 40.23-28.715 1.461-1.097 2.905-2.19 3.916-3.732l-.872-.01.426.542-.891-.382c-4.846 1.978-18.061 12.227-22.932 15.709l-64.414 46.63c-.04-20.524.502-41.217-.05-61.721-.038-1.397.075-3.434-.93-4.408-.193.176-.419.323-.58.529-.395.507-.622 1.238-.701 1.867-.528 4.198.154 9.443.159 13.758l.025 37.156.061 101.103c-.076 15.156.176 30.385-.423 45.528-2.014-2.348-3.012-5.438-4.946-7.92-5.008-10.071-10.607-19.91-15.88-29.85-6.201-11.692-12.24-23.701-18.773-35.194-.853-28.294-.356-56.758-.244-85.065.032-8.189 1.312-35.019-.645-41.149l-.552-.062c-.667 1.676-.877 3.345-.954 5.144-.487 11.445.05 23.164.048 34.64-.004 27.289.187 54.597-.152 81.884-1.809-2.084-3.005-4.993-4.309-7.439-3.717-6.976-7.396-15.665-12.348-21.797-1.026-1.27-1.342-2.127-1.717-3.735-.623-20.343-.312-40.82-.462-61.181-.047-6.416.418-13.083.05-19.465-.122-2.118-.203-4.979-1.38-6.753-1.825 2.874-.684 71.721-.773 81.357-3.153-4.229-5.397-9.108-8.651-13.295-.708-13.82-.077-27.956.026-41.805.035-4.739.518-9.981.054-14.674-.099-1.007-.288-1.465-.839-2.288l-.757-.054c-1.702 3.226-.764 44.733-.862 52.025-5.733-7.15-10.284-15.251-16.511-21.989q-.059-10.95.022-21.899c5.724-8.226 13.403-14.972 19.408-22.99l-.219-.326c-4.321 2.062-18.675 18.142-21.637 22.749.653 5.051.384 10.252.347 15.337"/><path fill="#DFB39D" d="M213.17 283.65c9.119-5.172 17.501-11.735 26.732-16.654 41.81-22.28 85.358-41.979 125.467-67.311a444 444 0 0 0 44.739-32.691c20.425-17.288 39.505-35.938 61.718-51.051 15.41-10.484 32.171-18.581 49.328-25.764 19.587-8.2 39.474-14.348 60.668-16.647 39.026-4.234 70.543 5.055 103.589 25.017 18.853 11.388 34.417 23.629 50.445 38.755 5.858 5.529 11.623 11.282 17.009 17.273 3.634 4.042 7.127 9.21 11.334 12.591l.719-.72c-.701 8.192-.194 16.738-.165 24.965l.071 44.022q-36.406-.089-72.806.58c-3.503 5.735-30.68 52.659-31.006 55.63-11.429 6.857-19.544 16.442-26.638 27.646-5.598 8.84-10.1 20.582-19.38 26.094-15.106-1.999-25.864-12.108-38.585-19.425-22.004-12.655-47.635-15.162-68.566 1.067-21.525 16.69-32.612 47.441-35.686 73.728-1.563 13.356-1.268 26.528-.267 39.911 3.213 42.957 15.203 82.472 32.841 121.624a588 588 0 0 0 12.647 26.364c2.442 4.707 5.262 9.261 7.597 14.007.794.269 1.512.459 2.343.576-8.478.972-17.186.977-25.717 1.832-12.032 1.207-24.69 3.094-35.844 7.904-20.717 8.935-40.564 32.978-54.659 50.212l-19.823 4.853c-.958-10.896-.11-22.334-.038-33.285l.325-62.522a1363 1363 0 0 0 16.717-11.3c4.263.19 10.056 1.003 13.938-1.074 1.101-.589 1.464-1.052 1.78-2.224l-.692-.917c-4.092-2.166-8.957-1.03-13.341-.42-4.786 5.117-12.007 9.472-18.282 12.511-.3-5.68-.862-10.772-3.544-15.913a633 633 0 0 1 15.57-8.638c4.825.425 18.765 2.269 22.262-1.115.586-.567.359-.867.318-1.607-1.063-1.21-2.121-1.678-3.648-2.087-2.228-.598-4.66-.542-6.953-.523-12.44.102-18.544 6.257-28.814 12.047-2.816-5.875-5.338-11.937-7.996-17.889 6.777-2.604 13.327-5.974 19.875-9.108.479.107.956.223 1.439.306 4.494.77 18.407.954 22.202-1.7.344-.605.815-1.103.769-1.822-.071-1.111-.529-1.618-1.405-2.277-1.648-1.239-4.163-1.281-6.122-1.302-15.256-.161-25.504 10.716-39.684 13.804-.132-7.944.087-15.91.152-23.856.032-3.971.438-8.447-.321-12.357-.266-1.369-.431-1.395-1.536-2.154-1.431-.126-1.764-.337-2.951.431-2.786 5.405-1.585 26.585-1.602 33.544a61 61 0 0 1-7.232-6.102c-6.338-6.355-17.356-20.2-19.373-29.141-.787-3.487-.385-7.761-.378-11.355 12.932-2.077 23.81-11.563 35.083-17.704 4.565.449 28.532 1.207 31.306-.556.51-.324.824-1.012.893-1.602.161-1.392-.309-1.825-1.134-2.801-3.836-1.701-8.002-.759-12.059-.604-4.416.168-9.247-.548-13.562.42-4.166.934-7.771 3.516-11.316 5.768-9.152 5.813-18.423 12.768-29.305 14.649-.265-10.982-.251-21.989-.356-32.974-.037-3.95.535-8.797-.143-12.624-.244-1.379-.724-1.759-1.823-2.531-1.391-.163-1.978-.269-3.257.437-2.087 3.651-1.131 40.454-1.147 46.898-3.676-2.138-6.693-4.796-9.644-7.841-9.683-9.99-30.417-38.572-34.481-51.239-.806-2.513-.342-6.128-.304-8.772 11.681-5.057 42.775-23.533 51.631-24.816 10.571-1.531 27.016.189 38.198-.208 2.279-.08 4.707-.092 6.353-1.863.426-1.627.432-2.438.1-4.088-.528-.758-.943-1.371-1.813-1.782-3.214-1.522-8.63-.384-12.203-.411-6.704-.05-14.109-.883-20.676.35-6.242 1.172-12.655 5.303-18.284 8.229-13.239 6.882-29.473 16.65-43.318 21.438-.51-15.538-.188-31.192-.268-46.743-.036-6.996.666-15.096-.727-21.95-2.174-1.598-4.937-.824-7.45-.476l-.405 70.308c-30.049-30.069-50.302-73.152-65.047-112.523 7.7-3.857 14.992-8.786 22.517-13.01 11.581-6.501 23.487-12.486 35.315-18.522 6.265-3.197 13.027-7.327 19.845-9.118 10.322-2.71 46.062 2.182 51.549-2.313 1.281-1.049 1.806-2.388 1.853-4.038.043-1.52-.636-3.174-1.713-4.234-3.112-3.062-13.512-1.917-17.698-1.907-9.858.022-21.57-1.341-31.19.996-10.254 2.491-31.886 14.293-41.957 19.713-4.956 2.666-39.503 23.205-42.139 23.172z"/><path d="M764.918 166.448c.037-5.085.306-10.286-.347-15.337 2.962-4.607 17.316-20.687 21.637-22.749l.219.326c-6.005 8.018-13.684 14.764-19.408 22.99q-.08 10.949-.022 21.899l.309 167.46.387 263.287.225 53.759c.016 4.027-.956 10.999-.072 14.66l.584-.284c.267-.126.537-.245.803-.373.259-.124.511-.263.773-.382 3.319-1.506 10.039-.215 13.618.422.336-30.894-.512-61.804-.184-92.708l-.777.367c-2.169 1.016-3.95 1.859-6.409 1.408l-.215-.779.283.739.138-1.055c4.335-2.491 8.886-3.227 13.515-4.866l.886.368c-.091 1.344-.267 1.31-1.257 2.257l-3.682 1.003-.05 60.464c.016 10.703-1.242 30.421 1.459 39.686.218.746.407 1.505.611 2.256l9.447.407-1.094-334.791c.264-5.389-.051-10.942-.091-16.345l-.139-29.955c-.106-28.355.117-56.6-1.528-84.925.089-9.636-1.052-78.483.773-81.357 1.177 1.774 1.258 4.635 1.38 6.753.368 6.382-.097 13.049-.05 19.465.15 20.361-.161 40.838.462 61.181 1.908 36.744 1.218 73.66 1.409 110.45l1.163 365.187c5.293.649 10.596 1.386 15.9 1.923l-.236-283.373c.292-5.994.033-12.15.038-18.162l.03-35.897.07-107.157c.339-27.287.148-54.595.152-81.884.002-11.476-.535-23.195-.048-34.64.077-1.799.287-3.468.954-5.144l.552.062c1.957 6.13.677 32.96.645 41.149-.112 28.307-.609 56.771.244 85.065l-.1 68.804.125 240.671c.04 43.563-.502 87.167.058 130.725 13.985 2.109 28.083 3.889 41.905 6.918 14.483 3.174 28.778 7.842 42.768 12.726 5.95 2.077 11.691 4.778 17.397 7.443 2.742 1.28 5.722 3.043 8.612 3.887 8.02 8.238 38.514 61.728 38.271 70.744-.309 11.481-15.421 33.995-14.68 45.404.336 5.184 5.523 12.609.666 16.94-2.268 2.022-5.466 3.031-8.395 3.575-10.063 1.871-30.667.927-41.534.99-6.376 10.549-11.339 20.984-24.271 24.269-8.656 2.198-30.987 2.126-39.934.358-3.914-.773-7.824-2.138-11.211-4.272-3.868-2.437-7.089-6.049-8.102-10.596q-.27-1.264-.472-2.541c-26.267 3.995-58.305 5.576-84.769 5.07-21.382-.408-42.741-2.046-64.127-2.164-18.909-.105-37.586 2.506-56.43 2.747-12.294.158-24.182-1.56-36.375-2.636-2.486 11.043-5.904 21.07-15.801 27.538-9.58 6.26-24.9 7.834-35.881 5.35-10.003-2.264-18.538-9.116-23.888-17.747-6.796-10.966-11.384-35.068-14.098-48.469-9.145-4.244-19-7.26-28.443-10.797-11.172-4.184-22.169-8.898-33.45-12.777-1.722 7.351-3.531 15.171-8.929 20.774-7.312.31-29.353.714-35.623-.705-2.307-.523-4.319-1.611-6.079-3.185-10.25-9.162-11.202-28.415-11.608-41.127-.383-12.006-.573-24.263.958-36.198-2.41-4.719-3.215-9.282-4.049-14.488-1.274-9.843-2.963-20.022-1.941-29.951-10.006 4.997-19.667 10.646-29.366 16.206-11.253 6.451-22.492 12.851-33.343 19.965-21.684 10.994-42.299 25.291-62.444 38.878-32.414 21.863-63.889 44.053-94.475 68.456a3531 3531 0 0 0-50.454 41.273c-5.799 4.895-30.66 27.921-34.852 29.647 1.592-5.095 17.288-17.115 22.15-21.364A1510 1510 0 0 1 234.38 788.284c16.903-11.172 33.92-22.547 51.535-32.575 6.831-2.479 15.184-9.25 21.737-13.098 16.851-9.895 34.041-19.334 51.097-28.87 1.498-4.671 2.987-9.341 5.274-13.698 5.781-11.012 16.567-21.302 26.035-29.307-8.342.708-16.762 3.015-25.047 4.373a5685 5685 0 0 0-57.887 9.308c-7.266 1.21-18.816 4.285-25.763 3.915-.844-1.461-.793-3.542-.834-5.202-.673-27.059.439-54.237.808-81.296l1.348-135.272c-3.539-.432-7.062-.916-10.548-1.676-31.979-6.964-58.579-36.675-75.632-63.238l.31 241.145c1.258.252 2.435.575 3.657.954 1.749 2.554.814 71.382.651 79.735-9.182.3-18.429-.265-27.589.419-.049-26.819-.291-53.656-.024-80.473l6.938-.12c.453-23.186.078-46.426.166-69.622l.404-175.713c-30.525.483-48.359-.97-78.018-7.886-5.396-1.373-26.257-7.4-29.321-11.454l.202-.595c4.246-.04 15.023 5.447 19.701 7.104 3.415 1.21 6.916 2.172 10.409 3.126 7.038 1.554 14.03 3.378 21.133 4.614 18.571 3.233 36.974 3.603 55.76 3.02.541-29.074.113-58.322-.159-87.404-1.056-20.135-.113-40.742-.006-60.919q-.82.146-1.642.282c-29.734 4.962-57.956-2.512-82.284-20.137-3.37-2.441-16.658-12.026-17.152-15.14l.773-.505c6.326 3.736 12.267 10.02 18.418 14.433 25.264 18.127 51.267 23.995 81.772 19.059l.172-111.968c5.153-.147 10.348.052 15.504.108l.14 69.025c.01 8.952-1.172 21.997.349 30.437 1.077 5.98 3.584 11.913 5.55 17.67 3.722 10.901 7.582 21.76 10.853 32.807l.764 1.471c2.636.033 37.183-20.506 42.139-23.172 10.071-5.42 31.703-17.222 41.957-19.713 9.62-2.337 21.332-.974 31.19-.996 4.186-.01 14.586-1.155 17.698 1.907 1.077 1.06 1.756 2.714 1.713 4.234-.047 1.65-.572 2.989-1.853 4.038-5.487 4.495-41.227-.397-51.549 2.313-6.818 1.791-13.58 5.921-19.845 9.118-11.828 6.036-23.734 12.021-35.315 18.522-7.525 4.224-14.817 9.153-22.517 13.01 14.745 39.371 34.998 82.454 65.047 112.523l.405-70.308c2.513-.348 5.276-1.122 7.45.476 1.393 6.854.691 14.954.727 21.95.08 15.551-.242 31.205.268 46.743 13.845-4.788 30.079-14.556 43.318-21.438 5.629-2.926 12.042-7.057 18.284-8.229 6.567-1.233 13.972-.4 20.676-.35 3.573.027 8.989-1.111 12.203.411.87.411 1.285 1.024 1.813 1.782.332 1.65.326 2.461-.1 4.088-1.646 1.771-4.074 1.783-6.353 1.863-11.182.397-27.627-1.323-38.198.208-8.856 1.283-39.95 19.759-51.631 24.816-.038 2.644-.502 6.259.304 8.772 4.064 12.667 24.798 41.249 34.481 51.239 2.951 3.045 5.968 5.703 9.644 7.841.016-6.444-.94-43.247 1.147-46.898 1.279-.706 1.866-.6 3.257-.437 1.099.772 1.579 1.152 1.823 2.531.678 3.827.106 8.674.143 12.624.105 10.985.091 21.992.356 32.974 10.882-1.881 20.153-8.836 29.305-14.649 3.545-2.252 7.15-4.834 11.316-5.768 4.315-.968 9.146-.252 13.562-.42 4.057-.155 8.223-1.097 12.059.604.825.976 1.295 1.409 1.134 2.801-.069.59-.383 1.278-.893 1.602-2.774 1.763-26.741 1.005-31.306.556-11.273 6.141-22.151 15.627-35.083 17.704-.007 3.594-.409 7.868.378 11.355 2.017 8.941 13.035 22.786 19.373 29.141a61 61 0 0 0 7.232 6.102c.017-6.959-1.184-28.139 1.602-33.544 1.187-.768 1.52-.557 2.951-.431 1.105.759 1.27.785 1.536 2.154.759 3.91.353 8.386.321 12.357-.065 7.946-.284 15.912-.152 23.856 14.18-3.088 24.428-13.965 39.684-13.804 1.959.021 4.474.063 6.122 1.302.876.659 1.334 1.166 1.405 2.277.046.719-.425 1.217-.769 1.822-3.795 2.654-17.708 2.47-22.202 1.7-.483-.083-.96-.199-1.439-.306-6.548 3.134-13.098 6.504-19.875 9.108 2.658 5.952 5.18 12.014 7.996 17.889 10.27-5.79 16.374-11.945 28.814-12.047 2.293-.019 4.725-.075 6.953.523 1.527.409 2.585.877 3.648 2.087.041.74.268 1.04-.318 1.607-3.497 3.384-17.437 1.54-22.262 1.115a633 633 0 0 0-15.57 8.638c2.682 5.141 3.244 10.233 3.544 15.913 6.275-3.039 13.496-7.394 18.282-12.511 4.384-.61 9.249-1.746 13.341.42l.692.917c-.316 1.172-.679 1.635-1.78 2.224-3.882 2.077-9.675 1.264-13.938 1.074a1363 1363 0 0 1-16.717 11.3l-.325 62.522c-.072 10.951-.92 22.389.038 33.285l19.823-4.853c14.095-17.234 33.942-41.277 54.659-50.212 11.154-4.81 23.812-6.697 35.844-7.904 8.531-.855 17.239-.86 25.717-1.832a388 388 0 0 1 13.508-.736l-.139-91.183c7.403-8.152 13.782-17.174 21.701-24.862q20-.584 40.007-.377c.6-19.582.201-39.297.254-58.894l7.566-.19a1046 1046 0 0 0-6.537-11.937c-1.945-.125-3.608-.337-5.459-.965l.029-.753-.682.232c2.723-1.895 15.09-1.081 18.879-1.137 4.792-5.876 9.234-12.042 13.747-18.134l5.894.219.391-30.042 24.641-.183.072-46c.013-8.845.334-17.821-.178-26.65.326-2.971 27.503-49.895 31.006-55.63q36.4-.669 72.806-.58l-.071-44.022c-.029-8.227-.536-16.773.165-24.965m-73.047 73.727c-9.583 16.59-19.312 33.186-28.261 50.125-.534 11.803-.144 23.724-.136 35.546l-.014 63.71.038 215.84q13.948 1.27 27.863 2.86l.108-178.864.152-55.645c.037-8.826.766-18.296-.024-27.064.952-11.401.223-23.468.236-34.933zm2.204-2.054c-.564 30.008-.342 60.254.058 90.27l-.236 199.641c.014 26.843-.522 53.737-.258 80.572 10.741 1.84 16.72 6.373 24.991 13.063 19.584 15.838 29.876 32.212 46.728 49.452.818-64.58-.262-129.271-.314-193.863l.013-75.536c.003-13.009.636-26.501-.16-39.46.379-14.433.07-28.951.064-43.391l-.057-81.001c-23.59.006-47.245-.259-70.829.253M373.539 528.458c.966-6.716 1.078-26.532-.524-32.977l-.476.027c-1.181 7.72-.537 16.482-.51 24.295-.109 2.639-.468 5.434.216 8.006.424.251.809.547 1.294.649m166.578 85.797c-11.712.521-33.772.033-42.34 8.591-3.972 15.145-6.719 31.007-8.443 46.567-.843 7.613-.413 15.763-2.011 23.235l-1.405.474c-.706-1.737-.387-4.169-.369-6.031.507-2.529.45-5.251.564-7.827 1.978-17.786 4.806-35.112 8.421-52.64.2-1.359.375-2.779.941-4.043 4.654-10.386 39.13-10.909 49.524-11 5.12-.045 12.335.966 17.126-.759.83-1.693.553-4.007.558-5.864-26.772.058-72.093-.487-96.374 10.229-17.728 7.824-43.535 34.611-53.924 50.858-2.923 4.57-4.947 9.368-6.915 14.401 5.481.902 10.724 2.242 16.039 3.827 4.3-18.545 13.969-38.601 26.29-53.03 8.202-9.606 19.873-16.971 32.72-17.879 3.33-.236 7.853-.304 10.411 2.169 2.706 2.616 2.264 7.056 2.218 10.49-3.526 16.306-7.735 33.132-8.737 49.821-.131 1.858-.389 3.789-.299 5.647-.382 4.062-1.279 8.613-.488 12.643l.639.675 2.037-.414c11.007-2.856 35.45 4.41 46.394 8.393 23.315 8.486 37.042 12.793 47.926 36.215.443-1.667.898-3.408 1.581-4.991 1.922-4.457 6.135-7.484 10.624-8.971 6.089-2.017 13.35-2.279 19.704-2.165 24.561.444 34.106 14.561 43.48 35.531 2.294 5.132 4.883 10.234 6.879 15.486 1.235 3.249 2.1 8.554 5.339 10.247 1.266.02 1.393.143 2.356-.646-1.357-4.639-4.109-9.118-6.134-13.519-6.996-15.203-12.992-31.357-26.036-42.6-3.889-3.352-8.159-5.934-12.833-8.038-12.241-5.511-25.728-9.265-38.458-13.614-11.655-3.982-33.93-12.699-45.405-14.203-10.22-1.34-21.485-.228-31.801-.064-3.149.05-6.558.451-9.673.005-1.339-.191-2.962-.635-3.911-1.656-1.218-1.312-1.282-3.738-1.357-5.416-.479-10.714.727-43.978 3.545-53.838.598-2.093 1.566-4.088 3.086-5.669 5.914-6.155 29.984-4.942 38.513-5.215 7.492-.03 14.946.013 22.431.366l-.016-6.221q-11.21.155-22.417.443m-4.682 8.139c-6.62-.015-28.122-.675-32.246 3.932-4.968 5.548-6.703 50.042-5.629 58.543.205 1.624.442 2.751 1.652 3.878 7.73 2.018 31.092-.146 40.901-.055l21.855-.236q-.12-32.966.537-65.927c-9.01-.352-18.064-.817-27.07-.135m-91.655 17.645c-6.39 8.923-18.705 32.889-18.798 44.088-.015 1.878-1.696 2.732-1.511 4.858 1.513 1.606 3.898 1.564 5.97 1.632 4.028.132 11.072.718 14.68-1.044-4.627-1.615-12.538-.735-17.561-.623 4.524-16.943 10.372-33.168 19.385-48.257 2.02-2.555 3.842-5.257 5.952-7.743 5.934-6.991 17.919-13.73 27.252-14.215 2.249-.116 4.679.241 6.352 1.88 1.64 1.606 2.014 3.969 1.992 6.166-.051 4.96-1.576 10.008-2.666 14.827-2.263 10.01-8.905 35.861-8.77 44.435.263.127.507.309.79.38 1.25.314 3.422.153 4.455-.547a263 263 0 0 1 3.218-28.173c1.659-9.639 6.988-27.843 5.955-36.813-.188-1.633-.64-2.819-2.02-3.836-3.206-2.363-8.306-1.689-11.991-.993-14.059 2.656-24.857 12.497-32.684 23.978m24.481 52.46c.572-1.07.951-1.719 1.004-2.962-3.34-1.408-13.296-1.129-16.746-.106l-.241.787c1.143 1.343 2.557 1.448 4.193 1.789-1.549.497-2.212.47-3.183 1.815.258 1.286.645 1.791 1.733 2.561 5.265 3.725 17.801 2.585 19.921 4.392-.479 1.039-.131.836-1.044 1.156-3.843 1.349-14.508.094-18.05-1.921-5.888-3.351-5.349-10.951-8.586-10.857.353 1.601 1.865 2.638 1.783 4.166-2.79-.103-5.547-.497-8.344-.533-6.987-.092-13.994.321-20.936-.645-14.267 17.375-17.314 40.984-15.238 62.674 1.316 13.753 7.342 43.356 18.336 52.588 7.847 6.588 44.51 14.753 56.551 18.251-10.95-30.342-17.715-63.446-12.168-95.715.932-5.421 2.196-12.538 4.634-17.514 1.132-2.311 9.46-14.999 9.524-15.356.053-.294-.129-.584-.193-.875-3.713-2.658-10.227-.503-12.95-3.695m-285.314-556.65.067 108.955c3.283-.782 6.565-1.612 9.872-2.283.836-1.2.864-2.831.956-4.257.758-11.648.186-23.625.196-35.318l-.015-67.078zm13.586 105.015c-.439 18.146-.296 36.438.005 54.587l9.675-5.909 5.629-3.087a1845 1845 0 0 0-10.057-30.976c-1.569-4.717-2.879-10.264-5.252-14.615m105.065 2.765c-16.564 2.526-69.474 34.651-86.888 43.915.483 1.483.779 3.18 2.042 4.191 4.571-.663 22.627-12.61 28.19-15.605 10.343-5.389 42.92-23.5 51.396-25.085 9.135-1.708 21.038-.422 30.453-.256 4.804.084 16.389 2.067 19.161-2.43.084-1.37.181-2.001-.804-3.127-.944-1.078-2.637-1.632-4.007-1.837-3.546-.529-7.626.1-11.235.104-9.429.011-18.885-.25-28.308.13m-108.049.46c-3.421 1.291-6.909 2.017-10.477 2.778-.033 6.517-.824 55.414.382 57.107l.84-.404c3.218-2.218 6.5-4.279 9.845-6.301.794-6.32-.05-13.122-.04-19.506.018-10.972.794-22.369.007-33.285zm18.853 44.846c-4.086 2.292-13.894 6.384-15.836 10.495.089 1.279-.046 2.132.682 3.222l.897-.286c5.5-2.975 10.968-6.048 16.527-8.909-.548-1.42-1.084-3.571-2.27-4.522m2.925 6.544c-6.08 3.558-12.563 6.425-18.596 10 10.559 32.315 31.693 79.825 63.441 96.1 1.854.95 3.748 1.872 5.705 2.592 4.704 1.622 9.305 2.73 14.244 3.354-23.537-22.698-39.784-54.607-52.917-84.132-2.6-5.845-9.243-24.231-11.877-27.914m-22.099 4.455c-3.405 2.122-7.021 4.13-10.227 6.538.022 10.314-.736 85.445.548 88.675.438.166.864.379 1.332.429l9.506-.632-.074-65.492c-.045-9.294.775-19.828-.245-28.948-.687-.587-.359-.504-.84-.57m3.408 12.947c-.03 11.245-1.283 79.497 1.072 85.706 3.481 9.18 19.716 27.577 27.158 35.065 14.285 14.372 35.433 30.548 56.804 30.367.336-.003.672-.038 1.007-.057l.219-53.973c-21.764-2.246-35.906-11.674-49.587-28.581-11.511-14.227-20.023-29.734-27.477-46.38-1.534-3.425-7.46-20.418-9.196-22.147m88.548 25.369c-.123 23.494-.618 47.044-.25 70.531a440 440 0 0 1 4.35 6.004 2460 2460 0 0 1-.334-50.313c-.012-7.769.513-15.966-.098-23.684-.094-1.18.008-1.338-.865-2.211zm354.721 28.499-.992.597c-1.251 5.431-.432 12.72-.446 18.401q-.103 20.57.007 41.141c7.197.076 14.407.061 21.601.244l.895-.412c.748-6.26.17-13.166.16-19.489l-.041-40.592a565 565 0 0 0-21.184.11m-286.757 11.375c-2.883 1.022-5.647 2.19-8.433 3.454l34.91-.068c1.815.094 4.18.563 5.747-.486.48-1.127.505-1.095.113-2.251-2.509-1.698-27.949-.931-32.337-.649m277.924 18.814c-4.197 5.9-8.233 12.164-12.905 17.688-3.993.266-7.94.362-11.941.342 2.189 3.886 4.347 7.791 6.724 11.567 7.611.554 15.446.513 23.071.167.023-4.431.877-26.854-.477-29.429-1.563-.416-2.863-.406-4.472-.335m-447.836.722-.281 161.178c-.036 28.174-.469 56.406.004 84.572 3.753 0 7.519.079 11.252-.351.661-9.838.258-19.871.255-29.734l-.023-52.65-.102-163.4zm101.654 15.183.051 35.809c.014 4.6-.733 10.751.325 15.168 1.455.496 2.528.286 3.998.055l-.225-45.534zm6.531 10.478.09 36.329c14.136 15.724 22.627 24.209 44.326 26.914l.018-7.296c-15.345-8.839-26.867-27.218-35.972-42.088-2.786-4.549-5.366-9.533-8.462-13.859m313.873 5.867c-1.34 6.049-.378 18.23-.386 24.898l-.102 63.864c-.001 10.909.448 22.026.003 32.911-.076 1.844-.157 3.838-1.003 5.502-.879-.597-.829-1.27-1.024-2.3-1.314-6.949-.359-15.418-.342-22.558l-.039-43.146c-12.459-.082-25.124-.414-37.562.272l-.001 77.119.095 36.69c23.779.088 47.713-.168 71.448 1.511l-.208-174.558zm33.248.191.116 174.562c7.37.427 15.177 1.422 22.529 1.046l-.111-175.515c-7.508-.106-15.027-.295-22.534-.093m-299.477 1.481c-1.257 3.274-1.743 42.565-.559 45.496.262.647.775.863 1.312 1.258.995-3.4.821-42.529-.127-46.085zm-47.494 32.872-.179 19.797c-.109 15.056.774 19.615 11.612 30.645 5.865 5.968 14.254 11.594 22.902 11.586 3.019-.003 5.767-.777 8.387-2.26 1.279-1.186 1.328-1.688 1.434-3.414.636-10.322.093-21.011.103-31.371-14.47-1.783-24.709-5.959-35.347-16.124-2.921-2.79-5.764-6.456-8.912-8.859m-6.772 2.787-1.058 117.743c-.531 33.07-1.771 66.484-.874 99.54.022.818.177 1.336.561 2.052 1.446.654 2.964.272 4.487.09 1.089-1.003.963-1.566 1.04-3.048.705-13.678.062-27.752.07-41.469l.025-82.642.114-59.571c.053-10.589.807-21.701-.001-32.238-1.329-.745-2.888-.496-4.364-.457m53.224 12.571c-.118 2.537-.472 5.127.378 7.559.664.629 1.209 1.078 2.028 1.489.106-2.571.605-5.777-.464-8.147a9.5 9.5 0 0 0-1.942-.901m.057 10.065c-.088 5.161-1.211 29.923.496 32.959l1.348.498c1.202-2.809 1.273-28.978.066-31.676-.411-.919-1.115-1.204-1.91-1.781m224.197.798c-1.257 1.224-2.546 2.425-3.734 3.717l-.076 75.234-.029 22.055c-.003 3.188-.34 6.92.088 10.056.116.848.278 1.201.789 1.852 1.429-.308 2.392-.138 3.22-1.411.945-27.716-.011-55.715.05-83.463.009-3.979.737-24.959.16-27.196-.08-.311-.312-.563-.468-.844m-219.568 6.958c.179 7.805-.889 17.781.661 25.243 1.792 8.623 10.03 18.098 16.198 24.016 2.542 2.44 6.687 6.453 10.202 7.164q.186-11.858.077-23.716c-8.715-6.793-15.218-13.894-21.217-23.197-1.841-2.855-3.577-7.178-5.921-9.51m213.15-.047c-4.131 5.056-8.536 10.06-12.375 15.336l-.136 67.65c.001 4.741-.792 17.544.167 21.666.087.373.395.655.592.983l12.211-.072.099-75.765c.02-6.194.938-24.652-.192-29.438zm-264.403 5.433-.092 118.091c-.014 21.507-.516 43.177.124 64.669 13.186-2.209 26.441-4.928 39.67-6.775.666-.146 2.17-.229 2.485-.843.73-1.422 1.925-137.858 1.958-151.732-7.19 2.762-13.743 3.028-20.889-.204-7.811-3.534-13.963-9.833-18.871-16.725-1.481-2.08-2.795-4.513-4.385-6.481m125.109 17.414c-3.675.209-11.07-.073-14.011 2.179l.397.452c1.243.076 2.452.134 3.699.104 4.153-.401 8.984-.356 12.97-1.558l.278-.622c-1.354-.786-1.805-.629-3.333-.555m-78.625 4.473c-.016 2.917-.725 32.634.278 33.559.669.617 1.41.799 2.249 1.087.053-5.746 1.227-30.345-.259-34.155zm4.781 3.705.186 30.407c5.201 8.706 15.225 20.117 25.584 22.594.678.162.721.148 1.315.197.091-8.089.513-16.415-.014-24.488-8.49-5.19-15.801-11.474-21.338-19.833-1.748-2.639-3.503-6.76-5.733-8.877m29.334 2.791c-.072 4.303-1.32 20.26.364 23.183.437-.06.924-.078 1.337-.23-.031-4.069.848-19.952-.873-22.505zm4.003 2.669a635 635 0 0 0-.041 20.974c2.431-.694 4.92-1.32 7.322-2.103l.534-.701c-.889-3.373-5.767-15.967-7.815-18.17m8.984 20.656c-2.343.853-4.674 1.754-7.079 2.421l4.92 6.897 3.212 3.516c.212-3.683 1.132-8.924.023-12.452-.354-.138-.697-.346-1.076-.382m-13.081 2.115c-.535 27.473-.155 55.027-.257 82.511-.025 6.759-1.041 27.782.115 32.674.624.451.785.566 1.574.697 1.366-5.18.373-13.041.347-18.513l-.104-34.299v-40.372c.016-7.135.37-14.467-.063-21.579-.582-.561-.85-.772-1.612-1.119m3.986 1.095-.069 73.224c.012 13.373-.347 26.954.29 40.299l9.258-1.863c1.236-5.936.352-21.151.372-28.129.07-23.781-.077-47.592.327-71.369-4.687-3.584-7.281-10.149-10.178-12.162m-38.271 1.988c-.303 11.773-2.615 115.027-1.092 117.941.927.138 1.801.219 2.739.232 1.123-1.162 1.011-1.604 1.064-3.221.535-16.065-.253-32.391-.205-48.49.063-21.161.862-42.464.365-63.608-.016-.645-.153-1.085-.444-1.654q-1.21-.607-2.427-1.2m5.063 3.601c-.328 37.803-1.088 75.843.107 113.624a826 826 0 0 1 23.257-3.647c1.249-.314 2.074-.207 2.807-1.325.777-9.42.463-19.086.511-28.539.099-19.607-.127-39.249.28-58.849-11.93-4.929-17.795-10.57-25.926-20.328-.544-.654-.303-.408-1.036-.936m222.538 41.91c-.6 2.169-.353 4.474-.293 6.705 36.988-.187 74.353.475 111.176 4.048 12.26 1.189 24.853 2.163 36.853 5.026-.84-2.288-6.096-4.87-8.345-5.908-20.471-9.45-113.438-10.202-139.391-9.871m-.486 9c-.026 2.13-.097 4.269-.065 6.397 38.276 1.614 76.556 2.161 114.837 4.081 10.568.53 28.601.091 38.174 3.213 6.178 2.014 11.279 7.331 15.574 11.975 9.845 10.643 19.67 21.674 28.566 33.129 5.33 6.863 10.085 14.425 15.629 21.079.755.906 1.362 1.217 2.465 1.592-3.376-10.649-50.926-65.085-61.773-70.607-17.702-9.013-128.542-11.703-153.407-10.859m-86.612 7.396c-12.676 2.435-22.291 9.419-29.469 20.003-9.234 13.615-14.182 29.585-19.195 45.102q5.447.192 10.895.281c.096-5.091.313-10.396 2.442-15.119q.173-.162.348-.321c4.41-3.93 14.206-4.048 19.888-3.633 2.978.218 6.132.985 8.11 3.396 3.448 4.202 1.488 10.035 1.972 14.924 1.853-5.225 2.149-11.21 3.328-16.655 2.935-13.558 7.039-27.592 8.639-41.356.154-1.32.193-2.775-.397-4.004-.563-1.172-1.503-1.954-2.731-2.342-1.132-.357-2.661-.375-3.83-.276m86.294 1.394c-.099 21.815-1.026 43.974-.215 65.751a2188 2188 0 0 1 93.787-.877c21.41.154 42.847.113 64.227 1.392 17.351 1.037 34.397 3.924 51.657 5.336l.445-.806c-7.552-12.895-37.742-49.216-48.999-58.503-3.058-2.523-6.149-4.346-10.013-5.348-12.2-3.164-35.67-3.051-49.005-3.649-33.639-1.508-68.266-3.172-101.884-3.296m-389 22.892c.036 25.32-.252 50.701.302 76.013 7.448.072 15.984.928 23.299-.105.071-25.276-.382-50.668.233-75.93q-11.918.088-23.834.022m232.372 21.167c-4.456 1.061-9.476 1.855-13.522 4.047-7.801 4.227-22.04 20.245-26.761 27.849-10.546 16.985-6.792 34.677-3.949 53.286.656-9.715 1.189-23.162 9.01-30.166 1.095-.981 1.921-1.439 3.351-1.735 1.636.569 2.215 1.263 2.961 2.831 1.926 4.051 3.085 8.83 4.44 13.114a397.4 397.4 0 0 1 14.772 70.084c14.455 9.175 35.922 16.218 52.23 22.372 11.711 4.474 25.561 8.905 36.805 13.753l-2.117-9.818c-.941-.706-1.891-1.397-2.821-2.117-4.316-3.336-11.761-4.324-16.969-5.727-9.668-2.604-33.432-8.304-40.908-12.904-13.601-8.369-19.537-35.864-21.558-50.427-2.645-19.061-1.83-41.202 7.724-58.406 1.231-2.217 9.746-13.771 9.728-15.127-.005-.331-.238-.618-.357-.927-4.802-2.666-12.065-3.291-17.494-3.789.99-3.385 6.666-14.105 6.481-16.181zm46.69 3.634c-2.306.252-7.123.281-8.873 1.912-1.942 1.81-2.862 9.748-2.522 12.386.065.506.149.744.286 1.264 2.75 1.528 6.1.737 9.05.257 2.053-.334 4.138.036 6.186.286 3.795.23 7.565.227 11.366.193.506-4.079 1.799-10.299-.838-13.803-1.361-1.809-3.693-2.694-5.895-2.86-2.831-.213-5.943.02-8.76.365m319.829 3.49c-1.548.142-2.701.139-3.952 1.181-.409 1.412-.315 2.314.424 3.617 1.002 1.766 2.995 3.152 4.547 4.426 1.131-.145 2.36-.417 3.496-.378 2.142-.173 4.295-.306 6.429-.559l-1.844-6.517c-3.098-1.168-5.792-1.647-9.1-1.77m11.691 10.608c-3.126.376-6.224.634-9.368.802 2.23 3.288 4.4 6.608 5.961 10.279l5.845.574 8.713 1.065.08-12.981c-3.703-.122-7.593-.515-11.231.261m-305.047 5.043c-2.87-.054-6.142-.46-8.913.335l-.526.736.254 1.258 1.205.328c2.609.33 5.118.739 7.749.414.882-.701.536-.349 1.092-.999-.156-.883-.337-1.344-.861-2.072m147.524.406c-26.336.225-52.868-.127-79.166 1.387 19.89 6.332 74.417 21.805 88.752 33.149 8.812 6.974 14.935 16.686 20.019 26.55a355 355 0 0 1 4.48 9.145c22.951-.626 45.882-1.853 68.842-1.984 20.408-.117 40.732.793 61.127 1.193 26.366.635 52.821 1.714 79.188 1.783-7.077-8.513-16.389-20.725-25.712-26.589-5.689-3.579-13.671-4.644-20.114-6.241-17.698-4.386-32.69-10.883-46.429-23.119-3.095-2.756-5.806-5.853-8.78-8.72-47.126-7.172-94.672-6.699-142.207-6.554m-139.598 6.329c-8.257 3.79-12.459 11.458-15.476 19.684-10.325 28.153-4.816 69.589 4.295 97.54 1.341 4.113 2.555 8.452 4.35 12.391a15.3 15.3 0 0 0 1.711 2.874l.659.083c.269-3.973-.286-8.062-.297-12.055-.048-17.006-1.317-60.631 11.762-72.343 2.004-1.795 4.415-2.928 7.143-2.756 4.558.287 8.023 4.014 10.725 7.335 11.9 14.624 17.983 35.047 21.388 53.233 11.574 1.321 23.089 2.649 34.729 3.317 28.007 1.608 56.164 1.105 84.208 1.223 45.963.194 91.74.073 137.691-1.14q51.997-1.065 103.973-2.913c16.764-.661 33.601-1.199 50.322-2.611a906 906 0 0 0 18.607-1.675c-2.751-6.802-6.404-13.267-9.809-19.757a500 500 0 0 0-20.931-36.863c.172 6.213-1.211 22.996.347 27.506 1.826 5.286 11.398 10.866 10.261 16.734-.272.282-.487.633-.816.845-1.584 1.025-25.959 2.449-28.907 2.497-9.717.159-18.146-6.08-24.79-12.646-3.407-3.367-6.177-9.655-10.686-11.388-8.201-3.152-28.828-2.309-38.224-2.547l-55.3-1.154c-15.269-.317-30.514-1.185-45.789-1.237-25.56-.086-51.05 1.176-76.583 2.152 3.672 7.966 8.317 15.867 11.392 24.031-15.868 1.651-53.113 3.833-67.961.422-3.356-.771-6.323-2.093-9.008-4.274-4.672-3.796-7.689-9.314-9.991-14.777-3.342-7.93-5.251-16.322-8.037-24.438-8.27-24.087-25.451-29.961-47.587-38.094-13.059-4.798-29.459-9.95-43.371-9.199m285.888.85c20.463 22.954 42.364 25.539 69.909 33.723 2.148-1.719 4.25-3.425 7.036-3.948 6.723-1.264 14.797.076 21.632.505 14.138.887 28.572 2.252 42.726 2.409 1.044.005 2.177.269 3.015-.374-9.52-5.199-19.603-8.646-29.894-11.945-29.636-9.502-54.142-13.016-84.827-16.886-9.692-1.222-19.856-3.152-29.597-3.484m-399.815 25.313c-8.415 8.354-9.522 22.517-9.671 33.697l.359.708.418-1.248c1.114-8.037 2.344-15.768 5.729-23.228 1.747-3.851 6.682-6.163 4.589-8.878-.364-.473-.88-.829-1.424-1.051m228.241 3.444c-6.437.814-13.657 1.762-17.83 7.38-2.697 3.631-2.444 8.987-1.678 13.213 2.043 11.273 7.482 28.681 17.404 35.699 8.906 6.3 31.912 4.083 42.731 3.669 6.974-.133 13.985-.25 20.932-.932-7.516-18.085-16.692-48.431-36.362-56.614-7.157-2.977-17.563-3.624-25.197-2.415m-225.479 1.696c-13.376 16.409-13.364 61.446-11.137 82.604.959 9.112 3.259 21.334 10.994 27.314 5.817 4.497 25.747 2.293 33.794 2.654 2.312-.007 3.91.044 5.654-1.691 4.064-4.043 5.315-12.152 6.255-17.615-8.984-3.916-19.744-7.548-27.43-13.626-3.542-23.688-7.13-47.617-14.537-70.474-.929-2.866-1.855-6.748-3.593-9.166m473.719 1.735c-1.409.769-2.879 1.379-3.809 2.739.468 1.206 1.029 1.554 1.968 2.34 3.411 2.853 6.51 5.633 9.539 8.904 4.281 4.624 13.082 16.374 17.831 19.133l2.725.681c.564-1.971-3.43-8.73-4.485-10.638-4.687-8.477-10.429-16.655-17.381-23.43-2.125.084-4.269.11-6.388.271m10.008-.073c5.425 5.776 9.9 11.931 13.86 18.799 8.732 15.148 8.876 22.898 24.196 33.482 4.404 3.042 8.537 5.282 14.031 5.502 9.115.364 18.608-1.607 27.774-1.9.39-1.267.033-1.565-.609-2.707-2.663-4.74-7.062-8.368-9.676-13.135.199-6.863 2.537-29.593-1.985-34.155-1.211-1.222-2.51-2.025-4.204-2.358-5.175-1.017-11.085-.646-16.377-.878-14.91-.653-32.481-.745-47.01-2.65m-360.874 14.969c-6.572 4.203-9.173 11.473-10.785 18.779-1.929 8.746-2.587 18.507-2.255 27.452 1.218-5.169 2.373-10.381 4.246-15.362 2.622-6.196 6.428-13.702 12.976-16.446 3.505-1.469 7.298-1.065 10.692.486 1.025.469 2.019 1.012 3.007 1.552-3.192-5.267-8.091-14.347-14.489-16.123-1.098-.305-2.262-.322-3.392-.338m6.97 16.056c-6.793 2.75-10.228 8.322-12.987 14.796-9.9 23.225-8.795 48.78-3.835 72.974 1.442 7.032 3.022 14.322 5.761 20.964 3.062 7.427 8.367 13.817 15.877 17.023 1.455.621 2.954 1.055 4.484 1.446 4.865-.139 8.369-1.304 11.844-4.854 9.887-10.101 8.748-27.804 8.325-40.879-.586-18.09-5.973-66.524-18.716-77.896-3.025-2.699-6.776-3.66-10.753-3.574m449.866 41.233c-52.447 4.666-105.466 5.127-158.093 6.354a5082 5082 0 0 1-73.035 1.705q-39.45.129-78.897-.315c-20.228-.112-40.475.116-60.695-.534a432 432 0 0 1-30.561-1.979c-6.887-.691-13.903-1.827-20.809-2.074 3.409 20.375 6.488 42.952 3 63.481 3.321 1.185 6.627 2.333 10.018 3.304 21.654 4.806 48.228 7.938 70.413 7.239 15.571-.49 31.036-2.368 46.646-2.599 16.755-.247 33.526.897 50.261 1.564 17.042.826 34.115.838 51.158.036a880 880 0 0 0 54.903-4.69c18.673-2.24 37.265-5.065 56.059-6.134 13.711-.78 27.534-.936 41.266-1.089 7.234-.081 14.606.209 21.808-.434 2.867-.256 7.173-.589 9.565-2.239 1.229-.848 1.64-2.474 1.677-3.885.131-5.017-2.463-9.675-2.076-14.852.85-11.354 11.848-30.174 14.676-43.38-2.42.169-4.873.26-7.284.521m-59.795 66.941c-24.997.669-51.886 2.506-76.502 7.196 1.627 5.509 3.592 8.201 8.355 11.553 3.172 1.529 6.111 2.673 9.567 3.377 10.22 2.083 32.174 2.289 42.059-1.216 9.318-3.304 13.812-12.168 18.453-20.194l-.18-.654c-.542-.025-1.216-.105-1.752-.062M538 870.591c-1.924 6.794-5.458 13.64-11.952 17.102-4.191 2.235-8.871 2.424-13.319.847-6.644-2.355-11.091-7.519-15.425-12.784 3.684 12.315 9.38 24.032 21.199 30.369 1.5.804 3.019 1.525 4.632 2.076 11.095 2.898 25.925 2.122 36.068-3.645 7.299-4.149 11.952-11.624 14.04-19.603.589-2.25 1.066-4.537 1.55-6.812-12.492-1.832-24.746-3.641-36.793-7.55"/><path d="M857.574 332.242c.599-15.143.347-30.372.423-45.528l-.061-101.103-.025-37.156c-.005-4.315-.687-9.56-.159-13.758.079-.629.306-1.36.701-1.867.161-.206.387-.353.58-.529 1.005.974.892 3.011.93 4.408.552 20.504.01 41.197.05 61.721l64.414-46.63c4.871-3.482 18.086-13.731 22.932-15.709l.891.382-.426-.542.872.01c-1.011 1.542-2.455 2.635-3.916 3.732-13.153 9.88-26.974 18.954-40.23 28.715a1831 1831 0 0 1-29.119 21.272c-5.06 3.642-10.128 7.66-15.464 10.879a4921 4921 0 0 0-.002 55.946 2606 2606 0 0 0 54.128-36.863c8.619-5.98 27.72-20.643 36.331-23.852-5.422 6.582-19.922 14.84-27.391 19.943a3844 3844 0 0 1-37.553 25.867c-8.455 5.764-17.144 11.329-25.422 17.331-.088 25.966-.455 51.987-.049 77.948l-.023 67.958c7.895-3.631 15.947-7.62 23.514-11.892a1411 1411 0 0 0 34.155-16.554c8.018-4.064 16.007-8.639 24.211-12.285 1.123-.499 1.849-.841 3.102-.758-1.16 3.375-53.175 27.651-60.129 31.533-8.258 4.148-16.485 8.611-25.014 12.169l.193 56.918c15.053-6.454 29.673-13.834 44.626-20.519 6.172-2.754 38.186-18.184 42.804-18.269-.071.845-.25.835-.897 1.388-3.619 3.092-9.856 4.722-14.255 6.694a2663 2663 0 0 0-27.041 12.299c-15.909 6.983-31.552 14.601-47.405 21.722-.735-11.707-.189-23.783-.185-35.521.011-33.076 1.09-66.455-.091-99.5"/><path fill="#E4DDD3" d="m183.014 244.804-.067-108.955 11.076.019.015 67.078c-.01 11.693.562 23.67-.196 35.318-.092 1.426-.12 3.057-.956 4.257-3.307.671-6.589 1.501-9.872 2.283"/><path d="M783.508 195.566c.098-7.292-.84-48.799.862-52.025l.757.054c.551.823.74 1.281.839 2.288.464 4.693-.019 9.935-.054 14.674-.103 13.849-.734 27.985-.026 41.805-.863 11.486-.301 23.347-.316 34.872.879-.906 1.755-1.82 2.669-2.691.98-.934 2.017-1.978 3.395-1.952-.417 3.428-6.045 7.692-8.556 9.953.633-5.898.372-12.062.387-17.993z"/><path fill="#DFB39D" d="M766.997 173.577c6.227 6.738 10.778 14.839 16.511 21.989l-.043 28.985c-.015 5.931.246 12.095-.387 17.993 2.511-2.261 8.139-6.525 8.556-9.953-1.378-.026-2.415 1.018-3.395 1.952-.914.871-1.79 1.785-2.669 2.691.015-11.525-.547-23.386.316-34.872 3.254 4.187 5.498 9.066 8.651 13.295 1.645 28.325 1.422 56.57 1.528 84.925l.139 29.955c.04 5.403.355 10.956.091 16.345-1.144-1.681-.458-11.663-.446-14.207-3.534.479-7.055 1.251-10.56 1.915l-.317-43.134c2.053-2.142 6.815-6.268 6.934-9.401-3.511 1.131-6.923 5.616-9.459 8.289.544 15.416.295 30.93.2 46.356-5.206 1.113-10.142 3.219-15.341 4.337z"/><path fill="#DFB39D" d="M797.102 221.699c.375 1.608.691 2.465 1.717 3.735 4.952 6.132 8.631 14.821 12.348 21.797 1.304 2.446 2.5 5.355 4.309 7.439l-.07 107.157-.03 35.897c-.005 6.012.254 12.168-.038 18.162-1.295-2.568-.385-77.755-.407-86.554-5.514.462-11.008 1.695-16.42 2.817-.191-36.79.499-73.706-1.409-110.45"/><path fill="#DFB39D" d="M694.133 328.391c-.4-30.016-.622-60.262-.058-90.27 23.584-.512 47.239-.247 70.829-.253l.057 81.001c.006 14.44.315 28.958-.064 43.391-1.054-6.281-.316-13.586-.213-19.963-12.604-3.378-23.729-17.775-35.076-25.278-10.881-7.195-23.069-12.683-35.102-17.618.037 5.642 1.088 25.161-.373 28.99"/><path fill="#E4DDD3" d="M196.538 295.451c-.301-18.149-.444-36.441-.005-54.587 2.373 4.351 3.683 9.898 5.252 14.615a1845 1845 0 0 1 10.057 30.976l-5.629 3.087z"/><path fill="#DFB39D" d="M663.61 290.3c8.949-16.939 18.678-33.535 28.261-50.125l-.038 71.575c-.013 11.465.716 23.532-.236 34.933-.718-5.509-.267-11.522-.262-17.097l.048-31.546c-9.252-2.659-18.415-5.455-27.773-7.74"/><path fill="#DFB39D" d="M214.71 287.544c17.414-9.264 70.324-41.389 86.888-43.915 9.423-.38 18.879-.119 28.308-.13 3.609-.004 7.689-.633 11.235-.104 1.37.205 3.063.759 4.007 1.837.985 1.126.888 1.757.804 3.127-2.772 4.497-14.357 2.514-19.161 2.43-9.415-.166-21.318-1.452-30.453.256-8.476 1.585-41.053 19.696-51.396 25.085-5.563 2.995-23.619 14.942-28.19 15.605-1.263-1.011-1.559-2.708-2.042-4.191"/><path fill="#E4DDD3" d="M183.072 246.867c3.568-.761 7.056-1.487 10.477-2.778l.557.389c.787 10.916.011 22.313-.007 33.285-.01 6.384.834 13.186.04 19.506-3.345 2.022-6.627 4.083-9.845 6.301l-.84.404c-1.206-1.693-.415-50.59-.382-57.107"/><path fill="#DFB39D" d="M817.975 259.278c6.533 11.493 12.572 23.502 18.773 35.194 5.273 9.94 10.872 19.779 15.88 29.85-7.245.758-14.499 1.476-21.734 2.323-4.283.502-8.712 1.355-13.019 1.437z"/><path d="m784.972 291.456.317 43.134c.099 12.589-.279 25.212-.049 37.791a264 264 0 0 0 6.224-4.788l.711.423c.066 1.161.158 1.137-.62 1.998-2.998 3.317-7.364 6.764-11.082 9.243l-.928-.174-.697-1.32c.561-1.606 2.341-2.606 3.67-3.595l.129-37.468c.095-15.426.344-30.94-.2-46.356 2.536-2.673 5.948-7.158 9.459-8.289-.119 3.133-4.881 7.259-6.934 9.401"/><path fill="#DFB39D" d="m198.145 302.366-.897.286c-.728-1.09-.593-1.943-.682-3.222 1.942-4.111 11.75-8.203 15.836-10.495 1.186.951 1.722 3.102 2.27 4.522-5.559 2.861-11.027 5.934-16.527 8.909"/><path fill="#DFB29A" d="M663.61 290.3c9.358 2.285 18.521 5.081 27.773 7.74l-.048 31.546c-.005 5.575-.456 11.588.262 17.097.79 8.768.061 18.238.024 27.064l-.152 55.645-.108 178.864a1221 1221 0 0 0-27.863-2.86l-.038-215.84.014-63.71c-.008-11.822-.398-23.743.136-35.546m12.955 6.971c-1.694 1.671-3.396 3.317-4.959 5.112.502 8.667-.392 62.761.736 65.278l1.086.009 4.824-6.346c-.154-7.026.498-61.288-1.082-63.832zm-.198 91.489c-2.167 2.75-5.151 5.99-5.459 9.64.825.009 1.259-.549 1.832-1.128 1.063-1.075 1.843-2.549 2.613-3.843-.284 8.783.58 54.26-.918 58.762l-.367-.069c-.622-5.209-.121-10.722-.167-15.979a1707 1707 0 0 1-.223-31.759l-.479-.955-.681.019c-1.593 3.962-.048 44.115-.765 52.667 2.175-.23 3.775-2.244 5.221-3.767l.075-39.884c.077-6.752.595-13.646.401-20.384-.034-1.218.081-2.278-.838-3.168-.069-.067-.163-.102-.245-.152m-.606 101.012c-2.364 2.497-4.56 4.989-6.466 7.861.595 8.132.355 16.422.371 24.575l-.076 37.251c-.047 4.44-1.228 21.83-.282 24.502l.881.074c2.345-1.172 4.67-2.304 6.86-3.756.4-7.678 1.003-88.1-.627-89.899-.458-.506-.249-.34-.661-.608"/><path fill="#DFB29A" d="M614.994 345.385c9.28-5.512 13.782-17.254 19.38-26.094 7.094-11.204 15.209-20.789 26.638-27.646.512 8.829.191 17.805.178 26.65l-.072 46-24.641.183-.391 30.042-5.894-.219c-4.513 6.092-8.955 12.258-13.747 18.134-3.789.056-16.156-.758-18.879 1.137l.682-.232-.029.753c1.851.628 3.514.84 5.459.965q3.308 5.947 6.537 11.937l-7.566.19c-.053 19.597.346 39.312-.254 58.894a1011 1011 0 0 0-40.007.377c-7.919 7.688-14.298 16.71-21.701 24.862l.139 91.183q-6.76.25-13.508.736a12.4 12.4 0 0 1-2.343-.576c-2.335-4.746-5.155-9.3-7.597-14.007a588 588 0 0 1-12.647-26.364c-17.638-39.152-29.628-78.667-32.841-121.624-1.001-13.383-1.296-26.555.267-39.911 3.074-26.287 14.161-57.038 35.686-73.728 20.931-16.229 46.562-13.722 68.566-1.067 12.721 7.317 23.479 17.426 38.585 19.425"/><path fill="#DFB39D" d="M196.731 305.479c6.033-3.575 12.516-6.442 18.596-10 2.634 3.683 9.277 22.069 11.877 27.914 13.133 29.525 29.38 61.434 52.917 84.132-4.939-.624-9.54-1.732-14.244-3.354-1.957-.72-3.851-1.642-5.705-2.592-31.748-16.275-52.882-63.785-63.441-96.1"/><path d="M671.606 302.383c1.563-1.795 3.265-3.441 4.959-5.112l.605.221c1.58 2.544.928 56.806 1.082 63.832l-4.824 6.346-1.086-.009c-1.128-2.517-.234-56.611-.736-65.278m3.612-1.015c-.958 1.224-1.336 1.596-1.506 3.173-1.095 10.206.13 21.419.164 31.731.027 8.064-.835 20.333-.169 27.857.731-.816 1.791-1.846 2.107-2.913.645-2.182.559-53.901.08-58.236-.082-.741-.174-1.105-.676-1.612"/><path fill="#DFB39D" d="M183.001 306.472c3.206-2.408 6.822-4.416 10.227-6.538.481.066.153-.017.84.57 1.02 9.12.2 19.654.245 28.948l.074 65.492-9.506.632c-.468-.05-.894-.263-1.332-.429-1.284-3.23-.526-78.361-.548-88.675"/><path fill="#DFB29A" d="M694.133 328.391c1.461-3.829.41-23.348.373-28.99 12.033 4.935 24.221 10.423 35.102 17.618 11.347 7.503 22.472 21.9 35.076 25.278-.103 6.377-.841 13.682.213 19.963.796 12.959.163 26.451.16 39.46l-.013 75.536c.052 64.592 1.132 129.283.314 193.863-16.852-17.24-27.144-33.614-46.728-49.452-8.271-6.69-14.25-11.223-24.991-13.063-.264-26.835.272-53.729.258-80.572z"/><path fill="#DFB39D" d="M673.707 364.129c-.666-7.524.196-19.793.169-27.857-.034-10.312-1.259-21.525-.164-31.731.17-1.577.548-1.949 1.506-3.173.502.507.594.871.676 1.612.479 4.335.565 56.054-.08 58.236-.316 1.067-1.376 2.097-2.107 2.913"/><path fill="#DFB39D" d="M103.989 388.268q.301-.293.606-.581c7.707-7.18 13.612-16.891 20.651-24.833 10.443-11.781 21.024-23.667 32.474-34.478 7.349-6.939 15.266-13.375 23.003-19.878.272 29.082.7 58.33.159 87.404-18.786.583-37.189.213-55.76-3.02-7.103-1.236-14.095-3.06-21.133-4.614"/><path fill="#DFB39D" d="M282.677 463.962c-.335.019-.671.054-1.007.057-21.371.181-42.519-15.995-56.804-30.367-7.442-7.488-23.677-25.885-27.158-35.065-2.355-6.209-1.102-74.461-1.072-85.706 1.736 1.729 7.662 18.722 9.196 22.147 7.454 16.646 15.966 32.153 27.477 46.38 13.681 16.907 27.823 26.335 49.587 28.581z"/><path fill="#DFB29A" d="M817.875 328.082c4.307-.082 8.736-.935 13.019-1.437 7.235-.847 14.489-1.565 21.734-2.323 1.934 2.482 2.932 5.572 4.946 7.92 1.181 33.045.102 66.424.091 99.5-.004 11.738-.55 23.814.185 35.521 15.853-7.121 31.496-14.739 47.405-21.722 4.104 10.42 7.459 21.195 11.405 31.7 8.813 23.46 16.945 47.024 23.52 71.224 2.788 10.26 5.691 20.585 7.738 31.018a229.9 229.9 0 0 1-2.271 98.34c-2.722 11.311-5.913 23.367-10.636 34.01-2.36 5.317-8.167 12.709-6.271 18.619-2.89-.844-5.87-2.607-8.612-3.887-5.706-2.665-11.447-5.366-17.397-7.443-13.99-4.884-28.285-9.552-42.768-12.726-13.822-3.029-27.92-4.809-41.905-6.918-.56-43.558-.018-87.162-.058-130.725z"/><path fill="#DFB29A" d="M798.511 332.149c5.412-1.122 10.906-2.355 16.42-2.817.022 8.799-.888 83.986.407 86.554l.236 283.373c-5.304-.537-10.607-1.274-15.9-1.923z"/><path fill="#DFB29A" d="M785.289 334.59c3.505-.664 7.026-1.436 10.56-1.915-.012 2.544-.698 12.526.446 14.207l1.094 334.791-9.447-.407c-.204-.751-.393-1.51-.611-2.256-2.701-9.265-1.443-28.983-1.459-39.686l.05-60.464 3.682-1.003c.99-.947 1.166-.913 1.257-2.257l-.886-.368c-4.629 1.639-9.18 2.375-13.515 4.866l-.138 1.055-.283-.739.215.779c2.459.451 4.24-.392 6.409-1.408l.777-.367c-.328 30.904.52 61.814.184 92.708-3.579-.637-10.299-1.928-13.618-.422-.262.119-.514.258-.773.382-.266.128-.536.247-.803.373l-.584.284c-.884-3.661.088-10.633.072-14.66l-.225-53.759-.387-263.287c5.199-1.118 10.135-3.224 15.341-4.337l-.129 37.468c-1.329.989-3.109 1.989-3.67 3.595l.697 1.32.928.174c3.718-2.479 8.084-5.926 11.082-9.243.778-.861.686-.837.62-1.998l-.711-.423a264 264 0 0 1-6.224 4.788c-.23-12.579.148-25.202.049-37.791m.25 75.816c-1.438 1.134-2.049 1.405-2.3 3.33-.716 5.476-.226 11.541-.222 17.089l-.081 37.394c-.019 5.929.462 12.271-.131 18.135-.355 3.514-3.008 3.95-3.292 6.379l.612.401c.639-.152 1.06-.263 1.641-.585 1.707-.934 4.168-1.895 5.228-3.557-.479-.77-.795-1.155-1.43-1.763-.434-10.117-1.003-69.542.839-75.494-.269-.586-.312-.971-.864-1.329"/><path fill="#DFB29A" d="M860.009 336.859c2.634 3.757 4.298 8.547 6.154 12.754 3.926 8.902 7.98 17.712 11.478 26.797 2.051 5.325 3.512 11.395 5.859 16.515-7.567 4.272-15.619 8.261-23.514 11.892z"/><path fill="#DFB39D" d="M284.934 408.781c-.368-23.487.127-47.037.25-70.531l2.803.327c.873.873.771 1.031.865 2.211.611 7.718.086 15.915.098 23.684q-.09 25.158.334 50.313a440 440 0 0 0-4.35-6.004"/><path fill="#DFB29A" d="M638.474 426.888a3973 3973 0 0 1-.007-41.141c.014-5.681-.805-12.97.446-18.401l.992-.597q10.591-.254 21.184-.11l.041 40.592c.01 6.323.588 13.229-.16 19.489l-.895.412c-7.194-.183-14.404-.168-21.601-.244"/><path fill="#DFB39D" d="M344.715 381.578c2.786-1.264 5.55-2.432 8.433-3.454 4.388-.282 29.828-1.049 32.337.649.392 1.156.367 1.124-.113 2.251-1.567 1.049-3.932.58-5.747.486z"/><path d="M675.353 393.429c-.77 1.294-1.55 2.768-2.613 3.843-.573.579-1.007 1.137-1.832 1.128.308-3.65 3.292-6.89 5.459-9.64.082.05.176.085.245.152.919.89.804 1.95.838 3.168.194 6.738-.324 13.632-.401 20.384l-.075 39.884c-1.446 1.523-3.046 3.537-5.221 3.767.717-8.552-.828-48.705.765-52.667l.681-.019.479.955q-.036 15.881.223 31.759c.046 5.257-.455 10.77.167 15.979l.367.069c1.498-4.502.634-49.979.918-58.762"/><path fill="#DFB39D" d="M102.998 390.087c29.659 6.916 47.493 8.369 78.018 7.886l-.404 175.713c-.088 23.196.287 46.436-.166 69.622l-6.938.12c-.267 26.817-.025 53.654.024 80.473 9.16-.684 18.407-.119 27.589-.419.163-8.353 1.098-77.181-.651-79.735a36 36 0 0 0-3.657-.954l-.31-241.145c17.053 26.563 43.653 56.274 75.632 63.238 3.486.76 7.009 1.244 10.548 1.676l-1.348 135.272c-.369 27.059-1.481 54.237-.808 81.296.041 1.66-.01 3.741.834 5.202 6.947.37 18.497-2.705 25.763-3.915a5685 5685 0 0 1 57.887-9.308c8.285-1.358 16.705-3.665 25.047-4.373-9.468 8.005-20.254 18.295-26.035 29.307-2.287 4.357-3.776 9.027-5.274 13.698-17.056 9.536-34.246 18.975-51.097 28.87-6.553 3.848-14.906 10.619-21.737 13.098-2.104-1.346-13.044.373-16.014.687-24.878 2.631-50 4.947-75.036 5.044-16.756.064-34.955-1.074-51.013-5.975-7.712-2.354-15.146-6.199-21.802-10.719-8.988-6.105-17.243-13.742-24.788-21.546-26.31-27.211-40.978-56.867-48.178-93.833-11.61-59.607-2.353-133.41 23.505-188.416 8.539-18.164 19.253-34.295 30.409-50.864"/><path fill="#DFB29A" d="M859.825 407.03c8.529-3.558 16.756-8.021 25.014-12.169 4.346 11.255 8.613 22.507 13.219 33.661 2.043 4.947 3.94 10.255 6.586 14.907-14.953 6.685-29.573 14.065-44.626 20.519z"/><path fill="#DFB29A" d="M618.167 414.626c4.672-5.524 8.708-11.788 12.905-17.688 1.609-.071 2.909-.081 4.472.335 1.354 2.575.5 24.998.477 29.429-7.625.346-15.46.387-23.071-.167-2.377-3.776-4.535-7.681-6.724-11.567 4.001.02 7.948-.076 11.941-.342m8.406.287-1.484.968c-.233 1.346-.304 1.624.524 2.819.778 1.122 2.221 1.768 3.424 2.286.815-1.468 1.185-2.463 1.464-4.117-.503-1.26-.513-1.284-1.69-1.955z"/><path fill="#DFB39D" d="M182.959 643.41c-.473-28.166-.04-56.398-.004-84.572l.281-161.178 11.105-.385.102 163.4.023 52.65c.003 9.863.406 19.896-.255 29.734-3.733.43-7.499.351-11.252.351"/><path d="M781.766 492.549c-.581.322-1.002.433-1.641.585l-.612-.401c.284-2.429 2.937-2.865 3.292-6.379.593-5.864.112-12.206.131-18.135l.081-37.394c-.004-5.548-.494-11.613.222-17.089.251-1.925.862-2.196 2.3-3.33.552.358.595.743.864 1.329-1.842 5.952-1.273 65.377-.839 75.494.635.608.951.993 1.43 1.763-1.06 1.662-3.521 2.623-5.228 3.557"/><path fill="#DFB39D" d="M289.264 463.875c-1.47.231-2.543.441-3.998-.055-1.058-4.417-.311-10.568-.325-15.168l-.051-35.809 4.149 5.498z"/><path fill="#DFB39D" d="M629.037 420.986c-1.203-.518-2.646-1.164-3.424-2.286-.828-1.195-.757-1.473-.524-2.819l1.484-.968 2.238.001c1.177.671 1.187.695 1.69 1.955-.279 1.654-.649 2.649-1.464 4.117"/><path fill="#DFB39D" d="m291.511 459.65-.09-36.329c3.096 4.326 5.676 9.31 8.462 13.859 9.105 14.87 20.627 33.249 35.972 42.088l-.018 7.296c-21.699-2.705-30.19-11.19-44.326-26.914"/><path fill="#DFB29A" d="m602.401 488.359.039 43.146c-.017 7.14-.972 15.609.342 22.558.195 1.03.145 1.703 1.024 2.3.846-1.664.927-3.658 1.003-5.502.445-10.885-.004-22.002-.003-32.911l.102-63.864c.008-6.668-.954-18.849.386-24.898l30.879.205.208 174.558c-23.735-1.679-47.669-1.423-71.448-1.511l-.095-36.69.001-77.119c12.438-.686 25.103-.354 37.562-.272"/><path fill="#DFB29A" d="m638.658 603.941-.116-174.562c7.507-.202 15.026-.013 22.534.093l.111 175.515c-7.352.376-15.159-.619-22.529-1.046"/><path fill="#DFB39D" d="M339.818 477.614c-.537-.395-1.05-.611-1.312-1.258-1.184-2.931-.698-42.222.559-45.496l.626.669c.948 3.556 1.122 42.685.127 46.085"/><path fill="#DFB39D" d="M334.293 523.5c-2.62 1.483-5.368 2.257-8.387 2.26-8.648.008-17.037-5.618-22.902-11.586-10.838-11.03-11.721-15.589-11.612-30.645l.179-19.797c3.148 2.403 5.991 6.069 8.912 8.859 10.638 10.165 20.877 14.341 35.347 16.124-.01 10.36.533 21.049-.103 31.371-.106 1.726-.155 2.228-1.434 3.414"/><path fill="#DFB39D" d="M287.915 685.944c-1.523.182-3.041.564-4.487-.09-.384-.716-.539-1.234-.561-2.052-.897-33.056.343-66.47.874-99.54l1.058-117.743c1.476-.039 3.035-.288 4.364.457.808 10.537.054 21.649.001 32.238l-.114 59.571-.025 82.642c-.008 13.717.635 27.791-.07 41.469-.077 1.482.049 2.045-1.04 3.048"/><path fill="#DFB39D" d="M340.429 488.138c-.819-.411-1.364-.86-2.028-1.489-.85-2.432-.496-5.022-.378-7.559.76.258 1.262.502 1.942.901 1.069 2.37.57 5.576.464 8.147"/><path fill="#DFB39D" d="m339.924 522.612-1.348-.498c-1.707-3.036-.584-27.798-.496-32.959.795.577 1.499.862 1.91 1.781 1.207 2.698 1.136 28.867-.066 31.676"/><path fill="#DFB29A" d="M558.543 493.67c1.188-1.292 2.477-2.493 3.734-3.717.156.281.388.533.468.844.577 2.237-.151 23.217-.16 27.196-.061 27.748.895 55.747-.05 83.463-.828 1.273-1.791 1.103-3.22 1.411-.511-.651-.673-1.004-.789-1.852-.428-3.136-.091-6.868-.088-10.056l.029-22.055z"/><path d="M669.295 497.633c1.906-2.872 4.102-5.364 6.466-7.861.412.268.203.102.661.608 1.63 1.799 1.027 82.221.627 89.899-2.19 1.452-4.515 2.584-6.86 3.756l-.881-.074c-.946-2.672.235-20.062.282-24.502l.076-37.251c-.016-8.153.224-16.443-.371-24.575m5.033-2.762c-1.611 1.8-3.573 3.488-3.509 6.108.035 1.43.601 2.939.977 4.313 1.087 3.969-.252 10.479-.287 14.729-.168 20.476-.158 40.903-.786 61.375 1.527-.563 2.634-1.144 3.978-2.064q.417-30.792.359-61.586c0-5.565.884-17.495-.364-22.518z"/><path fill="#DFB29A" d="M670.723 581.396c.628-20.472.618-40.899.786-61.375.035-4.25 1.374-10.76.287-14.729-.376-1.374-.942-2.883-.977-4.313-.064-2.62 1.898-4.308 3.509-6.108l.368.357c1.248 5.023.364 16.953.364 22.518a4001 4001 0 0 1-.359 61.586c-1.344.92-2.451 1.501-3.978 2.064"/><path fill="#88958A" d="M372.029 519.803c-.027-7.813-.671-16.575.51-24.295l.476-.027c1.602 6.445 1.49 26.261.524 32.977-.485-.102-.87-.398-1.294-.649-.684-2.572-.325-5.367-.216-8.006"/><path fill="#DFB39D" d="M369.77 553.334c-3.515-.711-7.66-4.724-10.202-7.164-6.168-5.918-14.406-15.393-16.198-24.016-1.55-7.462-.482-17.438-.661-25.243 2.344 2.332 4.08 6.655 5.921 9.51 5.999 9.303 12.502 16.404 21.217 23.197q.109 11.858-.077 23.716"/><path fill="#DFB29A" d="M543.484 512.2c3.839-5.276 8.244-10.28 12.375-15.336l.366.36c1.13 4.786.212 23.244.192 29.438l-.099 75.765-12.211.072c-.197-.328-.505-.61-.592-.983-.959-4.122-.166-16.925-.167-21.666z"/><path fill="#DFB39D" d="M291.488 685.057c-.64-21.492-.138-43.162-.124-64.669l.092-118.091c1.59 1.968 2.904 4.401 4.385 6.481 4.908 6.892 11.06 13.191 18.871 16.725 7.146 3.232 13.699 2.966 20.889.204-.033 13.874-1.228 150.31-1.958 151.732-.315.614-1.819.697-2.485.843-13.229 1.847-26.484 4.566-39.67 6.775"/><path fill="#DFB39D" d="M406.65 522.446c-1.247.03-2.456-.028-3.699-.104l-.397-.452c2.941-2.252 10.336-1.97 14.011-2.179 1.528-.074 1.979-.231 3.333.555l-.278.622c-3.986 1.202-8.817 1.157-12.97 1.558"/><path fill="#DFB39D" d="M340.467 558.83c-.839-.288-1.58-.47-2.249-1.087-1.003-.925-.294-30.642-.278-33.559l2.268.491c1.486 3.81.312 28.409.259 34.155"/><path fill="#DFB39D" d="m342.907 558.296-.186-30.407c2.23 2.117 3.985 6.238 5.733 8.877 5.537 8.359 12.848 14.643 21.338 19.833.527 8.073.105 16.399.014 24.488-.594-.049-.637-.035-1.315-.197-10.359-2.477-20.383-13.888-25.584-22.594"/><path fill="#DFB39D" d="M373.756 553.633c-.413.152-.9.17-1.337.23-1.684-2.923-.436-18.88-.364-23.183l.828.448c1.721 2.553.842 18.436.873 22.505"/><path fill="#DFB39D" d="M376.017 554.323a635 635 0 0 1 .041-20.974c2.048 2.203 6.926 14.797 7.815 18.17l-.534.701c-2.402.783-4.891 1.409-7.322 2.103"/><path fill="#DFB39D" d="M377.963 556.426c2.405-.667 4.736-1.568 7.079-2.421.379.036.722.244 1.076.382 1.109 3.528.189 8.769-.023 12.452l-3.212-3.516z"/><path fill="#DFB39D" d="M373.393 672.002c-.789-.131-.95-.246-1.574-.697-1.156-4.892-.14-25.915-.115-32.674.102-27.484-.278-55.038.257-82.511.762.347 1.03.558 1.612 1.119.433 7.112.079 14.444.063 21.579v40.372l.104 34.299c.026 5.472 1.019 13.333-.347 18.513"/><path fill="#DFB39D" d="M376.168 670.738c-.637-13.345-.278-26.926-.29-40.299l.069-73.224c2.897 2.013 5.491 8.578 10.178 12.162-.404 23.777-.257 47.588-.327 71.369-.02 6.978.864 22.193-.372 28.129z"/><path fill="#DFB39D" d="M339.323 677.376a20 20 0 0 1-2.739-.232c-1.523-2.914.789-106.168 1.092-117.941q1.216.592 2.427 1.2c.291.569.428 1.009.444 1.654.497 21.144-.302 42.447-.365 63.608-.048 16.099.74 32.425.205 48.49-.053 1.617.059 2.059-1.064 3.221"/><path fill="#DFB39D" d="M342.846 676.428c-1.195-37.781-.435-75.821-.107-113.624.733.528.492.282 1.036.936 8.131 9.758 13.996 15.399 25.926 20.328-.407 19.6-.181 39.242-.28 58.849-.048 9.453.266 19.119-.511 28.539-.733 1.118-1.558 1.011-2.807 1.325a826 826 0 0 0-23.257 3.647"/><path fill="#DFB29A" d="M564.984 611.419c-.06-2.231-.307-4.536.293-6.705 25.953-.331 118.92.421 139.391 9.871 2.249 1.038 7.505 3.62 8.345 5.908-12-2.863-24.593-3.837-36.853-5.026-36.823-3.573-74.188-4.235-111.176-4.048"/><path fill="#E4DDD2" d="M497.777 622.846c8.568-8.558 30.628-8.07 42.34-8.591l.002 5.412c-8.529.273-32.599-.94-38.513 5.215-1.52 1.581-2.488 3.576-3.086 5.669-2.818 9.86-4.024 43.124-3.545 53.838.075 1.678.139 4.104 1.357 5.416.949 1.021 2.572 1.465 3.911 1.656 3.115.446 6.524.045 9.673-.005 10.316-.164 21.581-1.276 31.801.064 11.475 1.504 33.75 10.221 45.405 14.203 12.73 4.349 26.217 8.103 38.458 13.614 4.674 2.104 8.944 4.686 12.833 8.038 13.044 11.243 19.04 27.397 26.036 42.6 2.025 4.401 4.777 8.88 6.134 13.519-.963.789-1.09.666-2.356.646-3.239-1.693-4.104-6.998-5.339-10.247-1.996-5.252-4.585-10.354-6.879-15.486-9.374-20.97-18.919-35.087-43.48-35.531-6.354-.114-13.615.148-19.704 2.165-4.489 1.487-8.702 4.514-10.624 8.971-.683 1.583-1.138 3.324-1.581 4.991-10.884-23.422-24.611-27.729-47.926-36.215-10.944-3.983-35.387-11.249-46.394-8.393l-2.037.414-.639-.675c-.791-4.03.106-8.581.488-12.643-.09-1.858.168-3.789.299-5.647 1.002-16.689 5.211-33.515 8.737-49.821.046-3.434.488-7.874-2.218-10.49-2.558-2.473-7.081-2.405-10.411-2.169-12.847.908-24.518 8.273-32.72 17.879-12.321 14.429-21.99 34.485-26.29 53.03-5.315-1.585-10.558-2.925-16.039-3.827 1.968-5.033 3.992-9.831 6.915-14.401 10.389-16.247 36.196-43.034 53.924-50.858 24.281-10.716 69.602-10.171 96.374-10.229-.005 1.857.272 4.171-.558 5.864-4.791 1.725-12.006.714-17.126.759-10.394.091-44.87.614-49.524 11-.566 1.264-.741 2.684-.941 4.043-3.615 17.528-6.443 34.854-8.421 52.64-.114 2.576-.057 5.298-.564 7.827-.018 1.862-.337 4.294.369 6.031l1.405-.474c1.598-7.472 1.168-15.622 2.011-23.235 1.724-15.56 4.471-31.422 8.443-46.567"/><path fill="#DFB29A" d="M564.726 620.111c-.032-2.128.039-4.267.065-6.397 24.865-.844 135.705 1.846 153.407 10.859 10.847 5.522 58.397 59.958 61.773 70.607-1.103-.375-1.71-.686-2.465-1.592-5.544-6.654-10.299-14.216-15.629-21.079-8.896-11.455-18.721-22.486-28.566-33.129-4.295-4.644-9.396-9.961-15.574-11.975-9.573-3.122-27.606-2.683-38.174-3.213-38.281-1.92-76.561-2.467-114.837-4.081"/><path fill="#DFB29A" d="M540.117 614.255q11.207-.288 22.417-.443l.016 6.221c-7.485-.353-14.939-.396-22.431-.366z"/><path fill="#E4DDD2" d="M426.56 688.95c5.023-.112 12.934-.992 17.561.623-3.608 1.762-10.652 1.176-14.68 1.044-2.072-.068-4.457-.026-5.97-1.632-.185-2.126 1.496-2.98 1.511-4.858.093-11.199 12.408-35.165 18.798-44.088 7.827-11.481 18.625-21.322 32.684-23.978 3.685-.696 8.785-1.37 11.991.993 1.38 1.017 1.832 2.203 2.02 3.836 1.033 8.97-4.296 27.174-5.955 36.813a263 263 0 0 0-3.218 28.173c-1.033.7-3.205.861-4.455.547-.283-.071-.527-.253-.79-.38-.135-8.574 6.507-34.425 8.77-44.435 1.09-4.819 2.615-9.867 2.666-14.827.022-2.197-.352-4.56-1.992-6.166-1.673-1.639-4.103-1.996-6.352-1.88-9.333.485-21.318 7.224-27.252 14.215-2.11 2.486-3.932 5.188-5.952 7.743-9.013 15.089-14.861 31.314-19.385 48.257"/><path fill="#DFB39D" d="M429.515 686.215c5.013-15.517 9.961-31.487 19.195-45.102 7.178-10.584 16.793-17.568 29.469-20.003 1.169-.099 2.698-.081 3.83.276 1.228.388 2.168 1.17 2.731 2.342.59 1.229.551 2.684.397 4.004-1.6 13.764-5.704 27.798-8.639 41.356-1.179 5.445-1.475 11.43-3.328 16.655-.484-4.889 1.476-10.722-1.972-14.924-1.978-2.411-5.132-3.178-8.11-3.396-5.682-.415-15.478-.297-19.888 3.633q-.175.159-.348.321c-2.129 4.723-2.346 10.028-2.442 15.119a574 574 0 0 1-10.895-.281"/><path fill="#DFB29A" d="M535.435 622.394c9.006-.682 18.06-.217 27.07.135a2803 2803 0 0 0-.537 65.927l-21.855.236c-.057-14.969.356-29.955.421-44.928.028-6.6.696-14.086-.36-20.595-1.451-.788-3.111-.681-4.739-.775"/><path fill="#E4DDD2" d="M540.113 688.692c-9.809-.091-33.171 2.073-40.901.055-1.21-1.127-1.447-2.254-1.652-3.878-1.074-8.501.661-52.995 5.629-58.543 4.124-4.607 25.626-3.947 32.246-3.932 1.628.094 3.288-.013 4.739.775 1.056 6.509.388 13.995.36 20.595-.065 14.973-.478 29.959-.421 44.928"/><path fill="#DFB29A" d="M564.258 688.255c-.811-21.777.116-43.936.215-65.751 33.618.124 68.245 1.788 101.884 3.296 13.335.598 36.805.485 49.005 3.649 3.864 1.002 6.955 2.825 10.013 5.348 11.257 9.287 41.447 45.608 48.999 58.503l-.445.806c-17.26-1.412-34.306-4.299-51.657-5.336-21.38-1.279-42.817-1.238-64.227-1.392a2188 2188 0 0 0-93.787.877"/><path fill="#DFB39D" d="M175.775 721.409c-.554-25.312-.266-50.693-.302-76.013q11.916.066 23.834-.022c-.615 25.262-.162 50.654-.233 75.93-7.315 1.033-15.851.177-23.299.105"/><path fill="#E4DDD2" d="M363.613 751.745c-2.843-18.609-6.597-36.301 3.949-53.286 4.721-7.604 18.96-23.622 26.761-27.849 4.046-2.192 9.066-2.986 13.522-4.047l1.046.012c.185 2.076-5.491 12.796-6.481 16.181 5.429.498 12.692 1.123 17.494 3.789.119.309.352.596.357.927.018 1.356-8.497 12.91-9.728 15.127-9.554 17.204-10.369 39.345-7.724 58.406 2.021 14.563 7.957 42.058 21.558 50.427 7.476 4.6 31.24 10.3 40.908 12.904 5.208 1.403 12.653 2.391 16.969 5.727.93.72 1.88 1.411 2.821 2.117l2.117 9.818c-11.244-4.848-25.094-9.279-36.805-13.753-16.308-6.154-37.775-13.197-52.23-22.372a397.4 397.4 0 0 0-14.772-70.084c-1.355-4.284-2.514-9.063-4.44-13.114-.746-1.568-1.325-2.262-2.961-2.831-1.43.296-2.256.754-3.351 1.735-7.821 7.004-8.354 20.451-9.01 30.166"/><path fill="#E4DDD2" d="M458.662 686.302c-2.048-.25-4.133-.62-6.186-.286-2.95.48-6.3 1.271-9.05-.257-.137-.52-.221-.758-.286-1.264-.34-2.638.58-10.576 2.522-12.386 1.75-1.631 6.567-1.66 8.873-1.912 2.817-.345 5.929-.578 8.76-.365 2.202.166 4.534 1.051 5.895 2.86 2.637 3.504 1.344 9.724.838 13.803-3.801.034-7.571.037-11.366-.193"/><path fill="#DFB39D" d="M778.879 682.533c-1.136-.039-2.365.233-3.496.378-1.552-1.274-3.545-2.66-4.547-4.426-.739-1.303-.833-2.205-.424-3.617 1.251-1.042 2.404-1.039 3.952-1.181 3.308.123 6.002.602 9.1 1.77l1.844 6.517c-2.134.253-4.287.386-6.429.559"/><path fill="#DFB29A" d="M776.687 685.097c3.144-.168 6.242-.426 9.368-.802 3.638-.776 7.528-.383 11.231-.261l-.08 12.981-8.713-1.065-5.845-.574c-1.561-3.671-3.731-6.991-5.961-10.279"/><path fill="#DFB39D" d="M456.471 692.007c-1.636-.341-3.05-.446-4.193-1.789l.241-.787c3.45-1.023 13.406-1.302 16.746.106-.053 1.243-.432 1.892-1.004 2.962-3.778-.858-7.924.201-11.79-.492"/><path fill="#E4DDD2" d="M456.471 692.007c3.866.693 8.012-.366 11.79.492 2.723 3.192 9.237 1.037 12.95 3.695.064.291.246.581.193.875-.064.357-8.392 13.045-9.524 15.356-2.438 4.976-3.702 12.093-4.634 17.514-5.547 32.269 1.218 65.373 12.168 95.715-12.041-3.498-48.704-11.663-56.551-18.251-10.994-9.232-17.02-38.835-18.336-52.588-2.076-21.69.971-45.299 15.238-62.674 6.942.966 13.949.553 20.936.645 2.797.036 5.554.43 8.344.533.082-1.528-1.43-2.565-1.783-4.166 3.237-.094 2.698 7.506 8.586 10.857 3.542 2.015 14.207 3.27 18.05 1.921.913-.32.565-.117 1.044-1.156-2.12-1.807-14.656-.667-19.921-4.392-1.088-.77-1.475-1.275-1.733-2.561.971-1.345 1.634-1.318 3.183-1.815m-41.666 13.4c-1.63 1.701-2.832 3.404-2.846 5.856-.007 1.121.347 2.126 1.147 2.929 1.261 1.268 2.758 1.292 4.408 1.285 1.713-1.75 3.236-3.992 3-6.579-.108-1.184-.761-2.211-1.736-2.877-1.125-.768-2.673-.63-3.973-.614"/><path fill="#E4DDD2" d="m473.028 691.995-1.205-.328-.254-1.258.526-.736c2.771-.795 6.043-.389 8.913-.335.524.728.705 1.189.861 2.072-.556.65-.21.298-1.092.999-2.631.325-5.14-.084-7.749-.414"/><path fill="#DFB29A" d="M549.366 691.131c26.298-1.514 52.83-1.162 79.166-1.387 47.535-.145 95.081-.618 142.207 6.554 2.974 2.867 5.685 5.964 8.78 8.72 13.739 12.236 28.731 18.733 46.429 23.119 6.443 1.597 14.425 2.662 20.114 6.241 9.323 5.864 18.635 18.076 25.712 26.589-26.367-.069-52.822-1.148-79.188-1.783-20.395-.4-40.719-1.31-61.127-1.193-22.96.131-45.891 1.358-68.842 1.984a355 355 0 0 0-4.48-9.145c-5.084-9.864-11.207-19.576-20.019-26.55-14.335-11.344-68.862-26.817-88.752-33.149"/><path fill="#E4DDD2" d="M535.194 802.059c-3.405-18.186-9.488-38.609-21.388-53.233-2.702-3.321-6.167-7.048-10.725-7.335-2.728-.172-5.139.961-7.143 2.756-13.079 11.712-11.81 55.337-11.762 72.343.011 3.993.566 8.082.297 12.055l-.659-.083a15.3 15.3 0 0 1-1.711-2.874c-1.795-3.939-3.009-8.278-4.35-12.391-9.111-27.951-14.62-69.387-4.295-97.54 3.017-8.226 7.219-15.894 15.476-19.684 13.912-.751 30.312 4.401 43.371 9.199 22.136 8.133 39.317 14.007 47.587 38.094 2.786 8.116 4.695 16.508 8.037 24.438 2.302 5.463 5.319 10.981 9.991 14.777 2.685 2.181 5.652 3.503 9.008 4.274 14.848 3.411 52.093 1.229 67.961-.422-3.075-8.164-7.72-16.065-11.392-24.031 25.533-.976 51.023-2.238 76.583-2.152 15.275.052 30.52.92 45.789 1.237l55.3 1.154c9.396.238 30.023-.605 38.224 2.547 4.509 1.733 7.279 8.021 10.686 11.388 6.644 6.566 15.073 12.805 24.79 12.646 2.948-.048 27.323-1.472 28.907-2.497.329-.212.544-.563.816-.845 1.137-5.868-8.435-11.448-10.261-16.734-1.558-4.51-.175-21.293-.347-27.506a500 500 0 0 1 20.931 36.863c3.405 6.49 7.058 12.955 9.809 19.757a906 906 0 0 1-18.607 1.675c-16.721 1.412-33.558 1.95-50.322 2.611a6906 6906 0 0 1-103.973 2.913c-45.951 1.213-91.728 1.334-137.691 1.14-28.044-.118-56.201.385-84.208-1.223-11.64-.668-23.155-1.996-34.729-3.317m2.379-13.463c-.151 3.784-.788 8.087 1.907 11.17 1.835 2.099 4.91 2.745 7.575 2.775 3.013.034 6.524.269 9.41-.6 1.019-2.444 1.968-6.071 1.027-8.655-.564-1.548-1.91-2.579-3.403-3.147-4.68-1.78-11.482-1.147-16.516-1.543"/><path fill="#DFB29A" d="M844.731 730.646c-27.545-8.184-49.446-10.769-69.909-33.723 9.741.332 19.905 2.262 29.597 3.484 30.685 3.87 55.191 7.384 84.827 16.886 10.291 3.299 20.374 6.746 29.894 11.945-.838.643-1.971.379-3.015.374-14.154-.157-28.588-1.522-42.726-2.409-6.835-.429-14.909-1.769-21.632-.505-2.786.523-4.888 2.229-7.036 3.948"/><path d="M417.514 715.477c-1.65.007-3.147-.017-4.408-1.285-.8-.803-1.154-1.808-1.147-2.929.014-2.452 1.216-4.155 2.846-5.856 1.3-.016 2.848-.154 3.973.614.975.666 1.628 1.693 1.736 2.877.236 2.587-1.287 4.829-3 6.579m-1.601-7.734c-.859 1.199-1.489 1.993-1.605 3.525.79 1.291.955 1.234 2.401 1.756.706-1.385 1.242-2.299 1.083-3.914-.714-.82-.864-1.014-1.879-1.367"/><path fill="#E4DDD2" d="M416.709 713.024c-1.446-.522-1.611-.465-2.401-1.756.116-1.532.746-2.326 1.605-3.525 1.015.353 1.165.547 1.879 1.367.159 1.615-.377 2.529-1.083 3.914"/><path fill="#DFB39D" d="M360.486 746.509c-6.521.246-13.113 1.326-19.596 2.081a1532 1532 0 0 1-29.463 3.11c-4.833.458-10.792 1.567-15.591 1.029 10.851-7.114 22.09-13.514 33.343-19.965 9.699-5.56 19.36-11.209 29.366-16.206-1.022 9.929.667 20.108 1.941 29.951"/><path fill="#E4DDD2" d="m366.113 755.393-.418 1.248-.359-.708c.149-11.18 1.256-25.343 9.671-33.697.544.222 1.06.578 1.424 1.051 2.093 2.715-2.842 5.027-4.589 8.878-3.385 7.46-4.615 15.191-5.729 23.228"/><path fill="#E4DDD2" d="M643.875 785.641c-10.819.414-33.825 2.631-42.731-3.669-9.922-7.018-15.361-24.426-17.404-35.699-.766-4.226-1.019-9.582 1.678-13.213 4.173-5.618 11.393-6.566 17.83-7.38 7.634-1.209 18.04-.562 25.197 2.415 19.67 8.183 28.846 38.529 36.362 56.614-6.947.682-13.958.799-20.932.932m-26.452-52.931c-13.378.344-23.937 11.478-23.573 24.855s11.516 23.92 24.892 23.535c13.347-.385 23.862-11.506 23.498-24.854s-11.469-23.879-24.817-23.536"/><path fill="#E4DDD2" d="M411.42 839.948c-8.047-.361-27.977 1.843-33.794-2.654-7.735-5.98-10.035-18.202-10.994-27.314-2.227-21.158-2.239-66.195 11.137-82.604 1.738 2.418 2.664 6.3 3.593 9.166 7.407 22.857 10.995 46.786 14.537 70.474 7.686 6.078 18.446 9.71 27.43 13.626-.94 5.463-2.191 13.572-6.255 17.615-1.744 1.735-3.342 1.684-5.654 1.691m-35.683-93.666c-9.54 11.59-6.752 44.516-5.331 59.243.537 5.564 1.699 15.776 6.195 19.634.728.624 1.465.912 2.382 1.178.718-.175 1.348-.317 2.021-.629 9.1-12.062 8.442-33.243 6.492-47.396-1.019-7.397-4.535-26.875-10.921-31.457-.275-.197-.559-.382-.838-.573"/><path fill="#DFB39D" d="M877.017 762.227c-4.749-2.759-13.55-14.509-17.831-19.133-3.029-3.271-6.128-6.051-9.539-8.904-.939-.786-1.5-1.134-1.968-2.34.93-1.36 2.4-1.97 3.809-2.739 2.119-.161 4.263-.187 6.388-.271 6.952 6.775 12.694 14.953 17.381 23.43 1.055 1.908 5.049 8.667 4.485 10.638z"/><path fill="#DFB39D" d="M941.357 784.921c-9.166.293-18.659 2.264-27.774 1.9-5.494-.22-9.627-2.46-14.031-5.502-15.32-10.584-15.464-18.334-24.196-33.482-3.96-6.868-8.435-13.023-13.86-18.799 14.529 1.905 32.1 1.997 47.01 2.65 5.292.232 11.202-.139 16.377.878 1.694.333 2.993 1.136 4.204 2.358 4.522 4.562 2.184 27.292 1.985 34.155 2.614 4.767 7.013 8.395 9.676 13.135.642 1.142.999 1.44.609 2.707m-39.62-51.225c-5.511.834-9.865 3.481-13.249 7.955-3.761 4.972-5.682 11.655-4.658 17.852 1.033 6.241 5.058 12.034 10.206 15.619 3.793 2.641 7.981 3.935 12.588 3.89 5.905-1.169 10.477-3.822 13.806-8.996a25.45 25.45 0 0 0 3.295-19.34c-1.324-5.612-4.623-10.945-9.581-14.027-3.92-2.437-7.91-2.919-12.407-2.953"/><path d="M618.742 781.1c-13.376.385-24.527-10.158-24.892-23.535s10.195-24.511 23.573-24.855c13.348-.343 24.453 10.188 24.817 23.536s-10.151 24.469-23.498 24.854m-4.001-46.517c-6.676 2.22-11.984 6.079-15.126 12.553-2.789 5.746-3.168 12.942-1.06 18.969 1.645 4.702 4.985 8.581 9.486 10.746 4.534 2.18 9.527 2.385 14.415 1.549 6.052-1.794 10.947-4.988 13.965-10.7 2.922-5.53 3.309-12.703 1.33-18.603a21.76 21.76 0 0 0-11.184-12.718c-4.074-1.945-7.455-2.169-11.826-1.796"/><path d="M906.624 779.012c-4.607.045-8.795-1.249-12.588-3.89-5.148-3.585-9.173-9.378-10.206-15.619-1.024-6.197.897-12.88 4.658-17.852 3.384-4.474 7.738-7.121 13.249-7.955 4.497.034 8.487.516 12.407 2.953 4.958 3.082 8.257 8.415 9.581 14.027a25.45 25.45 0 0 1-3.295 19.34c-3.329 5.174-7.901 7.827-13.806 8.996m-3.63-42.866c-5.409.828-9.785 3.323-13.066 7.789-3.224 4.389-4.763 10.195-3.932 15.595.836 5.428 4.344 10.001 8.709 13.169 3.308 2.401 6.887 3.764 10.907 4.37 5.46-1.034 9.549-3.031 12.741-7.829 3.45-5.186 4.548-11.964 3.093-18.003-1.226-5.087-4.236-9.885-8.757-12.642-3.089-1.884-6.139-2.341-9.695-2.449"/><path fill="#E4DDD2" d="M622.456 778.4c-4.888.836-9.881.631-14.415-1.549-4.501-2.165-7.841-6.044-9.486-10.746-2.108-6.027-1.729-13.223 1.06-18.969 3.142-6.474 8.45-10.333 15.126-12.553 4.371-.373 7.752-.149 11.826 1.796a21.76 21.76 0 0 1 11.184 12.718c1.979 5.9 1.592 13.073-1.33 18.603-3.018 5.712-7.913 8.906-13.965 10.7"/><path fill="#DFB39D" d="M905.612 777.069c-4.02-.606-7.599-1.969-10.907-4.37-4.365-3.168-7.873-7.741-8.709-13.169-.831-5.4.708-11.206 3.932-15.595 3.281-4.466 7.657-6.961 13.066-7.789 3.556.108 6.606.565 9.695 2.449 4.521 2.757 7.531 7.555 8.757 12.642 1.455 6.039.357 12.817-3.093 18.003-3.192 4.798-7.281 6.795-12.741 7.829"/><path fill="#E4DDD2" d="M487.582 790.238c-.332-8.945.326-18.706 2.255-27.452 1.612-7.306 4.213-14.576 10.785-18.779 1.13.016 2.294.033 3.392.338 6.398 1.776 11.297 10.856 14.489 16.123-.988-.54-1.982-1.083-3.007-1.552-3.394-1.551-7.187-1.955-10.692-.486-6.548 2.744-10.354 10.25-12.976 16.446-1.873 4.981-3.028 10.193-4.246 15.362"/><path d="M381.004 825.708c-.673.312-1.303.454-2.021.629-.917-.266-1.654-.554-2.382-1.178-4.496-3.858-5.658-14.07-6.195-19.634-1.421-14.727-4.209-47.653 5.331-59.243.279.191.563.376.838.573 6.386 4.582 9.902 24.06 10.921 31.457 1.95 14.153 2.608 35.334-6.492 47.396m-4.989-75.894c-7.016 10.797-4.8 51.019-1.985 63.915.711 3.258 1.638 6.595 3.712 9.262.766.344.982.693 1.802.37.7-.277.449-.117.928-.573 8.68-17.175 6.458-45.443.558-63.163-1.146-3.441-2.527-7.123-5.015-9.811"/><path fill="#E4DDD2" d="M380.472 822.788c-.479.456-.228.296-.928.573-.82.323-1.036-.026-1.802-.37-2.074-2.667-3.001-6.004-3.712-9.262-2.815-12.896-5.031-53.118 1.985-63.915 2.488 2.688 3.869 6.37 5.015 9.811 5.9 17.72 8.122 45.988-.558 63.163"/><path fill="#E4DDD2" d="M516.892 887.266c-1.53-.391-3.029-.825-4.484-1.446-7.51-3.206-12.815-9.596-15.877-17.023-2.739-6.642-4.319-13.932-5.761-20.964-4.96-24.194-6.065-49.749 3.835-72.974 2.759-6.474 6.194-12.046 12.987-14.796 3.977-.086 7.728.875 10.753 3.574 12.743 11.372 18.13 59.806 18.716 77.896.423 13.075 1.562 30.778-8.325 40.879-3.475 3.55-6.979 4.715-11.844 4.854m-3.295-100.23c-7.231 4.303-9.831 12.264-11.777 20.029-4.318 17.234-3.762 40.049 5.878 55.579 1.751 2.822 4.527 6.298 7.961 7.035.285.062.573.109.86.163 5.32-2.226 8.266-6.045 10.386-11.333 7.009-17.48 4.751-45.943-2.655-62.998-1.299-2.992-3.553-6.827-6.757-8.088-1.242-.489-2.589-.441-3.896-.387"/><path d="M516.519 869.842c-.287-.054-.575-.101-.86-.163-3.434-.737-6.21-4.213-7.961-7.035-9.64-15.53-10.196-38.345-5.878-55.579 1.946-7.765 4.546-15.726 11.777-20.029 1.307-.054 2.654-.102 3.896.387 3.204 1.261 5.458 5.096 6.757 8.088 7.406 17.055 9.664 45.518 2.655 62.998-2.12 5.288-5.066 9.107-10.386 11.333m-2.472-79.932c-6.632 4.401-9.238 14.686-10.73 22.096-3.068 15.232-1.787 37.152 7.373 50.328 1.479 2.128 2.977 4.126 5.538 4.904 5.109-2.57 7.345-6.941 9.064-12.187 5.469-16.691 3.94-43.759-3.824-59.479-.853-1.728-2.375-4.534-4.221-5.415-.896-.427-2.228-.281-3.2-.247"/><path d="M556.465 801.941c-2.886.869-6.397.634-9.41.6-2.665-.03-5.74-.676-7.575-2.775-2.695-3.083-2.058-7.386-1.907-11.17 5.034.396 11.836-.237 16.516 1.543 1.493.568 2.839 1.599 3.403 3.147.941 2.584-.008 6.211-1.027 8.655m-16.972-11.371c.061 2.684-.274 6.11 1.889 8.091 2.867 2.626 9.945 1.868 13.701 1.696.287-2.728.247-5.23.065-7.955-5.195-1.016-10.452-.99-15.655-1.832"/><path fill="#E4DDD2" d="M516.228 867.238c-2.561-.778-4.059-2.776-5.538-4.904-9.16-13.176-10.441-35.096-7.373-50.328 1.492-7.41 4.098-17.695 10.73-22.096.972-.034 2.304-.18 3.2.247 1.846.881 3.368 3.687 4.221 5.415 7.764 15.72 9.293 42.788 3.824 59.479-1.719 5.246-3.955 9.617-9.064 12.187"/><path fill="#E2B36F" d="M555.083 800.357c-3.756.172-10.834.93-13.701-1.696-2.163-1.981-1.828-5.407-1.889-8.091 5.203.842 10.46.816 15.655 1.832.182 2.725.222 5.227-.065 7.955m-7.844-5.604a1.745 1.745 0 0 0 .8 2.942 1.745 1.745 0 0 0 1.634-2.941 1.744 1.744 0 0 0-2.434-.001"/><path d="M549.734 797.187a1.746 1.746 0 0 1-2.961-.728 1.745 1.745 0 0 1 2.9-1.705c.676.66.703 1.739.061 2.433"/><path fill="#E4DDD2" d="M535.368 804.453c6.906.247 13.922 1.383 20.809 2.074a432 432 0 0 0 30.561 1.979c20.22.65 40.467.422 60.695.534q39.448.444 78.897.315 36.524-.59 73.035-1.705c52.627-1.227 105.646-1.688 158.093-6.354 2.411-.261 4.864-.352 7.284-.521-2.828 13.206-13.826 32.026-14.676 43.38-.387 5.177 2.207 9.835 2.076 14.852-.037 1.411-.448 3.037-1.677 3.885-2.392 1.65-6.698 1.983-9.565 2.239-7.202.643-14.574.353-21.808.434-13.732.153-27.555.309-41.266 1.089-18.794 1.069-37.386 3.894-56.059 6.134a880 880 0 0 1-54.903 4.69c-17.043.802-34.116.79-51.158-.036-16.735-.667-33.506-1.811-50.261-1.564-15.61.231-31.075 2.109-46.646 2.599-22.185.699-48.759-2.433-70.413-7.239-3.391-.971-6.697-2.119-10.018-3.304 3.488-20.529.409-43.106-3-63.481m400.45 23.767c-8.064.525-24.508-2.072-29.928 3.894-2.497 2.749-5.079 8.439-4.811 12.217.161 2.267 1.363 3.787 3.095 5.138.402.313.821.604 1.236.899 2.035.152 4.094.384 6.131.45 8.681-.095 22.317 1.107 30.162-2.114 3.196-3.407 4.51-8.508 4.457-13.113-.026-2.234-.613-4.765-2.422-6.26-2.272-1.878-5.197-1.281-7.92-1.111m-298.238 6.028c-5.781.1-26.203-1.039-29.802 2.767-2.393 2.53-2.918 7.566-2.535 10.845.319 2.737 1.446 5.284 3.678 6.985 5.757 4.384 18.584 2.811 25.636 2.755 8.262-.125 16.746-.04 24.934-1.285 3.764-2.611 5.996-5.764 6.893-10.303.546-2.759.811-5.845-.776-8.328-1.272-1.99-3.459-2.99-5.707-3.423-6.735-1.299-15.386-.178-22.321-.013m200.151 1.502c-28.384 1.305-56.996.89-85.422 1.597-10.358.258-25.543-.218-35.167 1.855-1.486.32-2.601.915-3.63 2.04-2.505 2.736-4.997 8.089-4.487 11.884.178 1.328.688 2.149 1.717 3.002 3.172 2.632 11.84 1.691 15.849 1.739 27.478.252 54.957-.204 82.411-1.368 14.104-.493 29.059-.361 43.013-2.45 1.783-4.041 4.763-10.411 2.995-14.807-.635-1.578-1.902-2.634-3.477-3.214-4.031-1.482-9.566-.532-13.802-.278"/><path d="M905.41 850.368c-.415-.295-.834-.586-1.236-.899-1.732-1.351-2.934-2.871-3.095-5.138-.268-3.778 2.314-9.468 4.811-12.217 5.42-5.966 21.864-3.369 29.928-3.894 2.723-.17 5.648-.767 7.92 1.111 1.809 1.495 2.396 4.026 2.422 6.26.053 4.605-1.261 9.706-4.457 13.113-7.845 3.221-21.481 2.019-30.162 2.114-2.037-.066-4.096-.298-6.131-.45m22.33-19.585-17.45.116c-3.111 2.923-6.494 8.327-6.726 12.723-.06 1.141.103 2.275.856 3.189 2.06 2.501 8.727 1.716 11.692 1.676l3.079-.049c4.042-.115 18.727.338 21.454-2.25 2.373-2.252 2.993-7.648 2.951-10.725-.022-1.582-.231-2.825-1.052-4.202-2.82-2.022-11.304-.655-14.804-.478"/><path fill="#E4DDD2" d="m910.29 830.899 17.45-.116c3.5-.177 11.984-1.544 14.804.478.821 1.377 1.03 2.62 1.052 4.202.042 3.077-.578 8.473-2.951 10.725-2.727 2.588-17.412 2.135-21.454 2.25l-3.079.049c-2.965.04-9.632.825-11.692-1.676-.753-.914-.916-2.048-.856-3.189.232-4.396 3.615-9.8 6.726-12.723"/><path d="M634.557 857.6c-7.052.056-19.879 1.629-25.636-2.755-2.232-1.701-3.359-4.248-3.678-6.985-.383-3.279.142-8.315 2.535-10.845 3.599-3.806 24.021-2.667 29.802-2.767 6.935-.165 15.586-1.286 22.321.013 2.248.433 4.435 1.433 5.707 3.423 1.587 2.483 1.322 5.569.776 8.328-.897 4.539-3.129 7.692-6.893 10.303-8.188 1.245-16.672 1.16-24.934 1.285m-5.221-20.867c-5.232.121-16.383-1.302-20.093 2.513-1.691 1.739-1.983 4.264-1.859 6.578.141 2.651.976 5.186 3.09 6.909 5.406 4.408 26.322 2.459 33.651 2.247 4.802-.153 13.889.615 17.321-3.219 2.149-2.401 3.143-6.557 2.814-9.706-.187-1.792-.837-3.681-2.414-4.717-3.253-2.138-26.955-.708-32.51-.605"/><path d="M726.591 857.867c-4.009-.048-12.677.893-15.849-1.739-1.029-.853-1.539-1.674-1.717-3.002-.51-3.795 1.982-9.148 4.487-11.884 1.029-1.125 2.144-1.72 3.63-2.04 9.624-2.073 24.809-1.597 35.167-1.855 28.426-.707 57.038-.292 85.422-1.597 4.236-.254 9.771-1.204 13.802.278 1.575.58 2.842 1.636 3.477 3.214 1.768 4.396-1.212 10.766-2.995 14.807-13.954 2.089-28.909 1.957-43.013 2.45a1599 1599 0 0 1-82.411 1.368m118.429-20.149c-29.265 1.702-58.815 1.161-88.13 1.783-11.188.238-27.209-.07-37.961 1.695-1.502.246-2.69.454-3.784 1.601-1.595 1.67-3.756 7.289-3.65 9.597.05 1.072.515 1.878 1.499 2.343 1.765.833 4.939.599 6.895.663 14.126.076 126.247-.228 130.426-4.559 1.892-1.96 2.98-5.443 2.894-8.131-.046-1.435-.455-3.018-1.493-4.069-1.564-1.584-4.632-1.127-6.696-.923"/><path fill="#E4DDD2" d="M644.125 854.98c-7.329.212-28.245 2.161-33.651-2.247-2.114-1.723-2.949-4.258-3.09-6.909-.124-2.314.168-4.839 1.859-6.578 3.71-3.815 14.861-2.392 20.093-2.513 5.555-.103 29.257-1.533 32.51.605 1.577 1.036 2.227 2.925 2.414 4.717.329 3.149-.665 7.305-2.814 9.706-3.432 3.834-12.519 3.066-17.321 3.219"/><path fill="#E4DDD2" d="M719.889 855.4c-1.956-.064-5.13.17-6.895-.663-.984-.465-1.449-1.271-1.499-2.343-.106-2.308 2.055-7.927 3.65-9.597 1.094-1.147 2.282-1.355 3.784-1.601 10.752-1.765 26.773-1.457 37.961-1.695 29.315-.622 58.865-.081 88.13-1.783 2.064-.204 5.132-.661 6.696.923 1.038 1.051 1.447 2.634 1.493 4.069.086 2.688-1.002 6.171-2.894 8.131-4.179 4.331-116.3 4.635-130.426 4.559"/><path fill="#E4DDD2" d="M821.161 875.433c24.616-4.69 51.505-6.527 76.502-7.196.536-.043 1.21.037 1.752.062l.18.654c-4.641 8.026-9.135 16.89-18.453 20.194-9.885 3.505-31.839 3.299-42.059 1.216-3.456-.704-6.395-1.848-9.567-3.377-4.763-3.352-6.728-6.044-8.355-11.553"/><path fill="#E4DDD2" d="M497.304 875.756c4.334 5.265 8.781 10.429 15.425 12.784 4.448 1.577 9.128 1.388 13.319-.847 6.494-3.462 10.028-10.308 11.952-17.102 12.047 3.909 24.301 5.718 36.793 7.55-.484 2.275-.961 4.562-1.55 6.812-2.088 7.979-6.741 15.454-14.04 19.603-10.143 5.767-24.973 6.543-36.068 3.645-1.613-.551-3.132-1.272-4.632-2.076-11.819-6.337-17.515-18.054-21.199-30.369"/></svg>