<?xml version="1.0" encoding="utf-8" ?><svg xmlns="http://www.w3.org/2000/svg" xmlns:xlink="http://www.w3.org/1999/xlink" width="1024" height="1024" viewBox="0 0 1024 1024"><path fill="#EDF6F9" d="M0 0L1024 0L1024 1024L0 1024L0 0ZM117.041 172.317C20.31 190.48 2.41671 266.998 19.3004 352.887C28.5572 399.976 49.513 445.532 84.4044 479.133C94.6503 489 107.892 496.91 117.451 506.324L117.483 705.193C95.5961 713.796 74.4121 721.693 51.7 727.798C49.8757 728.289 46.8506 729.885 45.6344 731.38L45.8249 732.233C48.1744 733.361 50.9476 732.727 53.3877 731.915C60.5305 729.536 67.6531 726.884 75.0249 725.054C89.8603 721.371 105.869 712.562 120.409 709.029C129.737 706.763 145.483 709.581 155.276 708.308C163.17 708.323 178.545 707.455 185.334 707.923C188.633 708.341 195.075 708.166 198.619 708.171C192.343 712.512 181.941 718.328 175.024 722.65C157.29 733.91 139.636 745.295 122.064 756.805C87.6291 779.002 45.0926 803.402 22.9092 839.108C17.1968 848.302 12.3021 861.421 15.5628 872.224C21.3393 891.364 41.5216 905.594 57.9772 915.013C102.799 940.666 155.882 945.142 206.489 944.315C234.912 943.85 261.645 941.764 289.197 933.894C329.004 922.524 367.978 895.937 401.543 872.003C415.399 862.172 429.176 851.685 440.961 839.37C464.351 814.928 479.191 772.369 461.532 740.857C445.869 712.906 411.864 700.201 381.674 696.054C374.399 695.055 366.677 695.133 359.655 693.275C359.441 693.131 359.227 692.988 359.013 692.844C369.205 685.387 381.169 677.816 391.795 670.841L462.224 625.481C473.752 618.032 487.353 607.379 499.177 601.211C501.769 599.859 522.877 600.432 527.438 600.418C536.146 607.411 548.808 615.699 558.251 622.675C529.845 677.685 537.616 684.065 583.652 718.608C595.241 727.295 606.659 736.207 617.899 745.341C621.842 748.534 632.479 755.386 633.378 760.161C624.21 762.525 617.07 764.596 608.656 769.059C608.452 773.338 608.41 777.876 608.372 782.179C608.045 818.828 606.132 856.05 606.584 892.648C613.243 894.17 626.164 895.656 633.089 896.54L677.498 902.213L797.619 917.116C822.195 919.821 846.749 922.717 871.28 925.805C876.793 922.989 896.049 907.13 899.647 902.315L900.047 786.025C903.467 790.934 915.13 802.094 921.249 800.487L921.678 799.738C919.451 794.042 900.257 788.864 900.652 775.41C887.979 772.384 876.517 772.869 865.268 770.299C865.194 767.727 865.387 760.817 862.252 760.442C827.258 756.256 792.157 751.842 757.01 748.662C755.604 748.535 754.919 748.172 753.897 747.378C756.917 742.871 768.981 737.754 774.073 735.43C791.508 727.47 805.676 715.91 821.571 705.503C848.845 705.066 876.797 705.676 904.19 705.502C918.87 715.836 937.233 723.504 954.304 728.893C958.799 730.312 973.318 733.517 977.566 731.213L977.762 730.382C977.438 729.976 977.113 729.57 976.789 729.164C969.76 727.375 960.314 726.566 953.399 724.373C937.36 719.289 921.407 711.908 907.475 702.699C907.313 676.705 907.294 650.71 907.419 624.715C924.833 608.881 941.924 586.65 953.813 566.44C973.603 532.547 983.397 490.949 973.356 452.367C965.148 420.827 941.944 396.163 916.784 376.732C913.948 374.541 910.51 371.763 907.474 370.01L907.385 137.822C893.276 137.047 874.36 137.55 859.954 137.526L778.014 137.423C767.011 151.689 754.656 170.758 744.663 185.984C736.294 170.816 722.187 159.644 705.506 154.973C695.403 152.19 683.896 151.998 673.472 152.612C622.129 155.634 574.041 183.526 529.785 207.544L494.548 226.459C452.087 249.356 408.526 270.808 362.039 283.934C356.483 285.502 350.631 286.677 345.175 288.283C318.31 245.307 289.608 203.133 261.548 160.913C256.434 153.219 251.236 145.451 245.921 137.904C232.558 137.074 214.765 137.606 200.894 137.594L117.41 137.561C116.884 148.842 117.063 160.968 117.041 172.317Z"/><path fill="#088F80" d="M117.041 172.317C117.063 160.968 116.884 148.842 117.41 137.561L200.894 137.594C214.765 137.606 232.558 137.074 245.921 137.904C251.236 145.451 256.434 153.219 261.548 160.913C289.608 203.133 318.31 245.307 345.175 288.283C355.452 306.262 370.033 325.544 380.623 343.29C398.419 335.103 422.282 332.023 441.613 332.559C458.697 333.032 464.631 342.319 445.361 347.317C439.013 348.972 406.056 351.78 410.758 338.908C406.349 338.687 387.81 344.396 383.602 346.482C391.662 358.557 400.71 371.079 409.195 382.916C408.646 402.625 408.738 425.745 409.222 445.631C414.361 445.755 425.062 445.745 429.71 446.407C432.938 450.145 436.496 455.435 439.507 459.508C443.19 464.489 448.509 470.865 451.469 476.156C451.468 481.963 451.091 510.02 452.015 514.087C456.501 518.101 470.176 508.011 474.621 507.34C479.077 506.667 495.519 505.943 499.001 507.444L499.799 508.821C498.394 512.327 483.374 509.861 478.966 510.919C471.444 512.725 465.495 516.043 458.227 518.549C461.837 521.341 465.797 524.546 469.494 527.151C469.466 530.183 468.947 540.637 470.335 542.738C471.463 541.632 471.487 541.494 472.32 540.121C474.306 539.785 474.201 539.788 476.162 540.272L476.442 540.845C475.365 541.67 474.457 542.349 473.453 543.277C473.473 544.264 473.477 545.19 473.265 546.157C471.87 546.248 471.644 545.726 470.168 544.805C469.476 546.414 469.85 553.838 469.88 556.015L554.433 555.947C554.405 550.74 553.128 528.47 555.923 525.592C558.502 522.937 562.855 520.982 566.055 519.107C549.997 511.569 547.816 510.736 529.32 510.738C526.186 510.738 523.919 511.476 522.657 509.016L522.933 507.725C525.665 506.159 547.507 507.394 551.606 507.994C550.145 507.78 573.264 517.665 571.953 516.67C572.926 518.954 572.272 519.244 570.896 521.267C570.681 533.546 570.549 545.826 570.501 558.107L570.432 600.014C572.276 600.026 574.304 600.233 575.923 599.489C576.685 597.532 575.77 563.351 575.609 558.018L574.438 476.061C580.421 467.396 585.43 455.798 591.932 447.84C594.996 444.089 611.998 445.513 617.458 445.608C617.725 424.153 618.151 402.701 618.734 381.253C621.386 376.989 624.64 372.903 627.344 368.711C632.095 361.347 636.723 353.808 641.341 346.355C636.396 344.222 620.016 338.893 614.885 339.428C616.025 340.742 616.099 340.634 616.398 342.31C613.918 350.46 594.785 348.769 588.463 348.311C583.972 347.985 566.129 345.426 568.353 338.426C571.1 332.862 586.268 332.8 590.891 332.809C609.482 332.847 625.94 336.943 643.262 343.161C662.187 314.463 680.172 284.577 698.906 255.758C714.092 232.396 729.652 209.543 744.663 185.984C754.656 170.758 767.011 151.689 778.014 137.423L859.954 137.526C874.36 137.55 893.276 137.047 907.385 137.822L907.474 370.01L907.301 553.969C907.34 577.284 907.041 601.463 907.419 624.715C907.294 650.71 907.313 676.705 907.475 702.699C921.407 711.908 937.36 719.289 953.399 724.373C960.314 726.566 969.76 727.375 976.789 729.164C977.113 729.57 977.438 729.976 977.762 730.382L977.566 731.213C973.318 733.517 958.799 730.312 954.304 728.893C937.233 723.504 918.87 715.836 904.19 705.502C876.797 705.676 848.845 705.066 821.571 705.503L796.282 705.552C793.183 705.555 782.858 705.718 780.228 705.088C770.932 702.859 759.04 697.199 750.225 693.324L696.56 669.161C687.929 665.258 677.905 660.386 669.177 656.998C668.741 661.476 669.695 672.368 663.061 671.24C659.575 670.647 655.297 669.032 652.146 667.374C654.818 659.875 654.408 657.416 654.712 649.569C650.026 647.101 616.147 630.25 614.865 628.527C614.509 626.481 614.859 626.277 613.642 625.22C603.319 623.501 590.532 625.887 579.719 624.429L576.473 621.129C571.164 615.623 553.439 605.963 545.904 600.209C542.004 600.325 538.103 600.39 534.202 600.404C537.846 604.072 543.597 607.245 547.749 610.52C561.816 621.615 577.258 630.084 592.17 639.892L721.807 725.19C726.011 727.951 752.142 744.656 753.897 747.378C754.919 748.172 755.604 748.535 757.01 748.662C792.157 751.842 827.258 756.256 862.252 760.442C865.387 760.817 865.194 767.727 865.268 770.299C876.517 772.869 887.979 772.384 900.652 775.41C900.257 788.864 919.451 794.042 921.678 799.738L921.249 800.487C915.13 802.094 903.467 790.934 900.047 786.025L899.647 902.315C896.049 907.13 876.793 922.989 871.28 925.805C846.749 922.717 822.195 919.821 797.619 917.116L677.498 902.213L633.089 896.54C626.164 895.656 613.243 894.17 606.584 892.648C606.132 856.05 608.045 818.828 608.372 782.179C608.41 777.876 608.452 773.338 608.656 769.059C617.07 764.596 624.21 762.525 633.378 760.161C639.543 759.134 648.258 756.101 653.988 753.824C654.698 751.37 655.299 748.748 657.272 746.925C660.508 743.934 665.878 744.5 670.021 744.743C678.362 745.232 686.753 745.8 695.1 746.331L750.907 749.616C745.257 746.472 734.601 738.597 728.777 734.721L680.923 702.895C640.225 675.862 599.334 649.121 558.251 622.675C548.808 615.699 536.146 607.411 527.438 600.418C522.877 600.432 501.769 599.859 499.177 601.211C487.353 607.379 473.752 618.032 462.224 625.481L391.795 670.841C381.169 677.816 369.205 685.387 359.013 692.844C355.533 694.729 348.569 699.563 344.982 701.884L320.369 717.619L247.23 764.667C238.695 770.244 230.116 775.753 221.494 781.194C218.872 782.857 207.294 790.839 205.013 790.014C204.196 788.322 204.359 789.196 204.556 787.288C207.109 784.259 257.22 753.43 264.045 749.119C293.449 730.381 322.725 711.443 351.871 692.307C364.963 684.516 380.547 673.379 393.727 664.83L492.395 600.492C490.097 600.471 481.463 600.276 479.316 601.1C470.594 604.448 460.184 611.573 452.077 616.502C450.491 617.466 450.561 620.155 450.362 622.077C442.987 623.296 434.055 623.858 426.799 621.757C407.498 630.717 386.719 640.258 366.868 647.936C367.237 653.661 368.577 663.652 367.158 668.74C363.08 671.381 353.641 672.018 350.504 667.503C348.975 665.302 349.856 662.553 350.3 660.128C337.423 664.957 325.124 671.016 312.487 676.428C306.282 679.085 300.094 681.864 293.996 684.755L263.508 698.702C247.176 706.166 247.251 707.467 228.996 707.481L200.505 707.522C196.786 707.543 188.784 707.431 185.334 707.923C178.545 707.455 163.17 708.323 155.276 708.308C145.483 709.581 129.737 706.763 120.409 709.029C105.869 712.562 89.8603 721.371 75.0249 725.054C67.6531 726.884 60.5305 729.536 53.3877 731.915C50.9476 732.727 48.1744 733.361 45.8249 732.233L45.6344 731.38C46.8506 729.885 49.8757 728.289 51.7 727.798C74.4121 721.693 95.5961 713.796 117.483 705.193L117.451 506.324L117.236 423.999C117.233 413.947 117.975 392.02 117.074 382.879C109.954 379.218 96.5976 398.459 84.5795 395.521C79.5836 394.3 75.6445 393.923 71.2092 388.078C54.4162 365.951 83.5651 347.228 85.0405 328.951C85.7493 306.099 64.7879 288.271 68.2776 264.353C69.8654 253.471 77.8315 239.777 90.8084 242.827C104.104 245.951 110.635 261.445 117.223 272.033C117.488 261.144 117.114 248.625 117.079 237.594L117.041 172.317ZM121.289 141.993C120.64 150.59 121.012 162.701 121.035 171.544L121.017 248.642C120.997 253.959 119.768 275.496 121.072 279.323C130.625 307.369 151.206 325.718 159.329 283.758C161.989 270.02 158.984 245.331 177.828 242.356C190.808 240.634 197.834 256.848 197.979 267.53C197.785 292.277 183.648 310.456 192.119 335.777C196.448 327.965 200.81 318.011 209.809 314.918C218.636 311.884 227.847 320.496 229.024 328.554C233.633 360.689 190.067 380.41 197.645 413.07C202.485 433.925 217.422 457.2 205.777 478.583C202.245 485.068 191.91 484.34 186.955 480.725C176.768 473.293 172.421 455.403 169.239 443.747C167.117 450.208 163.139 463.199 157.322 465.633C139.759 472.981 137.766 449.548 142.916 438.406C147.333 428.85 151.362 425.327 158.577 417.85C174.969 401.721 170.572 382.796 163.228 363.582C157.308 348.092 136.094 320.954 121.048 344.006C120.632 364.75 121.026 386.705 121.095 407.56C121.206 441.041 120.69 475.443 121.4 508.879L121.32 553.504C135.488 549.469 148.907 541.953 154.312 527.55C155.959 518.061 153.468 498.664 161.162 492.294C166.515 487.862 177.784 491.916 180.598 497.745C186.382 506.797 184.645 516.234 186.982 526.222C188.378 532.744 190.497 539.738 191.749 545.967C193.11 556.491 192.881 568.989 182.091 575.67C173.101 581.235 153.727 575.516 156.444 562.328C156.988 559.69 160.417 558.131 162.877 557.13C169.509 558.674 171.164 560.701 176.396 564.767C194.249 578.642 191.676 551.235 189.407 541.476C185.864 531.245 184.865 519.887 183.518 509.223C182.652 502.363 178.521 494.147 171.315 492.276C165.187 490.686 159.505 492.579 158.03 499.207C155.87 508.396 157.768 517.512 155.594 526.738L155.419 527.468C151.077 541.935 135.249 551.683 121.249 555.038C120.895 571.614 121.106 589.156 121.311 605.774C137.76 603.04 157.562 599.302 172.326 609.458C197.902 627.051 178.546 660.501 200.209 680.391C204.483 684.316 213.515 683.222 216.348 678.005C227.259 659.48 208.36 620.749 244.241 623.314L243.978 562.306L243.513 231.956L243.447 141.849C203.867 141.182 160.955 141.678 121.289 141.993ZM756.421 201.93C755.744 208.573 756.03 216.77 755.947 223.542C755.733 241.098 756.664 258.53 757.556 276.06L762.486 375.891C765.463 448.467 769.062 521.016 773.281 593.53C774.971 619.6 776.216 650.368 779.153 675.903C780.103 668.935 780.082 661.644 780.251 654.598C780.515 642.455 780.668 630.311 780.712 618.166C781.107 583.962 781.323 549.756 781.359 515.55L781.423 354.033C781.471 318.296 781.985 281.652 781.038 246.02C781.64 219.711 780.98 191.151 781.007 164.607C772.682 175.108 765.059 186.345 756.548 197.022C756.436 198.382 756.456 200.502 756.421 201.93ZM247.472 147.14C247.326 176.487 247.338 205.835 247.508 235.181L247.682 444.971L248.067 524.995C248.094 537.156 248.364 550.77 248.042 562.859L248.108 625.206C249.954 626.564 251.337 627.627 253.347 628.765L254.068 563.739L257.637 331.766C257.986 300.429 259.749 267.92 259.399 236.739L259.984 165.64L247.472 147.14ZM263.908 171.602C263.498 185.019 263.604 198.568 263.513 212C263.433 223.839 263.09 235.875 263.268 247.696L259.797 458.33C259.557 484.329 259.145 510.325 258.562 536.318C258.387 543.975 258.906 558.286 258.195 565.165C258.101 573.625 258.161 583.269 257.616 591.679C258.363 590.259 260.186 587.117 260.408 585.714C264.528 587.165 271.226 599.927 273.459 604.199C281.375 619.346 277.506 637.059 256.942 632.863C256.68 649.901 256.965 669.257 256.259 686.036C256.116 689.893 256.085 693.754 256.166 697.613C263.858 694.213 272.486 690.536 279.853 686.611C303.13 676.886 327.036 665.509 350.452 655.603C352.019 648.976 353.404 645.712 356.792 639.888L357.089 578.07C357.639 572.856 357.536 564.679 357.556 559.252L357.643 528.463L358.238 423.462C358.274 410.9 358.254 398.296 358.312 385.734C358.39 368.806 362.751 355.187 376.694 344.808C375.06 341.995 373.101 339.026 371.282 336.302C360.373 319.967 350.297 302.838 339.354 286.552C336.59 281.096 329.173 270.539 325.505 265.039L304.329 232.765L278.614 193.295C274.261 186.646 268.723 177.773 263.908 171.602ZM785.009 141.485L785.156 206.583C785.157 222.475 784.772 240.22 785.336 255.986L785.076 556.298C784.792 599.085 784.301 641.806 782.805 684.566C782.606 690.271 782.402 695.956 782.434 701.666L826.387 701.669L903.496 701.77L903.505 633.638L903.475 366.187C904.074 342.737 903.496 316.689 903.519 293.033L903.529 141.934C891.257 141.229 876.063 141.471 863.549 141.384C837.369 141.168 811.188 141.202 785.009 141.485ZM379.912 461.91C379.19 472.641 379.703 486.169 379.584 497.087C379.323 521.131 380.089 546.16 379.393 570.152C378.976 593.116 378.87 616.085 379.075 639.052C388.374 635.129 397.609 631.055 406.777 626.832L406.483 565.108C406.044 545.562 406.599 524.727 405.661 505.405C405.122 465.255 404.925 425.101 405.069 384.947C397.247 372.051 389.925 363.049 381.51 350.774C381.631 387.322 379.149 425.294 379.912 461.91ZM667.05 418.995C667.514 451.677 665.987 486.885 665.45 519.642L663.859 591.4C663.483 605.255 662.511 622.924 662.649 636.526L666.075 638.711C668.299 643.488 669.336 647.721 669.405 653.055C693.189 662.716 716.177 673.95 739.614 684.291C749.482 688.645 768.469 697.851 778.188 700.952C777.387 692.176 776.702 682.286 775.543 673.63C775.337 663.762 773.459 648.772 772.606 638.576C771.174 619.4 769.88 600.214 768.723 581.019L757.426 348.78L754.621 288.188C753.848 273.43 752.793 258.201 752.425 243.459C752.2 229.955 752.213 216.448 752.463 202.945C749.132 207.416 745.871 211.938 742.681 216.511C742.617 222.394 740.501 233.094 739.593 239.256C736.849 257.834 732.633 276.452 729.976 295.019C723.555 339.899 721.95 385.647 711.371 429.869C709.438 437.948 704.227 461.051 697.21 465.485C695.949 465.67 695.306 465.867 694.208 464.993C686.904 459.179 686.029 402.07 685.225 390.888C683.254 400.463 681.278 410.34 678.245 419.654C677.103 423.163 675.405 428.15 671.006 427.401C668.033 425.219 667.931 422.634 667.05 418.995ZM661.567 522.195C662.392 479.758 663.481 437.307 663.55 394.86C663.575 379.852 664.604 370.06 655.578 357.353C655.253 374.77 654.18 393.028 653.474 410.483C652.375 437.659 650.408 465.339 647.226 492.345C645.754 504.839 643.134 516.961 641.097 529.308C639.745 537.291 634.266 581.561 624.663 581.247C622.03 579.593 620.372 574.892 619.122 572.008C618.716 589.921 617.869 608.626 618.094 626.438C630.544 633.169 643.132 639.642 655.85 645.851C656.464 642.751 658.971 637.142 659.059 635.122C659.563 623.468 659.794 611.743 660.097 600.078C660.736 574.12 661.226 548.159 661.567 522.195ZM636.871 531.015C639.545 516.416 642.548 501.254 644.237 486.55C648.884 446.083 649.653 405.42 651.768 364.801C651.901 362.248 652.974 355.716 651.741 353.866L650.787 353.387C641.37 366.021 631.131 381.434 622.006 394.489L620.374 539.386C619.87 555.615 620.011 562.708 625.715 577.945C632.566 561.851 634.409 548.213 636.871 531.015ZM447.917 538.243C448.234 518.685 448.136 497.418 447.875 477.83C444.024 471.279 435.741 460.904 430.938 454.355C430.733 483.552 430.128 514.137 430.967 543.257L430.886 558.314C430.714 565.552 429.817 614.98 431.286 618.768C434.669 620.103 443.55 619.597 447.41 619.222C447.557 601.534 448.051 581.163 447.572 563.638C448.304 556.642 448.008 545.387 447.917 538.243ZM616.425 543.688C616.966 512.443 617.332 481.196 617.523 449.947C610.229 449.99 602.774 449.949 595.496 450.082C595.665 484.219 595.501 518.356 595.002 552.49C594.942 575.349 595.119 598.209 595.532 621.064C601.631 621.241 608.265 621.131 614.405 621.143C614.406 596.095 615.614 568.787 616.425 543.688ZM453.239 554.03L451.99 554.247C451.225 556.119 451.344 597.134 451.749 600.347L452.386 600.887C454.504 600.525 454.125 600.91 455.473 599.675C456.422 596.755 456.147 559.964 455.973 554.997C456.028 544.904 456.207 534.612 455.932 524.515C455.87 522.231 455.67 520.168 453.777 518.765L453.16 518.868C452.347 519.589 451.673 520.713 451.733 522.161C452.154 532.251 451.338 542.7 452.154 552.717C452.516 553.155 452.877 553.592 453.239 554.03ZM459.47 524.154L459.615 555.957L459.472 600.093L466.214 600.122L466.418 573.656C466.437 568.923 466.62 561.456 466.031 556.892C466.047 547.777 465.988 538.662 465.852 529.547C463.935 527.785 461.503 525.849 459.47 524.154ZM591.478 555.704L591.923 453.844C587.515 461.469 583.068 469.072 578.582 476.651L579.618 562.172C579.701 572.88 579.013 591.797 579.888 601.685C579.815 605.365 579.849 609.654 579.535 613.28C578.751 622.334 584.884 621.244 591.796 621.141C591.98 599.48 591.509 577.44 591.478 555.704ZM566.903 559.03C566.934 546.693 567.032 534.356 567.196 522.02C564.257 524.089 560.432 526.626 557.8 528.929C557.13 545.599 557.247 568.652 557.637 585.285L557.551 595.444C559.68 597.573 563.672 601.61 566.73 599.124C567.211 595.126 567.004 588.6 566.993 584.347L566.903 559.03ZM426.964 560.139L426.654 490.997C426.713 477.698 427.275 463.831 427.137 450.667C421.133 449.828 415.286 449.933 409.229 449.998C409.561 487.812 410.758 526.324 410.268 564.045C409.913 583.368 410.391 605.552 410.709 624.984C416.199 622.588 421.474 620.353 426.787 617.569L426.964 560.139ZM375.597 571.484C376.241 524.516 375.539 476.764 375.914 429.585L376.707 377.7C376.948 368.135 377.596 358.37 377.482 348.812C359.113 363.339 362.271 386.08 362.291 407.168L362.365 459.062L362.498 534.392C362.529 545.516 362.054 562.444 362.78 573.115C363.62 593.321 362.109 614.001 363.092 634.225C363.201 636.471 365.804 639.433 366.357 643.365L366.457 644.12C369.786 642.825 371.871 641.79 375.053 640.146L375.597 571.484ZM567.039 603.48L559.267 603.306C561.484 605.6 564.126 607.204 566.774 609.013C570.287 611.631 573.244 613.797 576.928 616.148C576.74 611.887 576.596 607.625 576.497 603.362C575.419 603.367 573.373 603.358 572.344 603.498C570.741 603.715 569.196 606.137 567.595 606.124L567.039 603.48ZM244.106 688.294L244.101 644.135C244.097 638.798 244.077 633.341 244.333 627.983C244.383 626.928 243.741 625.999 243.072 625.23C236.383 622.081 226.994 627.324 224.346 634.273C220.529 644.291 222.361 653.896 221.596 664.532C219.966 687.196 200.509 691.919 191.438 669.585C182.203 646.849 192.749 618.691 165.35 606.919C153.303 601.4 133.883 606.083 121.459 606.595L121.469 704.552C143.886 704.492 174.861 705.167 196.729 703.635C200.691 704.016 210.71 703.771 215.215 703.703C224.292 703.568 234.975 703.788 243.92 703.085C244.068 698.283 244.047 693.122 244.106 688.294ZM614.128 770.151C612.1 770.793 612.727 770.192 611.728 771.548C610.865 796.2 610.403 820.864 610.343 845.53C610.273 853.789 609.547 868.976 610.069 876.602C609.833 880.615 609.93 885.485 609.906 889.564C619.967 891.907 636.064 893.53 646.652 894.812L708.76 902.328C747.623 907.435 786.538 912.127 825.501 916.404C837.978 917.793 859.115 921.262 870.51 921.652L870.844 861.625C870.668 836.962 870.676 812.297 870.868 787.633C865.683 786.232 858.145 785.816 852.685 785.318C846.555 784.737 840.435 784.068 834.325 783.311C816.453 781.18 800.65 780.12 782.853 778.636C758.878 776.434 734.876 774.534 710.853 772.934C695.548 771.884 678.624 771.305 663.615 769.798L663.49 766.536C663.175 757.437 662.534 751.268 673.462 751.759C680.526 752.076 687.41 752.535 694.471 753.085L728.147 755.766C766.395 758.822 803.722 760.649 841.543 767.821C847.653 768.98 854.08 769.217 860.248 770.144C860.14 772.834 859.392 779.813 860.077 782.102C861.704 778.595 860.976 768.395 860.938 763.862C824.473 761.126 785.87 752.925 749.524 753.317C738.244 753.439 663.451 746.967 660.074 749.488C658.293 753.184 659.09 765.443 659.146 770.395C657.149 770.249 655.28 770.183 653.279 770.121C644.724 768.869 630.028 767.839 621.233 767.355C619.474 768.285 618.305 768.495 617.562 769.95C624.977 770.222 641.976 771.927 648.242 771.539C661.868 773.044 677.101 773.849 690.861 774.888L767.586 780.746C800.542 783.265 833.474 787.122 866.258 789.341L866.314 914.877C865.351 915.813 864.394 916.755 863.444 917.704C851.773 916.882 838.184 914.983 826.442 913.611L741.771 903.13L649.638 892.674C638.23 891.329 626.77 889.99 615.369 888.557C613.598 888.334 612.471 888.008 611.144 886.81C611.907 881.341 611.437 870.417 611.632 864.343C612.296 842.066 612.735 819.783 612.95 797.497C613.044 790.147 612.483 776.599 614.128 770.151ZM780.125 141.834C772.697 150.823 763.427 165.697 756.459 175.714C756.404 178.924 756.026 187.075 756.888 189.743C765.296 180.848 772.401 168.338 780.664 158.988C780.715 155.724 781.147 143.943 780.125 141.834ZM752.259 182.356C743.34 194.659 744.08 193.381 743.791 208.068L744.184 208.568C747.078 204.312 750.013 200.085 752.988 195.885C753.005 193.306 753.495 183.899 752.259 182.356ZM740.118 199.845C731.586 213.429 722.84 226.878 713.883 240.186C708.211 248.673 701.412 258.072 696.691 267.1C695.483 269.408 694.945 275.597 695.431 278.331C704.515 264.795 713.756 251.366 723.152 238.046C728.337 230.666 734.065 223.092 738.574 215.324C739.645 213.478 740.732 201.863 740.118 199.845ZM737.823 222.855C723.888 243.723 708.831 264.041 695.407 285.192C693.324 288.476 692.861 311.717 692.4 316.667C689.721 345.448 687.951 372.891 689.68 401.858C690.79 420.447 691.252 437.883 694.222 456.495C694.684 458.143 694.812 459.543 696.101 460.539C710.466 457.939 724.439 308.24 727.654 286.299C728.755 278.782 738.857 226.833 737.823 222.855ZM176.809 243.593C151.052 251.542 171.416 302.142 144.035 310.205C131.969 307 125.341 293.624 121.009 282.721C120.971 301.716 120.811 322.701 121.208 341.527C131.58 330.342 141.141 332.248 151.525 342.932C163.499 355.254 170.607 375.603 171.054 392.619C171.799 418.513 140.316 426.156 141.553 451.984C141.859 455.47 142.371 460.326 145.265 462.998C150.537 467.866 154.241 466.523 159.182 462.869C163.904 459.376 167.411 442.087 169.133 441.139L169.538 441.157C173.193 452.981 177.027 474.228 188.952 480.425C192.166 482.095 196.721 482.807 200.204 481.647C203.088 480.687 205.015 478.499 206.214 475.761C217.663 449.629 190.965 421.067 196.117 398.844C197.773 391.703 201.08 385.278 204.983 379.119C214.066 364.787 234.6 343.6 226.313 324.907C224.777 321.443 221.862 317.864 218.249 316.442C214.997 315.162 210.73 315.628 207.668 317.209C200.182 321.073 195.995 331.088 192.044 338.147C178.711 306.996 204.336 284.618 193.801 254.74C191.136 247.183 184.885 243.089 176.809 243.593ZM83.4562 244.124C62.3551 253.736 69.156 281.777 77.1837 297.887C78.3334 300.195 79.4252 302.86 80.4692 305.238C83.8856 313.021 87.9895 322.202 86.1625 330.882C82.3187 349.144 59.6215 363.662 69.9436 384.011C73.0276 390.038 78.7421 393.423 85.3529 394.295C99.7056 394.579 103.085 382.238 117.399 380.79L117.304 304.441C117.263 295.658 117.904 283.327 116.576 274.874C115.66 269.039 105.602 255.179 101.34 250.615C96.2708 245.187 90.7718 243.353 83.4562 244.124ZM691.283 274.868L661.288 322.253C658.401 326.79 648.843 341.103 646.942 345.213C647.439 346.439 647.471 346.453 648.263 347.523C649.922 347.01 650.058 346.789 651.059 345.162C662.919 325.892 676.254 307.695 688.699 288.82C690.209 286.529 691.723 277.474 691.283 274.868ZM688.184 295.36C680.966 306.657 673.163 317.947 666.062 329.202C666.82 350.637 666.045 371.928 667.695 393.407C668.356 402.008 668.125 411.569 670.253 419.952C670.852 421.337 671.14 422.602 672.393 423.268C681.819 416.462 687.384 331.136 687.079 316.862C686.996 312.951 688.658 298.592 688.184 295.36ZM661.902 334.936C659.01 339.485 655.995 344.023 653.554 348.823C656.038 351.433 657.651 353.534 659.443 356.708L662.467 362.178C662.479 358.595 662.923 336.618 661.902 334.936ZM424.839 336.683C421.961 337.089 413.44 337.717 413.922 341.863C418.28 345.544 433.227 344.82 438.671 344.38C439.49 344.313 440.308 344.238 441.125 344.153C446.608 343.072 448.189 342.794 452.893 339.678C445.537 335.958 432.763 335.471 424.839 336.683ZM586.655 336.708C582.204 337.068 578.123 337.107 574.032 338.936L573.441 339.838C575.796 344.036 594.843 344.598 599.377 344.579C603.973 344.513 607.361 344.582 611.691 342.811L612.474 341.87C609.646 336.395 592.11 336.385 586.655 336.708ZM644.461 348.457C640.104 355.595 635.647 362.67 631.089 369.681C628.115 374.252 622.152 381.265 622.594 386.569C623.317 386.436 623.063 386.606 623.439 386.216C626.814 381.466 645.877 354.605 646.917 350.844C646.109 349.451 645.774 349.377 644.461 348.457ZM161.03 559.052C149.293 568.266 166.372 579.805 180.526 575.092C183.036 573.365 183.961 572.713 186.213 570.508C171.717 567.207 172.643 558.666 161.03 559.052ZM470.528 559.7C469.471 561.666 469.883 592.104 469.974 596.349C479.612 597.415 499.61 597.061 509.916 596.674C511.013 594.842 510.323 563.874 510.285 559.677C498.384 559.623 482.068 559.116 470.528 559.7ZM519.98 559.754L513.944 559.791C513.993 571.56 513.75 584.898 514.169 596.536C525.152 596.576 537.044 596.745 547.982 596.352C549.921 596.195 551.629 596.276 553.219 595.194C554.654 592.791 553.979 564.471 554.029 559.496L519.98 559.754ZM261.364 591.687C259.397 591.97 258.998 591.695 257.673 592.738C257.378 597.224 256.504 628.215 257.516 630.685C260.589 633.81 266.634 632.385 270.107 630.637C282.109 620.966 273.382 603.555 265.828 593.929C264.317 592.003 263.746 591.778 261.364 591.687ZM456.814 603.589L451.305 604.816L451.414 612.263L457.225 609.157C460.03 607.441 463.568 605.401 466.195 603.543C463.526 603.529 459.35 603.384 456.814 603.589ZM248.168 627.752L248.313 677.342C248.314 681.372 247.86 696.912 248.307 700.146C250.09 700.378 250.154 699.936 252.124 699.008C252.669 696.219 252.628 681.67 252.672 677.874L253.16 631.1C251.831 630.149 249.552 628.404 248.168 627.752ZM360.766 639.872C358.134 644.705 349.912 661.348 354.715 666.116C355.022 666.196 356.104 666.499 356.375 666.52L364.015 666.419C364.075 661.837 363.354 642.769 360.766 639.872ZM661.436 640.191C659.35 644.65 656.658 662.283 657.573 665.783C659.136 666.75 660.035 666.765 661.831 667.073L664.245 667.122C666.174 664.941 666.647 643.409 661.436 640.191ZM669.226 755.49C667.295 759.108 667.545 762.432 667.518 766.461L816.994 777.61C829.873 778.67 843.04 780.747 855.696 781.728L856.35 781.231C856.472 778.831 856.522 776.427 856.499 774.024C808.272 768.053 759.885 761.569 711.366 758.416C699.648 757.654 680.096 755.148 669.226 755.49ZM653.316 757.993C648.888 759.508 644.527 760.957 640.078 762.372C637.056 763.334 631.116 763.736 629.189 764.76C630.302 764.972 631.388 765.19 632.509 765.361C640.071 765.632 647.703 766.493 655.008 766.713C655.05 764.114 655.313 760.686 654.66 758.27C653.586 757.898 654.043 757.898 653.316 757.993ZM616.492 773.113C615.792 778.713 615.983 785.636 616.003 791.394C616.075 812.421 615.624 833.421 615.3 854.443C615.148 864.352 614.433 874.842 614.819 884.731C636.664 887.551 661.245 889.818 682.688 893.109C682.658 880.274 683.264 867.214 683.575 854.361C680.656 863.416 677.296 871.206 668.325 876.102C661.877 879.622 651.991 880.146 645.017 877.847C636.926 875.112 630.251 869.279 626.457 861.627C622.553 853.567 621.996 844.291 624.909 835.822C627.544 828.089 633.226 821.77 640.636 818.331C660.728 808.898 680.614 821.526 683.712 842.669C684.171 833.694 684.546 822.435 684.444 813.452C666.015 810.259 647.914 807.501 629.226 806.565C622.97 806.252 620.631 799.235 621.013 794.218C620.94 788.008 618.614 781.034 625.39 777.214C633.666 772.935 645.877 775.996 650.284 784.602C652.03 788.082 652.314 792.114 651.074 795.804C649.641 800.065 647.708 801.874 644.526 804.777C653.008 805.419 661.221 806.807 669.677 807.903C698.832 811.684 728.511 812.396 757.788 815.595C762.096 816.065 766.808 816.392 771.124 816.585L823.396 821.314C823.366 816.113 822.741 798.253 824.311 794.495C825.136 793.922 826.52 793.401 827.531 793.528C836.314 794.638 846.903 793.724 855.457 795.361C855.658 800.048 856.245 824.2 854.757 827.161C850.408 827.949 837.33 826.413 832.185 825.953L801.254 823.365C794.705 822.761 785.313 821.584 778.918 821.43C777.775 847.626 778.299 878.182 778.118 904.728C806.21 908.224 834.336 911.439 862.492 914.373C862.721 873.773 862.723 833.172 862.499 792.572C827.604 790.428 793.163 786.403 758.4 783.923C711.152 780.552 663.719 776.185 616.492 773.113ZM865.36 774.429L865.318 782.255C869.78 783.203 871.559 783.323 875.078 786.367L888.366 780.634L893.916 777.863C884.247 776.332 874.589 775.875 865.36 774.429ZM629.238 779.114C628.259 779.579 627.638 779.599 627.484 780.334C626.16 786.622 631.758 796.701 628.847 802.416L629.411 802.954C630.588 802.235 630.195 802.466 631.064 801.228C634.952 801.883 637.397 802.288 641.39 801.445C654.788 794.198 646.745 777.461 629.238 779.114ZM893.494 782.453C887.297 784.823 880.854 787.758 874.838 790.604L874.386 916.188C874.392 917.191 874.433 917.248 874.92 918.107C876.061 917.892 875.601 918.091 876.352 917.649C882.791 912.453 889.173 907.187 895.496 901.851L895.973 814.509C895.989 810.067 896.319 786.021 895.634 783.709C894.477 782.854 894.786 782.953 893.494 782.453ZM827.417 796.967L827.489 821.518C835.628 822.229 843.772 822.879 851.92 823.468L851.906 798.62C843.81 798.087 835.485 797.638 827.417 796.967ZM688.731 813.687C687.403 817.032 686.649 885.203 686.662 893.342L737.952 899.062C749.533 900.404 761.843 902.191 773.395 903.14C774.616 901.472 774.244 878.321 774.274 874.808L774.759 820.922C746.3 818.552 717.153 815.475 688.731 813.687ZM652.052 819.744C636.928 820.67 625.401 833.652 626.27 848.779C627.139 863.906 640.077 875.482 655.207 874.67C670.418 873.854 682.07 860.832 681.196 845.624C680.323 830.416 667.257 818.813 652.052 819.744Z"/><path fill="#EDF6F9" d="M785.336 255.986C784.772 240.22 785.157 222.475 785.156 206.583L785.009 141.485C811.188 141.202 837.369 141.168 863.549 141.384C876.063 141.471 891.257 141.229 903.529 141.934L903.519 293.033C903.496 316.689 904.074 342.737 903.475 366.187C898.342 362.719 893.27 358.396 888.088 354.778C848.098 326.858 812.662 296.819 785.336 255.986Z"/><path fill="#EDF6F9" d="M121.035 171.544C121.012 162.701 120.64 150.59 121.289 141.993C160.955 141.678 203.867 141.182 243.447 141.849L243.513 231.956C235.101 225.985 227.407 218.772 219.279 212.406C199.169 196.658 176.76 178.311 151.074 173.386C140.265 171.313 131.758 171.498 121.035 171.544Z"/><path fill="#EDF6F9" d="M756.459 175.714C763.427 165.697 772.697 150.823 780.125 141.834C781.147 143.943 780.715 155.724 780.664 158.988C772.401 168.338 765.296 180.848 756.888 189.743C756.026 187.075 756.404 178.924 756.459 175.714Z"/><path fill="#EDF6F9" d="M247.508 235.181C247.338 205.835 247.326 176.487 247.472 147.14L259.984 165.64L259.399 236.739C259.088 238.556 259.045 242.02 258.962 243.979C256.173 241.797 250.218 236.396 247.508 235.181Z"/><path fill="#D1B3E3" d="M345.175 288.283C350.631 286.677 356.483 285.502 362.039 283.934C408.526 270.808 452.087 249.356 494.548 226.459L529.785 207.544C574.041 183.526 622.129 155.634 673.472 152.612C683.896 151.998 695.403 152.19 705.506 154.973C722.187 159.644 736.294 170.816 744.663 185.984C729.652 209.543 714.092 232.396 698.906 255.758C680.172 284.577 662.187 314.463 643.262 343.161C625.94 336.943 609.482 332.847 590.891 332.809C586.268 332.8 571.1 332.862 568.353 338.426C566.129 345.426 583.972 347.985 588.463 348.311C594.785 348.769 613.918 350.46 616.398 342.31C616.099 340.634 616.025 340.742 614.885 339.428C620.016 338.893 636.396 344.222 641.341 346.355C636.723 353.808 632.095 361.347 627.344 368.711C624.64 372.903 621.386 376.989 618.734 381.253C618.151 402.701 617.725 424.153 617.458 445.608C611.998 445.513 594.996 444.089 591.932 447.84C585.43 455.798 580.421 467.396 574.438 476.061L575.609 558.018L570.501 558.107C570.549 545.826 570.681 533.546 570.896 521.267C572.272 519.244 572.926 518.954 571.953 516.67C573.264 517.665 550.145 507.78 551.606 507.994C547.507 507.394 525.665 506.159 522.933 507.725L522.657 509.016C523.919 511.476 526.186 510.738 529.32 510.738C547.816 510.736 549.997 511.569 566.055 519.107C562.855 520.982 558.502 522.937 555.923 525.592C553.128 528.47 554.405 550.74 554.433 555.947L469.88 556.015C469.85 553.838 469.476 546.414 470.168 544.805C471.644 545.726 471.87 546.248 473.265 546.157C473.477 545.19 473.473 544.264 473.453 543.277C474.457 542.349 475.365 541.67 476.442 540.845L476.162 540.272C474.201 539.788 474.306 539.785 472.32 540.121C471.487 541.494 471.463 541.632 470.335 542.738C468.947 540.637 469.466 530.183 469.494 527.151C465.797 524.546 461.837 521.341 458.227 518.549C465.495 516.043 471.444 512.725 478.966 510.919C483.374 509.861 498.394 512.327 499.799 508.821L499.001 507.444C495.519 505.943 479.077 506.667 474.621 507.34C470.176 508.011 456.501 518.101 452.015 514.087C451.091 510.02 451.468 481.963 451.469 476.156C448.509 470.865 443.19 464.489 439.507 459.508C436.496 455.435 432.938 450.145 429.71 446.407C425.062 445.745 414.361 445.755 409.222 445.631C408.738 425.745 408.646 402.625 409.195 382.916C400.71 371.079 391.662 358.557 383.602 346.482C387.81 344.396 406.349 338.687 410.758 338.908C406.056 351.78 439.013 348.972 445.361 347.317C464.631 342.319 458.697 333.032 441.613 332.559C422.282 332.023 398.419 335.103 380.623 343.29C370.033 325.544 355.452 306.262 345.175 288.283ZM545.151 538.402C538.173 542.579 537.673 549.817 546.39 551.531C554.353 548.64 552.8 538.725 545.151 538.402ZM477.878 540.431C477.85 541.696 478.163 541.988 477.428 542.955C472.97 548.82 474.124 553.542 481.919 552.875C488.664 547.878 486.074 541.104 477.878 540.431ZM490.815 542.863C486.748 545.973 487.33 550.503 492.099 552.187C496.463 549.091 496.116 544.786 490.815 542.863Z"/><path fill="#EDF6F9" d="M756.421 201.93C756.456 200.502 756.436 198.382 756.548 197.022C765.059 186.345 772.682 175.108 781.007 164.607C780.98 191.151 781.64 219.711 781.038 246.02C779.25 243.447 775.789 236.725 773.993 233.672C768.771 224.864 763.437 216.123 757.994 207.45C756.475 205.059 756.459 204.965 756.421 201.93Z"/><path fill="#79C3AA" d="M121.035 171.544C131.758 171.498 140.265 171.313 151.074 173.386C176.76 178.311 199.169 196.658 219.279 212.406C227.407 218.772 235.101 225.985 243.513 231.956L243.978 562.306C240.846 560.403 234.741 558.083 231.073 558.214L230.72 558.794L231.698 561.166L231.239 561.515C229.938 560.112 225.099 555.024 223.971 554.291C221.157 552.462 193.926 545.406 191.749 545.967C190.497 539.738 188.378 532.744 186.982 526.222C184.645 516.234 186.382 506.797 180.598 497.745C177.784 491.916 166.515 487.862 161.162 492.294C153.468 498.664 155.959 518.061 154.312 527.55C152.121 525.919 146.958 523.221 144.396 521.687C136.769 517.12 129.317 512.931 121.4 508.879C120.69 475.443 121.206 441.041 121.095 407.56C121.026 386.705 120.632 364.75 121.048 344.006C136.094 320.954 157.308 348.092 163.228 363.582C170.572 382.796 174.969 401.721 158.577 417.85C151.362 425.327 147.333 428.85 142.916 438.406C137.766 449.548 139.759 472.981 157.322 465.633C163.139 463.199 167.117 450.208 169.239 443.747C172.421 455.403 176.768 473.293 186.955 480.725C191.91 484.34 202.245 485.068 205.777 478.583C217.422 457.2 202.485 433.925 197.645 413.07C190.067 380.41 233.633 360.689 229.024 328.554C227.847 320.496 218.636 311.884 209.809 314.918C200.81 318.011 196.448 327.965 192.119 335.777C183.648 310.456 197.785 292.277 197.979 267.53C197.834 256.848 190.808 240.634 177.828 242.356C158.984 245.331 161.989 270.02 159.329 283.758C151.206 325.718 130.625 307.369 121.072 279.323C119.768 275.496 120.997 253.959 121.017 248.642L121.035 171.544Z"/><path fill="#79C3AA" d="M117.451 506.324C107.892 496.91 94.6503 489 84.4044 479.133C49.513 445.532 28.5572 399.976 19.3004 352.887C2.41671 266.998 20.31 190.48 117.041 172.317L117.079 237.594C117.114 248.625 117.488 261.144 117.223 272.033C110.635 261.445 104.104 245.951 90.8084 242.827C77.8315 239.777 69.8654 253.471 68.2776 264.353C64.7879 288.271 85.7493 306.099 85.0405 328.951C83.5651 347.228 54.4162 365.951 71.2092 388.078C75.6445 393.923 79.5836 394.3 84.5795 395.521C96.5976 398.459 109.954 379.218 117.074 382.879C117.975 392.02 117.233 413.947 117.236 423.999L117.451 506.324Z"/><path fill="#EDF6F9" d="M263.268 247.696C263.09 235.875 263.433 223.839 263.513 212C263.604 198.568 263.498 185.019 263.908 171.602C268.723 177.773 274.261 186.646 278.614 193.295L304.329 232.765L325.505 265.039C329.173 270.539 336.59 281.096 339.354 286.552C335.343 288.568 319.931 282.12 315.55 280.164C298.248 272.437 277.784 259.849 263.268 247.696Z"/><path fill="#EDF6F9" d="M744.184 208.568L743.791 208.068C744.08 193.381 743.34 194.659 752.259 182.356C753.495 183.899 753.005 193.306 752.988 195.885C750.013 200.085 747.078 204.312 744.184 208.568Z"/><path fill="#D1B3E3" d="M695.431 278.331C694.945 275.597 695.483 269.408 696.691 267.1C701.412 258.072 708.211 248.673 713.883 240.186C722.84 226.878 731.586 213.429 740.118 199.845C740.732 201.863 739.645 213.478 738.574 215.324C734.065 223.092 728.337 230.666 723.152 238.046C713.756 251.366 704.515 264.795 695.431 278.331Z"/><path fill="#D1B3E3" d="M779.153 675.903C776.216 650.368 774.971 619.6 773.281 593.53C769.062 521.016 765.463 448.467 762.486 375.891L757.556 276.06C756.664 258.53 755.733 241.098 755.947 223.542C756.03 216.77 755.744 208.573 756.421 201.93C756.459 204.965 756.475 205.059 757.994 207.45C763.437 216.123 768.771 224.864 773.993 233.672C775.789 236.725 779.25 243.447 781.038 246.02C781.985 281.652 781.471 318.296 781.423 354.033L781.359 515.55C781.323 549.756 781.107 583.962 780.712 618.166C780.668 630.311 780.515 642.455 780.251 654.598C780.082 661.644 780.103 668.935 779.153 675.903Z"/><path fill="#D1B3E3" d="M665.45 519.642C665.987 486.885 667.514 451.677 667.05 418.995C667.931 422.634 668.033 425.219 671.006 427.401C675.405 428.15 677.103 423.163 678.245 419.654C681.278 410.34 683.254 400.463 685.225 390.888C686.029 402.07 686.904 459.179 694.208 464.993C695.306 465.867 695.949 465.67 697.21 465.485C704.227 461.051 709.438 437.948 711.371 429.869C721.95 385.647 723.555 339.899 729.976 295.019C732.633 276.452 736.849 257.834 739.593 239.256C740.501 233.094 742.617 222.394 742.681 216.511C745.871 211.938 749.132 207.416 752.463 202.945C752.213 216.448 752.2 229.955 752.425 243.459C752.793 258.201 753.848 273.43 754.621 288.188L757.426 348.78L768.723 581.019C769.88 600.214 771.174 619.4 772.606 638.576C773.459 648.772 775.337 663.762 775.543 673.63C771.599 671.074 750.183 623.412 746.477 615.296C733.879 587.578 727.33 554.336 706.007 531.702C694.403 519.384 681.011 519.382 665.45 519.642Z"/><path fill="#D1B3E3" d="M694.222 456.495C691.252 437.883 690.79 420.447 689.68 401.858C687.951 372.891 689.721 345.448 692.4 316.667C692.861 311.717 693.324 288.476 695.407 285.192C708.831 264.041 723.888 243.723 737.823 222.855C738.857 226.833 728.755 278.782 727.654 286.299C724.439 308.24 710.466 457.939 696.101 460.539C694.812 459.543 694.684 458.143 694.222 456.495Z"/><path fill="#79C3AA" d="M247.508 235.181C250.218 236.396 256.173 241.797 258.962 243.979C259.045 242.02 259.088 238.556 259.399 236.739C259.749 267.92 257.986 300.429 257.637 331.766L254.068 563.739C252.167 563.543 249.958 563.149 248.042 562.859C248.364 550.77 248.094 537.156 248.067 524.995L247.682 444.971L247.508 235.181Z"/><path fill="#79C3AA" d="M144.035 310.205C171.416 302.142 151.052 251.542 176.809 243.593C184.885 243.089 191.136 247.183 193.801 254.74C204.336 284.618 178.711 306.996 192.044 338.147C195.995 331.088 200.182 321.073 207.668 317.209C210.73 315.628 214.997 315.162 218.249 316.442C221.862 317.864 224.777 321.443 226.313 324.907C234.6 343.6 214.066 364.787 204.983 379.119C201.08 385.278 197.773 391.703 196.117 398.844C190.965 421.067 217.663 449.629 206.214 475.761C205.015 478.499 203.088 480.687 200.204 481.647C196.721 482.807 192.166 482.095 188.952 480.425C177.027 474.228 173.193 452.981 169.538 441.157L169.133 441.139C167.411 442.087 163.904 459.376 159.182 462.869C154.241 466.523 150.537 467.866 145.265 462.998C142.371 460.326 141.859 455.47 141.553 451.984C140.316 426.156 171.799 418.513 171.054 392.619C170.607 375.603 163.499 355.254 151.525 342.932C141.141 332.248 131.58 330.342 121.208 341.527C120.811 322.701 120.971 301.716 121.009 282.721C125.341 293.624 131.969 307 144.035 310.205Z"/><path fill="#79C3AA" d="M85.3529 394.295C78.7421 393.423 73.0276 390.038 69.9436 384.011C59.6215 363.662 82.3187 349.144 86.1625 330.882C87.9895 322.202 83.8856 313.021 80.4692 305.238C79.4252 302.86 78.3334 300.195 77.1837 297.887C69.156 281.777 62.3551 253.736 83.4562 244.124C90.7718 243.353 96.2708 245.187 101.34 250.615C105.602 255.179 115.66 269.039 116.576 274.874C117.904 283.327 117.263 295.658 117.304 304.441L117.399 380.79C103.085 382.238 99.7056 394.579 85.3529 394.295Z"/><path fill="#D1B3E3" d="M263.268 247.696C277.784 259.849 298.248 272.437 315.55 280.164C319.931 282.12 335.343 288.568 339.354 286.552C350.297 302.838 360.373 319.967 371.282 336.302C373.101 339.026 375.06 341.995 376.694 344.808C362.751 355.187 358.39 368.806 358.312 385.734C358.254 398.296 358.274 410.9 358.238 423.462L357.643 528.463L357.556 559.252C357.536 564.679 357.639 572.856 357.089 578.07C356.989 576.611 357.06 575.4 356.375 574.134C352.567 573.868 342.601 574.865 338.368 575.169C328.342 575.905 318.295 576.33 308.242 576.443C308.346 579.208 307.982 585.277 306.373 587.533C305.662 588.531 303.059 591.999 301.806 592.196C301.894 589.103 305.997 586.716 306.561 584.629C306.756 583.906 306.863 577.414 306.918 576.247C303.798 575.75 298.7 575.483 295.267 575.095C288.294 574.277 281.354 573.201 274.46 571.871C272.907 572.868 272.163 573.319 270.504 574.106L270.164 573.792C271.667 571.957 272.957 571.364 274.973 570.134C272.833 568.06 261.336 565.208 258.195 565.165C258.906 558.286 258.387 543.975 258.562 536.318C259.145 510.325 259.557 484.329 259.797 458.33L263.268 247.696Z"/><path fill="#D1B3E3" d="M785.336 255.986C812.662 296.819 848.098 326.858 888.088 354.778C893.27 358.396 898.342 362.719 903.475 366.187L903.505 633.638L902.758 632.189C900.483 632.363 892.709 641.131 890.285 643.546C876.888 656.923 863.009 669.807 848.674 682.173C843.244 686.906 831.787 695.361 827.598 700.163C827.174 700.649 826.77 701.151 826.387 701.669L782.434 701.666C782.402 695.956 782.606 690.271 782.805 684.566C784.301 641.806 784.792 599.085 785.076 556.298L785.336 255.986Z"/><path fill="#EDF6F9" d="M648.263 347.523C647.471 346.453 647.439 346.439 646.942 345.213C648.843 341.103 658.401 326.79 661.288 322.253L691.283 274.868C691.723 277.474 690.209 286.529 688.699 288.82C676.254 307.695 662.919 325.892 651.059 345.162C650.058 346.789 649.922 347.01 648.263 347.523Z"/><path fill="#D1B3E3" d="M666.062 329.202C673.163 317.947 680.966 306.657 688.184 295.36C688.658 298.592 686.996 312.951 687.079 316.862C687.384 331.136 681.819 416.462 672.393 423.268C671.14 422.602 670.852 421.337 670.253 419.952C668.125 411.569 668.356 402.008 667.695 393.407C666.045 371.928 666.82 350.637 666.062 329.202Z"/><path fill="#D1B3E3" d="M653.554 348.823C655.995 344.023 659.01 339.485 661.902 334.936C662.923 336.618 662.479 358.595 662.467 362.178L659.443 356.708C657.651 353.534 656.038 351.433 653.554 348.823Z"/><path fill="#D1B3E3" d="M441.125 344.153C440.308 344.238 439.49 344.313 438.671 344.38C433.227 344.82 418.28 345.544 413.922 341.863C413.44 337.717 421.961 337.089 424.839 336.683C432.763 335.471 445.537 335.958 452.893 339.678C448.189 342.794 446.608 343.072 441.125 344.153Z"/><path fill="#D1B3E3" d="M599.377 344.579C594.843 344.598 575.796 344.036 573.441 339.838L574.032 338.936C578.123 337.107 582.204 337.068 586.655 336.708C592.11 336.385 609.646 336.395 612.474 341.87L611.691 342.811C607.361 344.582 603.973 344.513 599.377 344.579Z"/><path fill="#EDF6F9" d="M623.439 386.216C623.063 386.606 623.317 386.436 622.594 386.569C622.152 381.265 628.115 374.252 631.089 369.681C635.647 362.67 640.104 355.595 644.461 348.457C645.774 349.377 646.109 349.451 646.917 350.844C645.877 354.605 626.814 381.466 623.439 386.216Z"/><path fill="#D1B3E3" d="M375.597 571.484C371.008 571.776 366.794 572.834 362.78 573.115C362.054 562.444 362.529 545.516 362.498 534.392L362.365 459.062L362.291 407.168C362.271 386.08 359.113 363.339 377.482 348.812C377.596 358.37 376.948 368.135 376.707 377.7L375.914 429.585C375.539 476.764 376.241 524.516 375.597 571.484Z"/><path fill="#D1B3E3" d="M379.393 570.152C380.089 546.16 379.323 521.131 379.584 497.087C379.703 486.169 379.19 472.641 379.912 461.91C379.149 425.294 381.631 387.322 381.51 350.774C389.925 363.049 397.247 372.051 405.069 384.947C404.925 425.101 405.122 465.255 405.661 505.405C406.599 524.727 406.044 545.562 406.483 565.108L402.971 565.794C403.191 561.403 404.328 534.805 403.334 532.022C402.03 530.8 402.771 531.095 401.089 530.986C399.208 533.464 399.475 561.193 399.504 565.917C393.631 566.257 385.799 569.577 379.393 570.152ZM391.931 530.156C389.188 532.847 389.245 553.243 391.131 555.794C392.636 556.778 393.787 556.598 395.606 556.644C395.979 556.228 396.353 555.813 396.727 555.397C397.298 551.675 398.672 532.067 396.539 530.143C394.52 530.006 393.95 530.008 391.931 530.156Z"/><path fill="#D1B3E3" d="M636.871 531.015C631.525 533.113 626.087 537.984 620.374 539.386L622.006 394.489C631.131 381.434 641.37 366.021 650.787 353.387L651.741 353.866C652.974 355.716 651.901 362.248 651.768 364.801C649.653 405.42 648.884 446.083 644.237 486.55C642.548 501.254 639.545 516.416 636.871 531.015Z"/><path fill="#D1B3E3" d="M661.567 522.195C654.217 523.382 647.254 527.887 641.097 529.308C643.134 516.961 645.754 504.839 647.226 492.345C650.408 465.339 652.375 437.659 653.474 410.483C654.18 393.028 655.253 374.77 655.578 357.353C664.604 370.06 663.575 379.852 663.55 394.86C663.481 437.307 662.392 479.758 661.567 522.195Z"/><path fill="#D1B3E3" d="M907.474 370.01C910.51 371.763 913.948 374.541 916.784 376.732C941.944 396.163 965.148 420.827 973.356 452.367C983.397 490.949 973.603 532.547 953.813 566.44C941.924 586.65 924.833 608.881 907.419 624.715C907.041 601.463 907.34 577.284 907.301 553.969L907.474 370.01Z"/><path fill="#D1B3E3" d="M426.964 560.139C423.63 560.403 414.065 563.105 410.268 564.045C410.758 526.324 409.561 487.812 409.229 449.998C415.286 449.933 421.133 449.828 427.137 450.667C427.275 463.831 426.713 477.698 426.654 490.997L426.964 560.139Z"/><path fill="#D1B3E3" d="M616.425 543.688C611.192 546.07 600.439 551.43 595.002 552.49C595.501 518.356 595.665 484.219 595.496 450.082C602.774 449.949 610.229 449.99 617.523 449.947C617.332 481.196 616.966 512.443 616.425 543.688Z"/><defs><linearGradient id="gradient_0" gradientUnits="userSpaceOnUse" x1="611.35742" y1="530.55591" x2="563.58954" y2="487.03973"><stop offset="0" stop-color="#66BEB9"/><stop offset="1" stop-color="#D6D7E2"/></linearGradient></defs><path fill="url(#gradient_0)" d="M591.478 555.704C588.351 555.678 583.306 557.459 579.864 558.27C579.974 569.762 580.734 590.637 579.888 601.685C579.013 591.797 579.701 572.88 579.618 562.172L578.582 476.651C583.068 469.072 587.515 461.469 591.923 453.844L591.478 555.704Z"/><path fill="#D1B3E3" d="M447.875 477.83C448.136 497.418 448.234 518.685 447.917 538.243C448.008 545.387 448.304 556.642 447.572 563.638C447.198 560.699 447.382 555.224 447.402 552.059C442.174 554.285 436.339 556.725 430.886 558.314L430.967 543.257C430.128 514.137 430.733 483.552 430.938 454.355C435.741 460.904 444.024 471.279 447.875 477.83Z"/><path fill="#79C3AA" d="M155.419 527.468L155.594 526.738C157.768 517.512 155.87 508.396 158.03 499.207C159.505 492.579 165.187 490.686 171.315 492.276C178.521 494.147 182.652 502.363 183.518 509.223C184.865 519.887 185.864 531.245 189.407 541.476C179.173 539.197 165.426 531.328 155.419 527.468Z"/><path fill="#EDF6F9" d="M121.4 508.879C129.317 512.931 136.769 517.12 144.396 521.687C146.958 523.221 152.121 525.919 154.312 527.55C148.907 541.953 135.488 549.469 121.32 553.504L121.4 508.879Z"/><path fill="#D1B3E3" d="M453.239 554.03C452.877 553.592 452.516 553.155 452.154 552.717C451.338 542.7 452.154 532.251 451.733 522.161C451.673 520.713 452.347 519.589 453.16 518.868L453.777 518.765C455.67 520.168 455.87 522.231 455.932 524.515C456.207 534.612 456.028 544.904 455.973 554.997L453.239 554.03Z"/><path fill="#79C3AA" d="M665.45 519.642C681.011 519.382 694.403 519.384 706.007 531.702C727.33 554.336 733.879 587.578 746.477 615.296C750.183 623.412 771.599 671.074 775.543 673.63C776.702 682.286 777.387 692.176 778.188 700.952C768.469 697.851 749.482 688.645 739.614 684.291C716.177 673.95 693.189 662.716 669.405 653.055C669.336 647.721 668.299 643.488 666.075 638.711L662.649 636.526C662.511 622.924 663.483 605.255 663.859 591.4L665.45 519.642Z"/><path fill="#D1B3E3" d="M566.903 559.03C565.157 558.174 560.278 558.542 558.085 558.579C558.113 563.192 558.495 582.026 557.637 585.285C557.247 568.652 557.13 545.599 557.8 528.929C560.432 526.626 564.257 524.089 567.196 522.02C567.032 534.356 566.934 546.693 566.903 559.03Z"/><path fill="#79C3AA" d="M641.097 529.308C647.254 527.887 654.217 523.382 661.567 522.195C661.226 548.159 660.736 574.12 660.097 600.078C659.794 611.743 659.563 623.468 659.059 635.122C658.971 637.142 656.464 642.751 655.85 645.851C643.132 639.642 630.544 633.169 618.094 626.438C617.869 608.626 618.716 589.921 619.122 572.008C620.372 574.892 622.03 579.593 624.663 581.247C634.266 581.561 639.745 537.291 641.097 529.308Z"/><path fill="#D1B3E3" d="M459.615 555.957L459.47 524.154C461.503 525.849 463.935 527.785 465.852 529.547C465.988 538.662 466.047 547.777 466.031 556.892C463.633 556.336 462.029 556.195 459.615 555.957Z"/><path fill="#EDF6F9" d="M121.249 555.038C135.249 551.683 151.077 541.935 155.419 527.468C165.426 531.328 179.173 539.197 189.407 541.476C191.676 551.235 194.249 578.642 176.396 564.767C171.164 560.701 169.509 558.674 162.877 557.13C160.417 558.131 156.988 559.69 156.444 562.328C153.727 575.516 173.101 581.235 182.091 575.67C192.881 568.989 193.11 556.491 191.749 545.967C193.926 545.406 221.157 552.462 223.971 554.291C225.099 555.024 229.938 560.112 231.239 561.515L231.698 561.166L230.72 558.794L231.073 558.214C234.741 558.083 240.846 560.403 243.978 562.306L244.241 623.314C208.36 620.749 227.259 659.48 216.348 678.005C213.515 683.222 204.483 684.316 200.209 680.391C178.546 660.501 197.902 627.051 172.326 609.458C157.562 599.302 137.76 603.04 121.311 605.774C121.106 589.156 120.895 571.614 121.249 555.038Z"/><path fill="#088F80" d="M395.606 556.644C393.787 556.598 392.636 556.778 391.131 555.794C389.245 553.243 389.188 532.847 391.931 530.156C393.95 530.008 394.52 530.006 396.539 530.143C398.672 532.067 397.298 551.675 396.727 555.397C396.353 555.813 395.979 556.228 395.606 556.644Z"/><path fill="#088F80" d="M399.504 565.917C399.475 561.193 399.208 533.464 401.089 530.986C402.771 531.095 402.03 530.8 403.334 532.022C404.328 534.805 403.191 561.403 402.971 565.794C402.834 571.493 404.35 591.526 400.349 593.685L399.69 593.409C399.037 589.568 399.616 571.099 399.504 565.917Z"/><path fill="#79C3AA" d="M620.374 539.386C626.087 537.984 631.525 533.113 636.871 531.015C634.409 548.213 632.566 561.851 625.715 577.945C620.011 562.708 619.87 555.615 620.374 539.386Z"/><path fill="#088F80" d="M546.39 551.531C537.673 549.817 538.173 542.579 545.151 538.402C552.8 538.725 554.353 548.64 546.39 551.531ZM544.722 541.874C543.633 542.299 542.857 543.278 542.692 544.435C542.526 545.593 542.996 546.749 543.922 547.463C544.848 548.177 546.086 548.338 547.163 547.884C548.799 547.194 549.576 545.318 548.908 543.674C548.24 542.029 546.375 541.227 544.722 541.874Z"/><path fill="#088F80" d="M481.919 552.875C474.124 553.542 472.97 548.82 477.428 542.955C478.163 541.988 477.85 541.696 477.878 540.431C486.074 541.104 488.664 547.878 481.919 552.875ZM479.693 544.25C477.856 546.335 478.097 545.52 477.538 547.985C478.215 549.649 478.671 550.338 480.589 550.848C481.826 549 482.292 548.608 482.552 546.489C481.94 544.885 481.593 544.446 479.693 544.25Z"/><path fill="#D1B3E3" d="M547.163 547.884C546.086 548.338 544.848 548.177 543.922 547.463C542.996 546.749 542.526 545.593 542.692 544.435C542.857 543.278 543.633 542.299 544.722 541.874C546.375 541.227 548.24 542.029 548.908 543.674C549.576 545.318 548.799 547.194 547.163 547.884Z"/><path fill="#088F80" d="M492.099 552.187C487.33 550.503 486.748 545.973 490.815 542.863C496.116 544.786 496.463 549.091 492.099 552.187Z"/><path fill="#79C3AA" d="M595.002 552.49C600.439 551.43 611.192 546.07 616.425 543.688C615.614 568.787 614.406 596.095 614.405 621.143C608.265 621.131 601.631 621.241 595.532 621.064C595.119 598.209 594.942 575.349 595.002 552.49Z"/><path fill="#D1B3E3" d="M480.589 550.848C478.671 550.338 478.215 549.649 477.538 547.985C478.097 545.52 477.856 546.335 479.693 544.25C481.593 544.446 481.94 544.885 482.552 546.489C482.292 548.608 481.826 549 480.589 550.848Z"/><path fill="#EDF6F9" d="M430.886 558.314C436.339 556.725 442.174 554.285 447.402 552.059C447.382 555.224 447.198 560.699 447.572 563.638C448.051 581.163 447.557 601.534 447.41 619.222C443.55 619.597 434.669 620.103 431.286 618.768C429.817 614.98 430.714 565.552 430.886 558.314Z"/><path fill="#EDF6F9" d="M455.973 554.997C456.147 559.964 456.422 596.755 455.473 599.675C454.125 600.91 454.504 600.525 452.386 600.887L451.749 600.347C451.344 597.134 451.225 556.119 451.99 554.247L453.239 554.03L455.973 554.997Z"/><path fill="#79C3AA" d="M579.864 558.27C583.306 557.459 588.351 555.678 591.478 555.704C591.509 577.44 591.98 599.48 591.796 621.141C584.884 621.244 578.751 622.334 579.535 613.28C579.849 609.654 579.815 605.365 579.888 601.685C580.734 590.637 579.974 569.762 579.864 558.27Z"/><path fill="#EDF6F9" d="M459.615 555.957C462.029 556.195 463.633 556.336 466.031 556.892C466.62 561.456 466.437 568.923 466.418 573.656L466.214 600.122L459.472 600.093L459.615 555.957Z"/><path fill="#79C3AA" d="M570.501 558.107L575.609 558.018C575.77 563.351 576.685 597.532 575.923 599.489C574.304 600.233 572.276 600.026 570.432 600.014L570.501 558.107Z"/><path fill="#79C3AA" d="M558.085 558.579C560.278 558.542 565.157 558.174 566.903 559.03L566.993 584.347C567.004 588.6 567.211 595.126 566.73 599.124C563.672 601.61 559.68 597.573 557.551 595.444L557.637 585.285C558.495 582.026 558.113 563.192 558.085 558.579Z"/><path fill="#EDF6F9" d="M180.526 575.092C166.372 579.805 149.293 568.266 161.03 559.052C172.643 558.666 171.717 567.207 186.213 570.508C183.961 572.713 183.036 573.365 180.526 575.092Z"/><path fill="#EDF6F9" d="M469.974 596.349C469.883 592.104 469.471 561.666 470.528 559.7C482.068 559.116 498.384 559.623 510.285 559.677C510.323 563.874 511.013 594.842 509.916 596.674C499.61 597.061 479.612 597.415 469.974 596.349Z"/><path fill="#EDF6F9" d="M513.944 559.791L519.98 559.754L554.029 559.496C553.979 564.471 554.654 592.791 553.219 595.194C551.629 596.276 549.921 596.195 547.982 596.352C537.044 596.745 525.152 596.576 514.169 596.536C513.75 584.898 513.993 571.56 513.944 559.791Z"/><path fill="#EDF6F9" d="M410.268 564.045C414.065 563.105 423.63 560.403 426.964 560.139L426.787 617.569C421.474 620.353 416.199 622.588 410.709 624.984C410.391 605.552 409.913 583.368 410.268 564.045Z"/><path fill="#EDF6F9" d="M248.042 562.859C249.958 563.149 252.167 563.543 254.068 563.739L253.347 628.765C251.337 627.627 249.954 626.564 248.108 625.206L248.042 562.859Z"/><path fill="#EDF6F9" d="M258.195 565.165C261.336 565.208 272.833 568.06 274.973 570.134C272.957 571.364 271.667 571.957 270.164 573.792L270.504 574.106C272.163 573.319 272.907 572.868 274.46 571.871C281.354 573.201 288.294 574.277 295.267 575.095C298.7 575.483 303.798 575.75 306.918 576.247C306.863 577.414 306.756 583.906 306.561 584.629C305.997 586.716 301.894 589.103 301.806 592.196C303.059 591.999 305.662 588.531 306.373 587.533C307.982 585.277 308.346 579.208 308.242 576.443C318.295 576.33 328.342 575.905 338.368 575.169C342.601 574.865 352.567 573.868 356.375 574.134C357.06 575.4 356.989 576.611 357.089 578.07L356.792 639.888C353.404 645.712 352.019 648.976 350.452 655.603C327.036 665.509 303.13 676.886 279.853 686.611C272.428 686.034 263.701 686.012 256.259 686.036C256.965 669.257 256.68 649.901 256.942 632.863C277.506 637.059 281.375 619.346 273.459 604.199C271.226 599.927 264.528 587.165 260.408 585.714C260.186 587.117 258.363 590.259 257.616 591.679C258.161 583.269 258.101 573.625 258.195 565.165Z"/><path fill="#EDF6F9" d="M402.971 565.794L406.483 565.108L406.777 626.832C397.609 631.055 388.374 635.129 379.075 639.052C378.87 616.085 378.976 593.116 379.393 570.152C385.799 569.577 393.631 566.257 399.504 565.917C399.616 571.099 399.037 589.568 399.69 593.409L400.349 593.685C404.35 591.526 402.834 571.493 402.971 565.794ZM392.694 576.812C390.649 580.998 388.465 590.841 392.294 594.396C393.964 595.045 393.867 595.042 395.649 595.1C396.732 594.583 397.721 594.483 397.891 593.018C398.362 588.941 398.414 585.205 397.325 581.198C396.381 577.725 395.978 577.73 392.694 576.812Z"/><path fill="#EDF6F9" d="M362.78 573.115C366.794 572.834 371.008 571.776 375.597 571.484L375.053 640.146C371.871 641.79 369.786 642.825 366.457 644.12L366.357 643.365C365.804 639.433 363.201 636.471 363.092 634.225C362.109 614.001 363.62 593.321 362.78 573.115Z"/><path fill="#088F80" d="M395.649 595.1C393.867 595.042 393.964 595.045 392.294 594.396C388.465 590.841 390.649 580.998 392.694 576.812C395.978 577.73 396.381 577.725 397.325 581.198C398.414 585.205 398.362 588.941 397.891 593.018C397.721 594.483 396.732 594.583 395.649 595.1Z"/><path fill="#EDF6F9" d="M270.107 630.637C266.634 632.385 260.589 633.81 257.516 630.685C256.504 628.215 257.378 597.224 257.673 592.738C258.998 591.695 259.397 591.97 261.364 591.687C263.746 591.778 264.317 592.003 265.828 593.929C273.382 603.555 282.109 620.966 270.107 630.637Z"/><path fill="#79C3AA" d="M669.177 656.998C677.905 660.386 687.929 665.258 696.56 669.161L750.225 693.324C759.04 697.199 770.932 702.859 780.228 705.088C782.858 705.718 793.183 705.555 796.282 705.552L821.571 705.503C805.676 715.91 791.508 727.47 774.073 735.43C768.981 737.754 756.917 742.871 753.897 747.378C752.142 744.656 726.011 727.951 721.807 725.19L592.17 639.892C577.258 630.084 561.816 621.615 547.749 610.52C543.597 607.245 537.846 604.072 534.202 600.404C538.103 600.39 542.004 600.325 545.904 600.209C553.439 605.963 571.164 615.623 576.473 621.129L579.719 624.429C590.532 625.887 603.319 623.501 613.642 625.22C614.859 626.277 614.509 626.481 614.865 628.527C616.147 630.25 650.026 647.101 654.712 649.569C654.408 657.416 654.818 659.875 652.146 667.374C655.297 669.032 659.575 670.647 663.061 671.24C669.695 672.368 668.741 661.476 669.177 656.998Z"/><path fill="#EDF6F9" d="M293.996 684.755C300.094 681.864 306.282 679.085 312.487 676.428C325.124 671.016 337.423 664.957 350.3 660.128C349.856 662.553 348.975 665.302 350.504 667.503C353.641 672.018 363.08 671.381 367.158 668.74C368.577 663.652 367.237 653.661 366.868 647.936C386.719 640.258 407.498 630.717 426.799 621.757C434.055 623.858 442.987 623.296 450.362 622.077C450.561 620.155 450.491 617.466 452.077 616.502C460.184 611.573 470.594 604.448 479.316 601.1C481.463 600.276 490.097 600.471 492.395 600.492L393.727 664.83C380.547 673.379 364.963 684.516 351.871 692.307C338.355 689.188 323.079 689.057 309.326 687.116C305.672 686.6 296.514 686.525 293.996 684.755Z"/><path fill="#EDF6F9" d="M451.305 604.816L456.814 603.589C459.35 603.384 463.526 603.529 466.195 603.543C463.568 605.401 460.03 607.441 457.225 609.157L451.414 612.263L451.305 604.816Z"/><path fill="#79C3AA" d="M559.267 603.306L567.039 603.48L567.595 606.124C569.196 606.137 570.741 603.715 572.344 603.498C573.373 603.358 575.419 603.367 576.497 603.362C576.596 607.625 576.74 611.887 576.928 616.148C573.244 613.797 570.287 611.631 566.774 609.013C564.126 607.204 561.484 605.6 559.267 603.306Z"/><path fill="#EDF6F9" d="M244.106 688.294C224.252 688.934 214.869 694.88 197.907 702.994C196.816 703.517 197.949 702.864 196.729 703.635C174.861 705.167 143.886 704.492 121.469 704.552L121.459 606.595C133.883 606.083 153.303 601.4 165.35 606.919C192.749 618.691 182.203 646.849 191.438 669.585C200.509 691.919 219.966 687.196 221.596 664.532C222.361 653.896 220.529 644.291 224.346 634.273C226.994 627.324 236.383 622.081 243.072 625.23C243.741 625.999 244.383 626.928 244.333 627.983C244.077 633.341 244.097 638.798 244.101 644.135L244.106 688.294Z"/><path fill="#79C3AA" d="M558.251 622.675C599.334 649.121 640.225 675.862 680.923 702.895L728.777 734.721C734.601 738.597 745.257 746.472 750.907 749.616L695.1 746.331C686.753 745.8 678.362 745.232 670.021 744.743C665.878 744.5 660.508 743.934 657.272 746.925C655.299 748.748 654.698 751.37 653.988 753.824C648.258 756.101 639.543 759.134 633.378 760.161C632.479 755.386 621.842 748.534 617.899 745.341C606.659 736.207 595.241 727.295 583.652 718.608C537.616 684.065 529.845 677.685 558.251 622.675Z"/><path fill="#EDF6F9" d="M252.124 699.008C250.154 699.936 250.09 700.378 248.307 700.146C247.86 696.912 248.314 681.372 248.313 677.342L248.168 627.752C249.552 628.404 251.831 630.149 253.16 631.1L252.672 677.874C252.628 681.67 252.669 696.219 252.124 699.008Z"/><path fill="#EDF6F9" d="M826.387 701.669C826.77 701.151 827.174 700.649 827.598 700.163C831.787 695.361 843.244 686.906 848.674 682.173C863.009 669.807 876.888 656.923 890.285 643.546C892.709 641.131 900.483 632.363 902.758 632.189L903.505 633.638L903.496 701.77L826.387 701.669Z"/><path fill="#EDF6F9" d="M356.375 666.52C356.104 666.499 355.022 666.196 354.715 666.116C349.912 661.348 358.134 644.705 360.766 639.872C363.354 642.769 364.075 661.837 364.015 666.419L356.375 666.52Z"/><path fill="#79C3AA" d="M661.831 667.073C660.035 666.765 659.136 666.75 657.573 665.783C656.658 662.283 659.35 644.65 661.436 640.191C666.647 643.409 666.174 664.941 664.245 667.122L661.831 667.073Z"/><path fill="#D1B3E3" d="M185.334 707.923C188.784 707.431 196.786 707.543 200.505 707.522L228.996 707.481C247.251 707.467 247.176 706.166 263.508 698.702L293.996 684.755C296.514 686.525 305.672 686.6 309.326 687.116C323.079 689.057 338.355 689.188 351.871 692.307C322.725 711.443 293.449 730.381 264.045 749.119C257.22 753.43 207.109 784.259 204.556 787.288C204.359 789.196 204.196 788.322 205.013 790.014C207.294 790.839 218.872 782.857 221.494 781.194C230.116 775.753 238.695 770.244 247.23 764.667L320.369 717.619L344.982 701.884C348.569 699.563 355.533 694.729 359.013 692.844C359.227 692.988 359.441 693.131 359.655 693.275C366.677 695.133 374.399 695.055 381.674 696.054C411.864 700.201 445.869 712.906 461.532 740.857C479.191 772.369 464.351 814.928 440.961 839.37C429.176 851.685 415.399 862.172 401.543 872.003C367.978 895.937 329.004 922.524 289.197 933.894C261.645 941.764 234.912 943.85 206.489 944.315C155.882 945.142 102.799 940.666 57.9772 915.013C41.5216 905.594 21.3393 891.364 15.5628 872.224C12.3021 861.421 17.1968 848.302 22.9092 839.108C45.0926 803.402 87.6291 779.002 122.064 756.805C139.636 745.295 157.29 733.91 175.024 722.65C181.941 718.328 192.343 712.512 198.619 708.171C195.075 708.166 188.633 708.341 185.334 707.923Z"/><path fill="#D1B3E3" d="M256.166 697.613C256.085 693.754 256.116 689.893 256.259 686.036C263.701 686.012 272.428 686.034 279.853 686.611C272.486 690.536 263.858 694.213 256.166 697.613Z"/><path fill="#D1B3E3" d="M196.729 703.635C197.949 702.864 196.816 703.517 197.907 702.994C214.869 694.88 224.252 688.934 244.106 688.294C244.047 693.122 244.068 698.283 243.92 703.085C234.975 703.788 224.292 703.568 215.215 703.703C210.71 703.771 200.691 704.016 196.729 703.635Z"/><path fill="#EDF6F9" d="M610.069 876.602C609.547 868.976 610.273 853.789 610.343 845.53C610.403 820.864 610.865 796.2 611.728 771.548C612.727 770.192 612.1 770.793 614.128 770.151C612.483 776.599 613.044 790.147 612.95 797.497C612.735 819.783 612.296 842.066 611.632 864.343C611.437 870.417 611.907 881.341 611.144 886.81C612.471 888.008 613.598 888.334 615.369 888.557C626.77 889.99 638.23 891.329 649.638 892.674L741.771 903.13L826.442 913.611C838.184 914.983 851.773 916.882 863.444 917.704C864.394 916.755 865.351 915.813 866.314 914.877L866.258 789.341C833.474 787.122 800.542 783.265 767.586 780.746L690.861 774.888C677.101 773.849 661.868 773.044 648.242 771.539C641.976 771.927 624.977 770.222 617.562 769.95C618.305 768.495 619.474 768.285 621.233 767.355C630.028 767.839 644.724 768.869 653.279 770.121C655.28 770.183 657.149 770.249 659.146 770.395C659.09 765.443 658.293 753.184 660.074 749.488C663.451 746.967 738.244 753.439 749.524 753.317C785.87 752.925 824.473 761.126 860.938 763.862C860.976 768.395 861.704 778.595 860.077 782.102C859.392 779.813 860.14 772.834 860.248 770.144C854.08 769.217 847.653 768.98 841.543 767.821C803.722 760.649 766.395 758.822 728.147 755.766L694.471 753.085C687.41 752.535 680.526 752.076 673.462 751.759C662.534 751.268 663.175 757.437 663.49 766.536L663.615 769.798C678.624 771.305 695.548 771.884 710.853 772.934C734.876 774.534 758.878 776.434 782.853 778.636C800.65 780.12 816.453 781.18 834.325 783.311C840.435 784.068 846.555 784.737 852.685 785.318C858.145 785.816 865.683 786.232 870.868 787.633C870.676 812.297 870.668 836.962 870.844 861.625L870.51 921.652C859.115 921.262 837.978 917.793 825.501 916.404C786.538 912.127 747.623 907.435 708.76 902.328L646.652 894.812C636.064 893.53 619.967 891.907 609.906 889.564C609.93 885.485 609.833 880.615 610.069 876.602Z"/><path fill="#EDF6F9" d="M667.518 766.461C667.545 762.432 667.295 759.108 669.226 755.49C680.096 755.148 699.648 757.654 711.366 758.416C759.885 761.569 808.272 768.053 856.499 774.024C856.522 776.427 856.472 778.831 856.35 781.231L855.696 781.728C843.04 780.747 829.873 778.67 816.994 777.61L667.518 766.461Z"/><path fill="#EDF6F9" d="M632.509 765.361C631.388 765.19 630.302 764.972 629.189 764.76C631.116 763.736 637.056 763.334 640.078 762.372C644.527 760.957 648.888 759.508 653.316 757.993C654.043 757.898 653.586 757.898 654.66 758.27C655.313 760.686 655.05 764.114 655.008 766.713C647.703 766.493 640.071 765.632 632.509 765.361Z"/><path fill="#EDF6F9" d="M614.819 884.731C614.433 874.842 615.148 864.352 615.3 854.443C615.624 833.421 616.075 812.421 616.003 791.394C615.983 785.636 615.792 778.713 616.492 773.113C663.719 776.185 711.152 780.552 758.4 783.923C793.163 786.403 827.604 790.428 862.499 792.572C862.723 833.172 862.721 873.773 862.492 914.373C834.336 911.439 806.21 908.224 778.118 904.728C778.299 878.182 777.775 847.626 778.918 821.43C785.313 821.584 794.705 822.761 801.254 823.365L832.185 825.953C837.33 826.413 850.408 827.949 854.757 827.161C856.245 824.2 855.658 800.048 855.457 795.361C846.903 793.724 836.314 794.638 827.531 793.528C826.52 793.401 825.136 793.922 824.311 794.495C822.741 798.253 823.366 816.113 823.396 821.314L771.124 816.585C766.808 816.392 762.096 816.065 757.788 815.595C728.511 812.396 698.832 811.684 669.677 807.903C661.221 806.807 653.008 805.419 644.526 804.777C647.708 801.874 649.641 800.065 651.074 795.804C652.314 792.114 652.03 788.082 650.284 784.602C645.877 775.996 633.666 772.935 625.39 777.214C618.614 781.034 620.94 788.008 621.013 794.218C620.631 799.235 622.97 806.252 629.226 806.565C647.914 807.501 666.015 810.259 684.444 813.452C684.546 822.435 684.171 833.694 683.712 842.669C680.614 821.526 660.728 808.898 640.636 818.331C633.226 821.77 627.544 828.089 624.909 835.822C621.996 844.291 622.553 853.567 626.457 861.627C630.251 869.279 636.926 875.112 645.017 877.847C651.991 880.146 661.877 879.622 668.325 876.102C677.296 871.206 680.656 863.416 683.575 854.361C683.264 867.214 682.658 880.274 682.688 893.109C661.245 889.818 636.664 887.551 614.819 884.731ZM817.517 831.045C798.683 834.121 785.854 851.813 788.784 870.671C791.714 889.529 809.305 902.494 828.185 899.711C847.274 896.897 860.414 879.069 857.452 860.003C854.489 840.936 836.56 827.935 817.517 831.045Z"/><path fill="#EDF6F9" d="M865.318 782.255L865.36 774.429C874.589 775.875 884.247 776.332 893.916 777.863L888.366 780.634L875.078 786.367C871.559 783.323 869.78 783.203 865.318 782.255Z"/><path fill="#EDF6F9" d="M641.39 801.445C637.397 802.288 634.952 801.883 631.064 801.228C630.195 802.466 630.588 802.235 629.411 802.954L628.847 802.416C631.758 796.701 626.16 786.622 627.484 780.334C627.638 779.599 628.259 779.579 629.238 779.114C646.745 777.461 654.788 794.198 641.39 801.445Z"/><path fill="#EDF6F9" d="M874.838 790.604C880.854 787.758 887.297 784.823 893.494 782.453C894.786 782.953 894.477 782.854 895.634 783.709C896.319 786.021 895.989 810.067 895.973 814.509L895.496 901.851C889.173 907.187 882.791 912.453 876.352 917.649C875.601 918.091 876.061 917.892 874.92 918.107C874.433 917.248 874.392 917.191 874.386 916.188L874.838 790.604Z"/><path fill="#EDF6F9" d="M827.489 821.518L827.417 796.967C835.485 797.638 843.81 798.087 851.906 798.62L851.92 823.468C843.772 822.879 835.628 822.229 827.489 821.518Z"/><path fill="#EDF6F9" d="M686.662 893.342C686.649 885.203 687.403 817.032 688.731 813.687C717.153 815.475 746.3 818.552 774.759 820.922L774.274 874.808C774.244 878.321 774.616 901.472 773.395 903.14C761.843 902.191 749.533 900.404 737.952 899.062L686.662 893.342ZM695.664 818.169C694.14 818.571 693.472 818.575 692.473 819.781C691.908 822.617 692.002 837.972 691.96 841.608C691.658 857.471 691.483 873.337 691.436 889.203C696.955 890.582 706.314 891.443 712.335 892.153C724.62 893.57 736.892 895.089 749.151 896.709C755.232 897.502 763.93 898.426 769.803 899.777C771.366 896.567 769.946 867.087 770.536 861.653C770.606 861.003 772.196 859.242 772.737 858.643L772.8 857.247C771.865 856.433 771.796 856.434 770.673 855.876C770.182 851.415 771.414 825.649 771.214 825.034C769.682 824.108 703.11 818.386 695.664 818.169Z"/><path fill="#088F80" d="M691.436 889.203C691.483 873.337 691.658 857.471 691.96 841.608C692.002 837.972 691.908 822.617 692.473 819.781C693.472 818.575 694.14 818.571 695.664 818.169C703.11 818.386 769.682 824.108 771.214 825.034C771.414 825.649 770.182 851.415 770.673 855.876C771.796 856.434 771.865 856.433 772.8 857.247L772.737 858.643C772.196 859.242 770.606 861.003 770.536 861.653C769.946 867.087 771.366 896.567 769.803 899.777C763.93 898.426 755.232 897.502 749.151 896.709C736.892 895.089 724.62 893.57 712.335 892.153C706.314 891.443 696.955 890.582 691.436 889.203ZM695.941 821.891L695.53 849.115C719.307 850.855 743.405 853.936 766.989 855.614L767.051 827.949C749.2 826.266 731.342 824.369 713.473 822.898C707.848 822.435 701.584 821.871 695.941 821.891ZM695.508 852.945C695.487 863.966 695.335 875.292 695.464 886.289L742.418 892.099C746.391 892.605 763.431 895.022 766.643 894.918C766.774 883.199 767.002 871.31 766.971 859.607C747.114 857.203 726.917 855.869 707.011 853.766C703.489 853.394 699.038 852.999 695.508 852.945Z"/><path fill="#EDF6F9" d="M655.207 874.67C640.077 875.482 627.139 863.906 626.27 848.779C625.401 833.652 636.928 820.67 652.052 819.744C667.257 818.813 680.323 830.416 681.196 845.624C682.07 860.832 670.418 873.854 655.207 874.67ZM649.993 834.217C642.995 836.041 638.763 843.15 640.495 850.17C642.228 857.191 649.281 861.515 656.324 859.874C660.961 858.793 664.659 855.301 666.002 850.733C667.345 846.164 666.127 841.226 662.813 837.807C659.498 834.388 654.601 833.017 649.993 834.217Z"/><path fill="#EDF6F9" d="M695.53 849.115L695.941 821.891C701.584 821.871 707.848 822.435 713.473 822.898C731.342 824.369 749.2 826.266 767.051 827.949L766.989 855.614C743.405 853.936 719.307 850.855 695.53 849.115Z"/><path fill="#088F80" d="M828.185 899.711C809.305 902.494 791.714 889.529 788.784 870.671C785.854 851.813 798.683 834.121 817.517 831.045C836.56 827.935 854.489 840.936 857.452 860.003C860.414 879.069 847.274 896.897 828.185 899.711ZM820.635 834.489C803.537 835.907 790.867 850.982 792.414 868.069C793.96 885.156 809.131 897.712 826.206 896.037C843.099 894.379 855.493 879.405 853.963 862.499C852.433 845.593 837.552 833.086 820.635 834.489Z"/><path fill="#088F80" d="M656.324 859.874C649.281 861.515 642.228 857.191 640.495 850.17C638.763 843.15 642.995 836.041 649.993 834.217C654.601 833.017 659.498 834.388 662.813 837.807C666.127 841.226 667.345 846.164 666.002 850.733C664.659 855.301 660.961 858.793 656.324 859.874ZM651.554 838.081C648.296 838.714 645.631 841.052 644.578 844.199C643.526 847.346 644.248 850.817 646.468 853.283C648.689 855.749 652.065 856.83 655.305 856.112C660.225 855.021 663.355 850.179 662.328 845.245C661.302 840.311 656.5 837.118 651.554 838.081Z"/><path fill="#EDF6F9" d="M826.206 896.037C809.131 897.712 793.96 885.156 792.414 868.069C790.867 850.982 803.537 835.907 820.635 834.489C837.552 833.086 852.433 845.593 853.963 862.499C855.493 879.405 843.099 894.379 826.206 896.037ZM821.246 851.256C813.525 852.944 808.619 860.555 810.273 868.284C811.926 876.013 819.516 880.952 827.252 879.333C835.037 877.703 840.013 870.055 838.349 862.278C836.686 854.501 829.016 849.558 821.246 851.256Z"/><path fill="#EDF6F9" d="M655.305 856.112C652.065 856.83 648.689 855.749 646.468 853.283C644.248 850.817 643.526 847.346 644.578 844.199C645.631 841.052 648.296 838.714 651.554 838.081C656.5 837.118 661.302 840.311 662.328 845.245C663.355 850.179 660.225 855.021 655.305 856.112Z"/><path fill="#088F80" d="M827.252 879.333C819.516 880.952 811.926 876.013 810.273 868.284C808.619 860.555 813.525 852.944 821.246 851.256C829.016 849.558 836.686 854.501 838.349 862.278C840.013 870.055 835.037 877.703 827.252 879.333ZM821.557 855.029C818.319 856.415 815.874 857.954 814.453 861.41C813.499 863.742 813.527 866.36 814.529 868.671C816.676 873.724 821.576 875.892 826.81 875.783C841.704 869.229 834.207 853.694 821.557 855.029Z"/><path fill="#EDF6F9" d="M695.464 886.289C695.335 875.292 695.487 863.966 695.508 852.945C699.038 852.999 703.489 853.394 707.011 853.766C726.917 855.869 747.114 857.203 766.971 859.607C767.002 871.31 766.774 883.199 766.643 894.918C763.431 895.022 746.391 892.605 742.418 892.099L695.464 886.289Z"/><path fill="#EDF6F9" d="M826.81 875.783C821.576 875.892 816.676 873.724 814.529 868.671C813.527 866.36 813.499 863.742 814.453 861.41C815.874 857.954 818.319 856.415 821.557 855.029C834.207 853.694 841.704 869.229 826.81 875.783Z"/></svg>