<?xml version="1.0" encoding="utf-8" ?><svg xmlns="http://www.w3.org/2000/svg" xmlns:xlink="http://www.w3.org/1999/xlink" width="1024" height="1024" viewBox="0 0 1024 1024"><path fill="#F8F6EE" d="M0 0L1024 0L1024 1024L0 1024L0 0ZM875.304 371.875C877.096 371.493 878.643 366.957 879.918 365.415C918.057 320.207 897.059 261.783 859.99 223.222C793.765 154.332 694.405 131.426 602.068 127.685C586.183 127.042 570.535 127.89 554.855 127.372C530.33 126.561 505.479 125.977 481.281 121.955C451.449 116.899 422.104 107.356 393.144 98.6986C367.546 90.0814 344.245 85.073 317.472 83.5183C261.216 80.2515 211.687 100.28 170.645 138.732C137.118 170.143 114.788 215.504 103.571 259.982C97.7218 283.172 95.9241 308.018 95.1537 332.022C92.6309 333.917 89.9521 335.227 89.6651 338.58C91.6534 340.13 94.1496 337.754 95.8742 336.495C97.3504 339.316 98.063 372.938 100.147 379.034C100.966 381.43 102.037 395.359 102.659 398.967C92.9279 400.453 69.7256 403.895 61.1939 407.8C60.241 408.973 60.4884 408.322 60.4032 409.812L61.0944 410.424C64.3185 411.001 67.5873 409.977 70.7026 409.102C85.1852 405.034 99.8673 403.21 114.811 401.864C144.492 399.286 174.379 400.485 203.758 405.434C256.155 413.824 309.139 425.351 359.942 440.663C389.448 449.556 418.854 459.639 448.655 467.494C504.068 481.743 561.207 488.143 618.399 486.506C633.916 486.056 650.084 483.985 665.666 483.298C708.218 481.419 751.478 476.275 793.268 467.975C823.373 461.996 853.209 450.025 883.544 443.744C897.26 440.904 908.122 438.254 922.343 437.975C927.787 437.866 933.234 437.911 938.677 438.11C944.495 438.36 952.35 439.418 958.16 439.318C958.817 439.307 959.044 438.632 959.519 437.939L959.078 436.894C953.69 433.441 931.921 433.896 925.058 433.847C915.576 423.129 905.55 412.774 895.906 402.195C888.427 393.992 881.246 385.588 873.666 377.473C873.936 375.224 874.523 373.96 875.304 371.875ZM889.918 453.91C882.639 449.835 866.288 450.616 858.68 452.806C849.117 455.559 787.136 478.424 784.937 481.743C768.835 485.37 750.134 488.665 733.672 489.347C722.623 489.805 710.085 489.028 698.939 488.656C686.962 488.26 674.977 488.209 662.998 488.503C605.582 489.908 545.514 503.1 491.593 522.193C497.302 524.67 516.617 528.154 524.682 530.452C549.946 537.601 574.672 546.533 598.672 557.181C598.437 557.356 598.202 557.53 597.966 557.704C583.799 564.096 568.998 569.315 555.074 576.352C529.78 589.136 505.32 602.927 485.042 623.067C473.253 634.776 462.967 646.877 454.006 660.897C451.821 664.315 449.638 668.625 447.211 671.739C438.84 660.632 431.804 652.599 419.681 645.875C420.996 633.586 424.564 618.823 427.099 606.55C436.532 600.214 442.548 592.826 444.978 581.353C445.588 577.822 446.08 569.946 444.522 566.807C440.765 559.242 442.491 553.361 442.74 544.789C443.268 526.569 442.411 510.933 431.851 495.461C407.202 459.346 347.434 462.957 329.157 503.44C324.96 512.716 323.182 522.128 321.087 531.991C319.656 538.732 317.629 545.467 316.412 552.155C311.848 555.586 309.039 559.016 307.259 564.426C303.259 576.589 303.565 596.802 318.169 601.283L320.947 605.115C335.83 609.828 337.251 612.279 347.944 599.288C347.51 601.794 347.024 603.33 346.299 605.738C336.462 612.746 324.151 621.231 318.097 631.645C313.576 626.098 308.528 618.615 301.859 615.176C294.799 611.536 281.931 619.745 284.052 627.765C285.134 631.856 288.889 638.049 291.002 642.098C293.662 647.32 296.263 652.573 298.804 657.854C273.462 659.918 264.505 686.29 256.976 707.035C246.576 735.694 237.501 769.12 244.779 799.396C248.602 815.301 265.08 825.531 278.446 833.116C273.126 846.841 268.112 861.216 263.017 875.1C252.856 880.852 244.866 886.328 235.279 892.94C216.024 873.622 205.047 854.286 194.545 829.336C191.385 821.829 188.218 815.132 185.955 807.193C225.127 792.924 216.407 760.542 220.13 726.119C221.299 715.309 222.583 702.407 223.158 691.704L222.407 690.914L221.278 691.253C218.895 693.452 218.319 695.959 218.033 699.118C217.247 707.807 216.533 716.526 215.976 725.231C209.899 728.923 206.097 735.649 201.873 741.465C207.902 722.36 209.037 709.704 204.577 689.949C202.189 679.371 200.93 672.863 204.202 662.171C204.911 659.852 207.361 649.792 203.41 649.695C202.712 650.259 201.782 651.153 201.656 652.071C200.609 659.726 199.174 667.309 197.724 674.899C195.68 676.946 194.634 678.342 192.909 680.606C194.121 674.886 195.4 669.065 195.708 663.174C196.38 650.313 192.954 637.298 195.149 624.49C195.622 621.726 196.719 620.42 195.794 617.614C194.461 616.356 195.204 616.6 193.588 616.602C191.224 619.053 192.182 626.736 191.004 629.082C188.724 633.623 185.616 637.012 182.804 641.831C184.365 634.813 189.977 592.912 188.532 588.964C187.09 587.934 187.871 588.178 186.114 588.186C184.411 589.831 184.524 593.671 182.649 596.616C180.396 600.153 177.973 603.248 175.459 606.575C180.024 591.38 181.481 581.273 179.467 565.441C179.007 561.823 181.21 551.83 176.623 550.494L175.701 551.032C173.941 554.507 175.769 560.439 175.461 566.028L175.403 567.003C174.269 568.837 173.045 571.057 171.242 572.144L170.371 571.418C170.772 553.348 169.156 534.723 169.171 516.604C168.889 516.232 168.607 515.86 168.325 515.489L167.336 515.512C165.352 517.112 165.991 516.337 165.077 518.83C165.611 522.648 165.555 527.886 165.627 531.843C166.815 546.386 166.649 559.381 166.401 574.027C165.721 578.103 158.019 584.382 155.253 589.038C151.744 594.945 151.178 596.076 149.394 602.847C149.23 602.253 148.999 601.426 148.894 600.807C145.556 581.041 139.448 557.206 147.772 538.173C149.418 534.407 152.834 530.975 154.902 527.673L155.405 526.855C155.297 526.223 155.383 525.312 155.405 524.629C157.772 526.772 161.182 526.65 163.764 524.961C164.682 523.346 164.53 524.186 164.242 522.356C162.899 515.972 161.737 485.328 159.481 482.847C158.736 482.982 157.934 482.934 157.876 483.461C156.823 493.002 159.717 511.717 160.079 521.147C158.8 521.956 156.591 523.254 155.458 524.119C153.399 520.744 153.278 508.44 151.978 504.429C150.466 499.764 148.208 475.295 146.501 473.521L145.503 473.643C144.737 474.749 143.804 476.335 143.955 477.741C145.681 493.86 149.783 509.613 151.072 525.768C145.668 533.283 143.337 537.451 141.855 546.799C140.421 532.484 139.587 518.072 137.878 503.795C136.926 495.849 129.718 449.02 125.757 445.652C125.637 445.55 125.493 445.483 125.36 445.398C124.334 446.184 124.27 446.758 124.09 447.981C123.84 449.691 131.927 488.534 132.76 493.612C134.662 505.207 135.834 516.966 136.93 528.66C137.57 535.484 137.853 542.394 139.088 549.143C133.737 542.491 129.825 538.903 122.517 534.259C119.059 532.063 115.058 529.647 112.027 526.94C110.161 517.817 107.241 501.1 103.283 493.464L103.505 493.846L102.013 493.277C100.588 497.8 102.494 503.064 103.855 507.506C108.515 522.712 108.788 538.439 111.815 553.756C113.414 561.844 116.643 572.377 119.607 580.019L113.209 576.617C111.119 571.772 109.115 566.701 107.09 561.837C106.711 560.927 105.759 560.617 104.939 560.26C100.974 562.688 110.507 578.155 111.919 582.16C115.933 593.545 120.206 604.821 124.73 616.013C121.353 614.466 119.13 613.657 115.595 612.465C113.169 607.247 106.244 589.531 103.357 587.061L102.448 587.072C99.9883 591.979 109.571 607.685 111.45 613.417C116.228 627.997 122.778 642.478 127.445 657.03C121.425 647.935 117.143 637.451 113.601 627.17C113.229 626.09 112.272 625.831 111.345 625.62C106.275 629.592 120.557 649.215 120.393 653.266C119.871 666.189 123.866 676.019 128.278 687.903C128.995 689.836 132.985 698.491 132.607 699.715C127.6 697.111 118.587 659.431 112.639 658.214C108.693 661.031 127.431 694.015 124.771 696.371C123.372 696.57 121.945 696.535 121.035 697.782C118.737 700.932 121.479 713.699 122.127 716.918C124.95 730.935 130.217 745.252 139.194 756.461C135.327 755.966 133.706 755.376 130.55 757.845C130.261 758.073 129.974 758.304 129.689 758.538C126.516 755.605 123.127 739.045 118.687 736.881L117.436 737.091C115.768 740.519 119.281 745.013 120.64 748.19C131.674 773.99 143.571 822.694 182.473 809.1C195.219 845.532 205.855 867.459 232.086 895.487C218.232 904.671 206.278 916.329 195.71 929.104C193.415 931.879 188.548 936.412 188.967 940.159C190.137 941.404 189.449 941.103 191.034 941.231C194.356 938.872 198.98 931.472 202.328 927.64C209.714 919.073 217.91 911.239 226.803 904.248C258.48 879.305 294.853 860.992 333.755 850.4C340.858 848.455 348.458 846.487 355.612 844.724C362.452 843.038 370.403 842.025 377.143 839.687C374.977 884.713 382.105 927.086 421.406 955.645C442.839 971.409 471.697 971.083 496.791 967.025C562.267 956.435 612.897 912.644 671.669 886.22C700.506 873.597 731.272 869.504 761.993 863.949C824.627 852.625 895.579 821.526 933.235 768.163C967.702 719.319 979.9 642.11 969.992 583.438C971.41 581.106 970.729 580.641 969.762 578.398C968.532 577.3 966.725 563.906 966.044 561.236C961.791 544.548 956.643 530.363 949.743 514.755C952.593 513.704 958.736 511.899 959.654 508.794L958.779 508.15C954.083 507.812 951.689 509.408 947.319 511.338C940.628 497.555 934.259 487.207 924.459 475.531C933.633 474.828 942.932 474.126 952.126 474.918C954.603 475.131 956.698 476.085 958.912 474.934C959.706 473.198 959.708 474.009 959.279 472.446C955.075 469.49 927.571 471.475 921.024 472.066C916.166 467.921 904.692 460.791 898.834 457.714C897.67 457.103 898.201 457.672 897.555 456.604C912.568 453.408 927.114 453.004 942.399 453.505C945.834 453.618 956.901 456.449 957.881 452.28C955.368 450.012 949.729 450.289 946.424 449.988C926.655 448.186 909.391 450.485 889.918 453.91ZM113.023 463.658C112.21 464.825 111.546 465.328 111.695 466.863C112.827 478.588 115.081 490.779 117.019 502.409C117.426 504.849 119.33 516.796 120.219 518.075L122.604 519.017C123.298 517.969 123.717 517.698 123.466 516.292C120.517 499.816 117.457 483.384 115.003 466.814C114.735 465.006 114.35 464.668 113.023 463.658ZM155.206 863.649C150.152 872.559 144.124 880.879 137.234 888.459C121.882 905.401 104.198 919.667 87.6967 935.364C86.4559 936.545 86.3087 937.434 86.4077 939.021C87.6152 940.272 86.8861 939.828 88.7945 940.164C100.334 929.514 158.146 878.492 157.903 865.765C157.887 864.968 157.409 864.707 156.916 864.149L155.206 863.649Z"/><path fill="#B7D5DC" d="M745.04 226.233C742.214 224.562 734.851 225.201 731.346 224.863C668.624 218.807 617.235 242.494 584.499 297.982C583.408 299.834 582.328 301.692 581.258 303.556C562.597 283.124 543.078 260.912 518.628 247.403C509.143 242.162 499.843 242.105 492.082 250.469C465.017 279.636 433.368 303.451 403.23 329.286C370.578 303.254 338.582 276.935 306.688 250.024C289.559 235.571 273.5 214.708 248.703 217.844C223.624 221.477 200.084 244.846 181.635 261.012C166.3 274.249 150.853 287.358 135.297 300.336C124.394 309.513 106.944 324.517 95.1537 332.022C95.9241 308.018 97.7218 283.172 103.571 259.982C114.788 215.504 137.118 170.143 170.645 138.732C211.687 100.28 261.216 80.2515 317.472 83.5183C344.245 85.073 367.546 90.0814 393.144 98.6986C422.104 107.356 451.449 116.899 481.281 121.955C505.479 125.977 530.33 126.561 554.855 127.372C570.535 127.89 586.183 127.042 602.068 127.685C694.405 131.426 793.765 154.332 859.99 223.222C897.059 261.783 918.057 320.207 879.918 365.415C878.643 366.957 877.096 371.493 875.304 371.875C877.126 354.3 869.817 333.111 862.039 317.346C842.772 278.296 808.966 248.562 767.849 234.329C764.882 233.302 764.418 233.08 761.991 234.318C757.319 227.827 753.523 220.124 745.04 226.233Z"/><path fill="#33332F" d="M745.04 226.233C753.523 220.124 757.319 227.827 761.991 234.318C792.554 274.45 822.032 315.311 854.108 354.319C860.737 362.38 866.142 370.06 873.666 377.473C881.246 385.588 888.427 393.992 895.906 402.195C905.55 412.774 915.576 423.129 925.058 433.847C931.921 433.896 953.69 433.441 959.078 436.894L959.519 437.939C959.044 438.632 958.817 439.307 958.16 439.318C952.35 439.418 944.495 438.36 938.677 438.11C933.234 437.911 927.787 437.866 922.343 437.975C908.122 438.254 897.26 440.904 883.544 443.744C853.209 450.025 823.373 461.996 793.268 467.975C751.478 476.275 708.218 481.419 665.666 483.298C650.084 483.985 633.916 486.056 618.399 486.506C561.207 488.143 504.068 481.743 448.655 467.494C418.854 459.639 389.448 449.556 359.942 440.663C309.139 425.351 256.155 413.824 203.758 405.434C174.379 400.485 144.492 399.286 114.811 401.864C99.8673 403.21 85.1852 405.034 70.7026 409.102C67.5873 409.977 64.3185 411.001 61.0944 410.424L60.4032 409.812C60.4884 408.322 60.241 408.973 61.1939 407.8C69.7256 403.895 92.9279 400.453 102.659 398.967C120.28 397.228 136.432 396.068 154.14 396.574C199.388 397.865 242.195 408.546 286.145 416.837C304.941 405.22 326.654 390.953 344.211 377.806C331.69 363.255 324.003 352.353 318.745 333.538C315.884 323.299 313.74 312.905 307.987 303.951C304 297.746 296.465 291.277 290.585 286.833C265.078 267.551 254.592 253.105 247.552 221.934C220.531 227.486 193.041 256.889 172.178 274.356C146.848 295.563 122.621 316.937 95.8742 336.495C94.1496 337.754 91.6534 340.13 89.6651 338.58C89.9521 335.227 92.6309 333.917 95.1537 332.022C106.944 324.517 124.394 309.513 135.297 300.336C150.853 287.358 166.3 274.249 181.635 261.012C200.084 244.846 223.624 221.477 248.703 217.844C273.5 214.708 289.559 235.571 306.688 250.024C338.582 276.935 370.578 303.254 403.23 329.286C433.368 303.451 465.017 279.636 492.082 250.469C499.843 242.105 509.143 242.162 518.628 247.403C543.078 260.912 562.597 283.124 581.258 303.556C586.082 309.489 592.735 316.546 597.864 322.484C606.218 332.295 614.507 342.161 622.731 352.081L703.051 269.564C717.053 255.082 730.71 240.408 745.04 226.233ZM578.718 306.559C561.624 287.374 533.205 255.43 508.53 247.838C512.959 269.763 519.152 304.728 537.221 318.446C556.443 333.039 561.356 337.066 564.058 361.248C563.814 367.939 563.657 374.997 563.198 381.642C560.459 370.786 561.536 355.409 557.356 345.514C549.734 327.473 526.343 321.816 519.003 301.559C514.102 288.032 511.036 275.184 507.767 261.225C506.812 257.62 505.73 251.012 503.643 248.396C499.261 247.868 488.959 259.586 485.825 262.769C480.54 268.139 475.508 273.256 469.811 278.234C437.341 306.63 404.433 334.523 371.101 361.903C355.529 374.671 339.337 386.662 322.582 397.831C312.881 404.375 301.204 411.259 292.212 418.4C301.101 420.411 309.986 422.584 318.828 424.793C366.374 436.676 412.199 454.001 459.811 465.882C496.771 474.742 534.46 480.22 572.413 482.246C601.338 483.544 630.592 482.35 659.41 480.025C661.46 479.86 668.579 479.628 670.06 479.105C682.821 478.961 700.605 477.072 713.221 475.705C746.813 472.064 781.244 467.563 813.954 458.999C826.206 455.791 837.584 451.937 849.652 448.35C862.979 444.41 876.459 441.008 890.06 438.153C880.262 423.336 857.297 412.687 842.078 403.305C825.98 391.771 816.452 380.941 808.844 362.574C806.325 356.491 801.882 348.384 797.864 343.114C790.386 333.309 777.011 331.557 767.587 323.965C752.833 312.08 750.734 291.759 747.238 274.369C744.366 259.129 744.587 244.997 747.669 229.804C742.983 232.935 732.558 244.389 728.003 249.164L698.041 280.353L645.564 333.962C618.991 361.477 595.387 386.461 567.701 413.055C552.611 426.232 530.383 445.662 511.629 454.746C510.929 455.086 510.79 454.788 510.053 454.319L510.07 453.066C511.259 451.011 518.637 446.17 521.067 444.621C537.47 434.157 551.822 421.963 566.266 408.9C584.767 391.671 602.639 373.778 619.848 355.258C608.247 339.719 591.659 321.331 578.718 306.559ZM868.329 377.823C860.803 369.425 854.339 360.972 847.331 352.182C831.269 332.033 815.656 311.551 799.756 291.282C784.966 272.428 771.719 252.585 756.721 233.891C755.08 231.859 753.463 229.924 751.609 228.077C749.982 235.213 749.155 242.507 749.142 249.826C749.023 266.677 753.468 297.336 762.444 312.15C771.579 327.227 787.865 326.96 799.202 338.446C802.555 341.843 807.552 350.823 809.569 355.199C818.368 374.288 825.513 387.533 843.755 399.366C861.189 410.535 882.687 419.578 894.876 436.971C903.873 435.482 910.635 434.727 919.67 434.036C914.449 427.566 908.408 421.743 902.789 415.598L868.329 377.823ZM251.669 221.587C253.742 235.145 259.325 247.296 266.895 258.678C278.981 276.852 300.199 284.499 311.976 302.574C317.446 310.971 319.31 321.043 322.024 330.506C326.028 345.991 336.023 364.11 347.467 375.401C357.593 367.873 367.493 360.044 377.151 351.924C384.885 345.443 392.484 338.804 399.944 332.01L311.206 259.068C305.716 254.582 300.345 249.951 295.099 245.182C281.739 232.936 271.221 221.418 251.669 221.587Z"/><path fill="#B7D5DC" d="M347.467 375.401C336.023 364.11 326.028 345.991 322.024 330.506C319.31 321.043 317.446 310.971 311.976 302.574C300.199 284.499 278.981 276.852 266.895 258.678C259.325 247.296 253.742 235.145 251.669 221.587C271.221 221.418 281.739 232.936 295.099 245.182C300.345 249.951 305.716 254.582 311.206 259.068L399.944 332.01C392.484 338.804 384.885 345.443 377.151 351.924C367.493 360.044 357.593 367.873 347.467 375.401Z"/><path fill="#B7D5DC" d="M95.8742 336.495C122.621 316.937 146.848 295.563 172.178 274.356C193.041 256.889 220.531 227.486 247.552 221.934C254.592 253.105 265.078 267.551 290.585 286.833C296.465 291.277 304 297.746 307.987 303.951C313.74 312.905 315.884 323.299 318.745 333.538C324.003 352.353 331.69 363.255 344.211 377.806C326.654 390.953 304.941 405.22 286.145 416.837C242.195 408.546 199.388 397.865 154.14 396.574C136.432 396.068 120.28 397.228 102.659 398.967C102.037 395.359 100.966 381.43 100.147 379.034C98.063 372.938 97.3504 339.316 95.8742 336.495Z"/><path fill="#FEE5A7" d="M581.258 303.556C582.328 301.692 583.408 299.834 584.499 297.982C617.235 242.494 668.624 218.807 731.346 224.863C734.851 225.201 742.214 224.562 745.04 226.233C730.71 240.408 717.053 255.082 703.051 269.564L622.731 352.081C614.507 342.161 606.218 332.295 597.864 322.484C592.735 316.546 586.082 309.489 581.258 303.556Z"/><path fill="#FEE5A7" d="M868.329 377.823C859.76 386.704 854.037 392.185 843.755 399.366C825.513 387.533 818.368 374.288 809.569 355.199C807.552 350.823 802.555 341.843 799.202 338.446C787.865 326.96 771.579 327.227 762.444 312.15C753.468 297.336 749.023 266.677 749.142 249.826C749.155 242.507 749.982 235.213 751.609 228.077C753.463 229.924 755.08 231.859 756.721 233.891C771.719 252.585 784.966 272.428 799.756 291.282C815.656 311.551 831.269 332.033 847.331 352.182C854.339 360.972 860.803 369.425 868.329 377.823Z"/><path fill="#FEE5A7" d="M842.078 403.305C831.871 408.132 821.78 417.212 811.692 423.103C777.277 443.198 742.093 463.72 702.693 472.147C696.54 473.463 690.229 475.827 683.962 476.763C679.075 477.357 670.775 476.59 665.143 476.685C629.115 476.055 590.707 457.303 573.87 424.489C571.998 420.839 570.162 417.111 568.039 413.606L567.701 413.055C595.387 386.461 618.991 361.477 645.564 333.962L698.041 280.353L728.003 249.164C732.558 244.389 742.983 232.935 747.669 229.804C744.587 244.997 744.366 259.129 747.238 274.369C750.734 291.759 752.833 312.08 767.587 323.965C777.011 331.557 790.386 333.309 797.864 343.114C801.882 348.384 806.325 356.491 808.844 362.574C816.452 380.941 825.98 391.771 842.078 403.305Z"/><path fill="#FEE5A7" d="M761.991 234.318C764.418 233.08 764.882 233.302 767.849 234.329C808.966 248.562 842.772 278.296 862.039 317.346C869.817 333.111 877.126 354.3 875.304 371.875C874.523 373.96 873.936 375.224 873.666 377.473C866.142 370.06 860.737 362.38 854.108 354.319C822.032 315.311 792.554 274.45 761.991 234.318Z"/><path fill="#B7D5DC" d="M292.212 418.4C301.204 411.259 312.881 404.375 322.582 397.831C339.337 386.662 355.529 374.671 371.101 361.903C404.433 334.523 437.341 306.63 469.811 278.234C475.508 273.256 480.54 268.139 485.825 262.769C488.959 259.586 499.261 247.868 503.643 248.396C505.73 251.012 506.812 257.62 507.767 261.225C511.036 275.184 514.102 288.032 519.003 301.559C526.343 321.816 549.734 327.473 557.356 345.514C561.536 355.409 560.459 370.786 563.198 381.642C564.133 390.628 563.438 400.101 566.266 408.9C551.822 421.963 537.47 434.157 521.067 444.621C518.637 446.17 511.259 451.011 510.07 453.066L510.053 454.319C510.79 454.788 510.929 455.086 511.629 454.746C530.383 445.662 552.611 426.232 567.701 413.055L568.039 413.606C570.162 417.111 571.998 420.839 573.87 424.489C590.707 457.303 629.115 476.055 665.143 476.685C668.25 478.835 673.739 476.535 677.202 477.902C676.024 478.202 671.734 478.387 669.901 478.631L670.06 479.105C668.579 479.628 661.46 479.86 659.41 480.025C630.592 482.35 601.338 483.544 572.413 482.246C534.46 480.22 496.771 474.742 459.811 465.882C412.199 454.001 366.374 436.676 318.828 424.793C309.986 422.584 301.101 420.411 292.212 418.4Z"/><path fill="#B7D5DC" d="M578.718 306.559C571.818 322.384 568.046 337.922 565.978 354.969C565.691 357.333 565.754 359.535 564.058 361.248C561.356 337.066 556.443 333.039 537.221 318.446C519.152 304.728 512.959 269.763 508.53 247.838C533.205 255.43 561.624 287.374 578.718 306.559Z"/><path fill="#FEE5A7" d="M564.058 361.248C565.754 359.535 565.691 357.333 565.978 354.969C568.046 337.922 571.818 322.384 578.718 306.559C591.659 321.331 608.247 339.719 619.848 355.258C602.639 373.778 584.767 391.671 566.266 408.9C563.438 400.101 564.133 390.628 563.198 381.642C563.657 374.997 563.814 367.939 564.058 361.248Z"/><path fill="#F8F6EE" d="M843.755 399.366C854.037 392.185 859.76 386.704 868.329 377.823L902.789 415.598C908.408 421.743 914.449 427.566 919.67 434.036C910.635 434.727 903.873 435.482 894.876 436.971C882.687 419.578 861.189 410.535 843.755 399.366Z"/><path fill="#F8F6EE" d="M665.143 476.685C670.775 476.59 679.075 477.357 683.962 476.763C690.229 475.827 696.54 473.463 702.693 472.147C742.093 463.72 777.277 443.198 811.692 423.103C821.78 417.212 831.871 408.132 842.078 403.305C857.297 412.687 880.262 423.336 890.06 438.153C876.459 441.008 862.979 444.41 849.652 448.35C837.584 451.937 826.206 455.791 813.954 458.999C781.244 467.563 746.813 472.064 713.221 475.705C700.605 477.072 682.821 478.961 670.06 479.105L669.901 478.631C671.734 478.387 676.024 478.202 677.202 477.902C673.739 476.535 668.25 478.835 665.143 476.685Z"/><path fill="#33332F" d="M784.937 481.743C790.063 481.255 797.672 479.407 802.782 478.299C818.906 474.804 834.523 469.73 850.276 464.887C863.395 460.894 876.614 457.234 889.918 453.91C909.391 450.485 926.655 448.186 946.424 449.988C949.729 450.289 955.368 450.012 957.881 452.28C956.901 456.449 945.834 453.618 942.399 453.505C927.114 453.004 912.568 453.408 897.555 456.604C868.455 461.538 841.417 473.033 813.273 479.834C799.84 483.038 786.323 485.877 772.736 488.346C769.925 488.867 756.122 490.744 754.451 491.431C748.664 492.032 736.858 493.424 731.457 493.362C707.665 493.085 685.317 491.722 661.417 492.604C615.701 494.291 573.769 502.209 529.753 513.75C521.051 516.032 512.643 519.327 504.307 521.592C515.744 524.413 524.991 526.559 536.511 529.907C599.273 512.169 647.742 507.532 712.514 507.699C718.784 508.458 733.694 507.881 740.435 507.769C768.285 507.304 795.616 502.433 822.489 495.303C837.294 491.375 851.894 486.627 866.728 482.615C884.521 477.678 902.677 474.151 921.024 472.066C927.571 471.475 955.075 469.49 959.279 472.446C959.708 474.009 959.706 473.198 958.912 474.934C956.698 476.085 954.603 475.131 952.126 474.918C942.932 474.126 933.633 474.828 924.459 475.531C906.562 477.656 889.778 480.425 872.325 485.084C860.092 488.35 848.152 492.14 836.003 495.611C822.138 499.565 808.114 502.939 793.968 505.724C777.157 508.974 760.114 510.877 743.001 511.415C729.647 511.858 716.174 511.504 702.991 511.947C647.084 510.885 597.46 516.697 543.802 532.441C566.014 538.028 583.791 547.319 604.314 555.398C619.777 562.267 635.125 569.391 650.352 576.767C681.645 558.838 719.419 547.712 755.088 543.319C777.573 540.549 799.718 540.353 822.252 539.071C845.322 537.886 868.273 534.994 890.917 530.42C912.326 525.898 927.551 519.931 947.319 511.338C951.689 509.408 954.083 507.812 958.779 508.15L959.654 508.794C958.736 511.899 952.593 513.704 949.743 514.755C940.921 518.305 931.705 522.141 922.779 525.305C893.469 535.693 861.526 540.226 830.569 542.091C798.308 544.034 767.067 543.786 735.066 549.964C705.309 555.709 681.407 565.492 654.231 578.595L705.715 605.172C724.357 614.974 745.249 626.073 765.078 633.311C789.885 628.759 810.998 624.401 836.204 620.784C848.423 619.029 860.682 617.568 872.971 616.401C895.488 614.176 915.854 613.581 936.766 603.49C946.478 598.804 953.475 593.448 961.414 586.127C963.547 584.159 967.784 579.91 969.762 578.398C970.729 580.641 971.41 581.106 969.992 583.438C956.697 596.623 942.792 606.873 924.589 612.444C899.962 619.981 873.456 618.987 848.122 622.611C796.718 629.964 744.594 638.472 696.184 657.825C649.029 676.676 609.283 706.214 571.363 739.371C553.214 755.09 530.941 774.307 510.859 787.12C491.099 799.728 460.379 810.25 438.19 819.16C421.93 825.689 394.126 836.313 377.143 839.687C370.403 842.025 362.452 843.038 355.612 844.724C348.458 846.487 340.858 848.455 333.755 850.4C294.853 860.992 258.48 879.305 226.803 904.248C217.91 911.239 209.714 919.073 202.328 927.64C198.98 931.472 194.356 938.872 191.034 941.231C189.449 941.103 190.137 941.404 188.967 940.159C188.548 936.412 193.415 931.879 195.71 929.104C206.278 916.329 218.232 904.671 232.086 895.487C205.855 867.459 195.219 845.532 182.473 809.1C143.571 822.694 131.674 773.99 120.64 748.19C119.281 745.013 115.768 740.519 117.436 737.091L118.687 736.881C123.127 739.045 126.516 755.605 129.689 758.538C129.974 758.304 130.261 758.073 130.55 757.845C133.706 755.376 135.327 755.966 139.194 756.461C130.217 745.252 124.95 730.935 122.127 716.918C121.479 713.699 118.737 700.932 121.035 697.782C121.945 696.535 123.372 696.57 124.771 696.371C127.431 694.015 108.693 661.031 112.639 658.214C118.587 659.431 127.6 697.111 132.607 699.715C132.985 698.491 128.995 689.836 128.278 687.903C123.866 676.019 119.871 666.189 120.393 653.266C120.557 649.215 106.275 629.592 111.345 625.62C112.272 625.831 113.229 626.09 113.601 627.17C117.143 637.451 121.425 647.935 127.445 657.03C122.778 642.478 116.228 627.997 111.45 613.417C109.571 607.685 99.9883 591.979 102.448 587.072L103.357 587.061C106.244 589.531 113.169 607.247 115.595 612.465C119.13 613.657 121.353 614.466 124.73 616.013C120.206 604.821 115.933 593.545 111.919 582.16C110.507 578.155 100.974 562.688 104.939 560.26C105.759 560.617 106.711 560.927 107.09 561.837C109.115 566.701 111.119 571.772 113.209 576.617L119.607 580.019C116.643 572.377 113.414 561.844 111.815 553.756C108.788 538.439 108.515 522.712 103.855 507.506C102.494 503.064 100.588 497.8 102.013 493.277L103.505 493.846L103.283 493.464C107.241 501.1 110.161 517.817 112.027 526.94C115.058 529.647 119.059 532.063 122.517 534.259C129.825 538.903 133.737 542.491 139.088 549.143C137.853 542.394 137.57 535.484 136.93 528.66C135.834 516.966 134.662 505.207 132.76 493.612C131.927 488.534 123.84 449.691 124.09 447.981C124.27 446.758 124.334 446.184 125.36 445.398C125.493 445.483 125.637 445.55 125.757 445.652C129.718 449.02 136.926 495.849 137.878 503.795C139.587 518.072 140.421 532.484 141.855 546.799C143.337 537.451 145.668 533.283 151.072 525.768C149.783 509.613 145.681 493.86 143.955 477.741C143.804 476.335 144.737 474.749 145.503 473.643L146.501 473.521C148.208 475.295 150.466 499.764 151.978 504.429C153.278 508.44 153.399 520.744 155.458 524.119C156.591 523.254 158.8 521.956 160.079 521.147C159.717 511.717 156.823 493.002 157.876 483.461C157.934 482.934 158.736 482.982 159.481 482.847C161.737 485.328 162.899 515.972 164.242 522.356C164.53 524.186 164.682 523.346 163.764 524.961C161.182 526.65 157.772 526.772 155.405 524.629C155.383 525.312 155.297 526.223 155.405 526.855L154.902 527.673C152.834 530.975 149.418 534.407 147.772 538.173C139.448 557.206 145.556 581.041 148.894 600.807C148.999 601.426 149.23 602.253 149.394 602.847C151.178 596.076 151.744 594.945 155.253 589.038C158.019 584.382 165.721 578.103 166.401 574.027C166.649 559.381 166.815 546.386 165.627 531.843C165.555 527.886 165.611 522.648 165.077 518.83C165.991 516.337 165.352 517.112 167.336 515.512L168.325 515.489C168.607 515.86 168.889 516.232 169.171 516.604C169.156 534.723 170.772 553.348 170.371 571.418L171.242 572.144C173.045 571.057 174.269 568.837 175.403 567.003L175.461 566.028C175.769 560.439 173.941 554.507 175.701 551.032L176.623 550.494C181.21 551.83 179.007 561.823 179.467 565.441C181.481 581.273 180.024 591.38 175.459 606.575C177.973 603.248 180.396 600.153 182.649 596.616C184.524 593.671 184.411 589.831 186.114 588.186C187.871 588.178 187.09 587.934 188.532 588.964C189.977 592.912 184.365 634.813 182.804 641.831C185.616 637.012 188.724 633.623 191.004 629.082C192.182 626.736 191.224 619.053 193.588 616.602C195.204 616.6 194.461 616.356 195.794 617.614C196.719 620.42 195.622 621.726 195.149 624.49C192.954 637.298 196.38 650.313 195.708 663.174C195.4 669.065 194.121 674.886 192.909 680.606C194.634 678.342 195.68 676.946 197.724 674.899C199.174 667.309 200.609 659.726 201.656 652.071C201.782 651.153 202.712 650.259 203.41 649.695C207.361 649.792 204.911 659.852 204.202 662.171C200.93 672.863 202.189 679.371 204.577 689.949C209.037 709.704 207.902 722.36 201.873 741.465C206.097 735.649 209.899 728.923 215.976 725.231C216.533 716.526 217.247 707.807 218.033 699.118C218.319 695.959 218.895 693.452 221.278 691.253L222.407 690.914L223.158 691.704C222.583 702.407 221.299 715.309 220.13 726.119C216.407 760.542 225.127 792.924 185.955 807.193C188.218 815.132 191.385 821.829 194.545 829.336C205.047 854.286 216.024 873.622 235.279 892.94C244.866 886.328 252.856 880.852 263.017 875.1C268.112 861.216 273.126 846.841 278.446 833.116C265.08 825.531 248.602 815.301 244.779 799.396C237.501 769.12 246.576 735.694 256.976 707.035C264.505 686.29 273.462 659.918 298.804 657.854C296.263 652.573 293.662 647.32 291.002 642.098C288.889 638.049 285.134 631.856 284.052 627.765C281.931 619.745 294.799 611.536 301.859 615.176C308.528 618.615 313.576 626.098 318.097 631.645C324.151 621.231 336.462 612.746 346.299 605.738C347.024 603.33 347.51 601.794 347.944 599.288C337.251 612.279 335.83 609.828 320.947 605.115L318.169 601.283C303.565 596.802 303.259 576.589 307.259 564.426C309.039 559.016 311.848 555.586 316.412 552.155C317.629 545.467 319.656 538.732 321.087 531.991C323.182 522.128 324.96 512.716 329.157 503.44C347.434 462.957 407.202 459.346 431.851 495.461C442.411 510.933 443.268 526.569 442.74 544.789C442.491 553.361 440.765 559.242 444.522 566.807C446.08 569.946 445.588 577.822 444.978 581.353C442.548 592.826 436.532 600.214 427.099 606.55C424.564 618.823 420.996 633.586 419.681 645.875C431.804 652.599 438.84 660.632 447.211 671.739C456.425 685.26 459.969 695.122 465.799 710.111C476.263 737.015 497.949 765.039 487.036 794.994C514.696 786.42 562.886 741.111 586.02 722.317C601.015 710.136 614.534 699.004 631.107 688.121C659.938 669.249 691.215 654.41 724.069 644.017C735.312 640.473 747.222 638.086 757.706 634.742L758.257 634.563C749.089 630.571 738.867 626.477 730.045 621.921C686.688 599.529 643.5 576.533 598.672 557.181C574.672 546.533 549.946 537.601 524.682 530.452C516.617 528.154 497.302 524.67 491.593 522.193C545.514 503.1 605.582 489.908 662.998 488.503C674.977 488.209 686.962 488.26 698.939 488.656C710.085 489.028 722.623 489.805 733.672 489.347C750.134 488.665 768.835 485.37 784.937 481.743ZM424.119 517.168C419.659 505.49 413.74 497.294 401.957 491.921C391.233 487.031 375.868 487.729 365.046 492.085C354.175 496.424 345.481 504.916 340.888 515.682C340.202 517.368 339.56 519.072 338.964 520.792C337.637 525.184 332.431 542.569 335.848 545.648C336.652 545.567 337.805 545.491 338.152 544.667C342.716 533.849 346.043 528.541 355.459 520.713C374.682 508.113 395.613 507.955 415.348 519.802C419.733 522.697 423.325 525.714 427.105 529.332C426.208 524.613 425.528 521.753 424.119 517.168ZM438.091 559.616C439.763 536.709 440.675 510.99 424.494 492.853C404.888 470.876 367.746 467.958 345.771 488.094C327.665 504.058 326.738 528.254 321.313 550.382C321.011 551.614 321.344 552.308 321.878 553.352C324.423 553.793 327.898 550.066 329.791 548.459C332.445 528.367 334.125 507.888 351.824 494.816C371.704 480.134 405.014 480.39 420.584 501.427C429.583 513.587 433.587 534.503 431.844 549.33C434.73 553.605 435.334 554.753 436.22 559.963L436.59 562.039C436.826 576.75 434.12 586.537 428.558 600.263C441.63 587.176 439.843 576.564 438.091 559.616ZM445.395 675.96C434.387 660.286 422.791 650.321 405.469 642.176C402.413 640.74 397.6 638.331 394.458 637.704L393.844 637.952C394.034 641.114 395.225 643.223 393.653 646.234C390.703 651.886 384.851 668.651 379.009 670.487C377.481 670.148 377.253 670.098 376.107 668.856C369.082 661.245 362.875 652.856 356.199 644.93C351.735 639.632 347.368 634.833 344.297 628.564C344.928 622.578 345.408 617.45 345.629 611.406C335.716 618.067 336.888 619.239 332.591 629.91C329.158 630.8 322.643 632.185 319.659 633.342C325.781 642.679 332.061 648.881 338.722 657.343C350.805 672.69 364.749 687.835 376.814 702.964C395.225 703.014 412.863 704.894 427.915 716.918C437.983 726.617 436.316 736.671 443.176 747.735C444.681 750.164 447.62 753.527 450.602 754.149C450.093 750.373 440.9 744.77 443.646 740.31C444.929 739.661 447.359 738.924 448.647 739.67C469.598 751.798 478.412 778.716 473.523 800.731C476.428 799.595 478.682 798.39 481.445 796.956C483.22 793.478 485.199 789.115 485.757 785.123C489.056 761.523 471.483 734.167 462.711 713.128C456.919 699.237 453.993 688.461 445.395 675.96ZM425.483 720.103C414.511 710.239 394.277 706.659 380.021 706.397C391.522 721.182 403.126 729.493 415.449 743.359C425.072 756.756 428.989 773.507 420.944 788.493C422.077 789.917 423.068 790.742 423.058 792.49L422.295 793.663C420.037 793.764 420.084 792.753 418.475 792.081C417.936 791.856 414.058 795.423 413.027 795.904C404.768 799.754 397.323 798.327 388.997 795.664C385.669 794.174 379.143 791.214 376.895 788.585C371.419 782.179 366.799 772.127 362.49 764.823C355.586 753.119 348.399 739.545 340.674 728.458C340.094 745.995 340.036 772.61 348.097 788.458C354.371 800.795 367.482 810.632 379.136 817.714C381.458 819.066 383.249 820.16 385.729 821.24C388.143 819.324 391.47 815.826 394.65 816.389C396.393 821.239 377.191 835.429 371.843 836.263C367.846 835.563 358.291 834.496 355.167 831.957C354.118 831.104 354.436 829.286 354.213 827.691L354.559 826.971C353.865 825.248 353.399 824.726 353.456 822.981C356.901 821.225 371.734 830.726 377.054 830.319C377.069 829.427 377.198 829.651 376.366 828.969C368.958 822.894 361.386 820.241 354.381 813.191C351.632 816.71 347.382 822.116 342.564 821.882C322.155 820.892 302.823 805.149 292.864 787.979C290.903 784.597 288.858 781.146 286.505 778.066C282.035 774.321 271.031 785.654 268.928 788.119C262.863 795.229 258.841 803.231 256.223 811.883C277.632 834.641 311.423 841.033 341.361 841.684C353.219 841.942 360.997 839.683 372.569 837.126C402.016 830.42 439.993 814.196 468.715 802.633C471.418 791.469 472.163 784.845 468.72 773.484C465.022 761.284 457.831 748.383 446.238 742.205C448.913 746.035 456.515 752.424 455.368 756.744C450.884 761.29 446.916 757.803 443.335 754.405C433.01 744.607 435.801 729.786 425.483 720.103ZM417.958 757.427C416.278 753.416 414.522 748.936 411.836 745.485C404.425 735.963 392.525 727.359 384.793 718.757C378.904 712.206 372.005 703.411 366.155 696.473C353.828 682.032 341.633 667.478 329.572 652.814C322.695 644.403 316.098 635.654 309.362 627.13C306.744 623.817 302.129 617.415 297.408 618.354C297.855 620.346 308.513 631.629 310.718 634.342L359.225 694.111C364.239 700.265 369.192 707.898 374.177 713.585C382.351 722.91 411.349 748.684 415.473 758.396C415.72 760.604 416.103 760.757 415.332 762.469C413.827 761.993 413.091 760.494 412.095 759.028C401.183 744.759 384.269 730.173 371.851 716.938C367.421 712.216 361.275 702.912 356.826 697.478C345.52 683.668 333.926 669.135 323.013 655.115C318.672 649.537 297.409 621.379 292.912 619.565C291.567 620.39 292.052 619.803 291.628 621.548C291.983 623.301 307.021 641.288 309.234 644.146C331.696 673.15 352.82 703.167 375.473 732.031C385.816 745.21 396.691 757.943 407.36 770.856C411.044 775.571 414.553 780.049 418.008 784.939C422.207 775.805 421.145 766.613 417.958 757.427ZM404.354 773.429C396.944 764.377 389.343 755.846 381.942 746.623C368.216 729.395 354.897 711.847 341.996 693.994C328.392 675.472 315.953 656.169 301.661 638.125C299.198 635.016 292.013 625.108 289.524 623.01C288.1 623.755 288.431 623.764 287.44 625.361C287.089 629.208 300.594 646.031 303.785 650.699L369.593 748.667C376.742 759.42 390.492 786.197 399.946 791.89C405.55 795.62 410.832 792.19 415.151 788.311C411.606 782.838 408.345 778.602 404.354 773.429ZM378.788 515.641C359.043 519.006 349.933 528.23 341.895 545.85C350.109 553.251 352.411 557.322 355.249 568.193C359.456 551.736 363.507 539.066 380.059 531.405C400.066 524.692 417.944 532.139 424.054 552.842C424.311 553.716 424.563 554.592 424.807 555.469C426.555 549.164 427.542 544.316 427.632 537.73C423.021 528.465 412.264 521.325 402.646 518.146C394.977 515.55 386.828 514.695 378.788 515.641ZM112.904 532.889C113.439 543.368 118.817 578.176 127.103 583.719C132.888 587.588 142.413 601.269 145.518 603.62C143.9 595.692 141.578 584.016 141.054 576.076C139.556 553.397 134.221 543.097 112.904 532.889ZM390.046 533.164C366.925 536.424 361.255 556.253 358.126 576.407C357.019 583.533 356.196 589.179 353.481 595.87C357.182 598.396 360.151 602.315 363.408 605.514C371.128 613.098 377.719 618.095 387.297 622.892C391.604 625.035 393.267 624.7 398.043 624.394C409.949 616.46 415.761 589.518 419.192 575.749C424.511 554.401 416.198 530.485 390.046 533.164ZM334.199 549.201C335.127 551.843 342.604 554.144 343.947 565.403C345.912 581.888 343.918 592.321 332.752 604.674L332.894 605.258C334.968 605.087 335.244 605.016 337.241 604.376C347.398 597.349 352.163 586.466 351.613 574.15C351.219 565.318 345.831 546.904 334.199 549.201ZM330.652 552.213C329.511 553.675 328.645 554.41 328.587 556.232C329.451 558.842 331.226 561.977 331.754 564.045C334.104 573.264 333.158 582.795 329.291 591.459C327.404 595.686 323.059 598.881 322.617 600.752C323.52 602.346 325.848 602.388 327.576 602.346C343.424 593.661 345.886 556.499 330.652 552.213ZM429.127 553.301C424.481 563.101 424.059 571.654 421.732 582.131C420.719 586.692 418.058 595.271 417.632 599.333C418.572 600.806 420.92 601.411 422.642 601.993C428.803 598.448 437.514 561.305 429.127 553.301ZM317.444 556.999C305.365 565.27 306.194 597.771 320.095 595.892C330.521 589.379 332.66 562.736 322.54 556.968C320.518 556.851 319.464 556.857 317.444 556.999ZM175.52 573.875C148.886 596.641 148.763 606.689 154.783 640.356L155.251 640.871C158.304 631.827 162.302 625.238 166.667 616.958C172.252 606.362 177.876 587.071 176.289 575.004C176.119 574.738 175.723 574.058 175.52 573.875ZM116.428 582.198C119.756 593.743 124.86 610.756 132.11 620.269C132.273 620.482 151.52 642.291 150.79 641.786C147.77 624.037 149.113 612.499 136.052 598.212C129.298 590.824 126.256 586.262 116.428 582.198ZM352.183 599.704C350.28 606.589 346.859 625.312 350.408 631.457C355.917 640.997 370.267 644.44 379.776 639.086C384.191 635.471 384.79 633.51 386.595 627.998C378.149 622.965 370.254 617.058 363.043 610.375C360.783 608.259 354.141 600.879 352.183 599.704ZM183.28 602.88C173.07 613.851 167.586 622.992 161.276 636.558C153.731 652.775 157.353 659.585 161.532 675.606C161.939 677.227 162.339 679.002 162.849 680.576C166.606 669.377 172.92 658.918 177.188 650.464C179.381 646.118 184.262 606.346 183.28 602.88ZM415.482 603.723C411.765 612.944 408.094 623.505 398.927 628.484C396.474 628.413 393.803 628.035 391.699 629.055C390.672 630.419 390.886 629.678 390.978 631.336C392.869 633.843 399.351 634.356 403.826 636.978C407.738 639.076 412.098 641.293 415.913 643.486C417.829 631.12 420.312 618.848 423.354 606.71C419.926 605.716 418.643 605.413 415.482 603.723ZM117.465 616.828C119.303 625.232 122.571 632.725 125.515 640.741C128.955 650.107 131.164 658.443 138.656 665.519C145.343 671.834 153.222 677.725 159.094 684.787C157.837 678.196 155.942 671.766 154.57 665.219C152.887 657.189 152.662 650.619 147.344 643.844C140.811 635.522 128.052 619.746 117.465 616.828ZM388.081 634.794C381.184 646.684 373.252 647.288 360.934 644.421C364.363 648.77 367.945 653.485 371.535 657.663C374.036 660.457 376.599 663.412 379.15 666.139C382.547 659.96 388.748 649.042 390.614 642.531C389.924 639.517 389.611 637.534 388.081 634.794ZM189.946 637.86C179.487 655.591 161.542 678.986 165.843 700.171C167.052 706.125 168.216 712.034 170.267 717.78L170.962 719.216C173.737 717.966 182.814 694.912 184.911 692.135C189.689 685.809 194.852 642.766 189.946 637.86ZM296.416 644.894C307.377 667.42 319.675 689.272 333.242 710.333C339.913 720.752 347.21 730.343 353.669 741.072C358.8 749.78 363.843 758.539 368.799 767.348C375.762 779.739 379.616 789.969 395.179 793.218C386.341 785.445 379.136 771.981 373.038 761.915C369.085 755.485 365.032 749.116 360.881 742.812C341.485 713.428 321.254 684.634 302.864 654.589C301.628 652.569 297.872 646.304 296.416 644.894ZM124.47 658.76C124.654 670.346 133.976 697.205 142.675 705.362C148.124 710.472 156.506 715.866 161.671 722.358C162.905 723.908 168.389 730.246 170.124 730.825C169.991 726.302 166.522 719.154 164.957 714.338C162.9 707.911 161.695 701.241 161.371 694.501C156.89 687.778 131.138 662.409 124.47 658.76ZM296.346 662.631C290.382 663.644 284.816 665.442 280.697 670.264C263.444 690.457 256.098 720.589 249.775 745.917C245.243 764.071 243.647 791.585 252.943 808.438C256.483 799.112 260.287 790.871 267.469 783.655C272.371 778.73 280.533 771.565 288 773.167C290.742 775.498 293.033 780.514 294.753 783.791C296.821 780.253 300.907 773.07 302.402 769.258C299.739 748.827 302.481 726.77 305.288 706.547C305.838 702.585 306.673 693.64 307.896 690.412C309.106 689.39 308.428 689.61 309.983 689.694C311.378 691.611 310.882 694.011 310.604 696.307C309.71 710.799 306.153 725.23 305.567 740.023C305.181 749.781 306.271 760.61 305.998 770.05C305.895 773.583 299.499 784.257 297.584 788.033C303.162 796.612 310.719 804.911 319.673 809.998C326.151 813.678 338.646 820.612 345.885 816.123C348.502 814.499 352.866 806.921 354.678 803.994C350.654 799.557 345.755 793.634 343.304 788.136C337.086 774.187 335.801 748.506 336.5 733.251C336.669 730.142 336.904 727.036 337.206 723.937C328.611 710.727 320.35 697.302 312.43 683.677C308.77 677.438 305.357 671.098 301.776 664.819C300.149 661.967 299.516 662.411 296.346 662.631ZM197.902 680.393C192.7 688.285 187.767 698.765 183.141 705.924C165.55 733.149 177.632 734.579 184.786 759.58C185.147 761.617 185.549 763.712 185.856 765.752C190.793 755.479 196.173 744.901 200.048 734.242C205.346 719.672 202.898 703.109 199.937 688.303C199.643 686.834 198.813 681.323 197.902 680.393ZM123.928 699.894C124.589 715.14 132.328 746.663 144.806 756.412C157.7 766.486 168.983 768.71 179.442 784.385L180.021 784.591L180.4 783.379C181.011 780.889 182.274 776.377 182.3 773.938C182.626 743.607 149.422 710.824 123.928 699.894ZM214.964 730.464C198.7 751.221 181.56 768.989 183.52 798.246C183.63 799.888 184.298 802.232 184.763 803.818C215.213 790.558 213.02 774.157 214.829 744.003C215.082 739.791 215.669 735.225 215.379 731.038L214.964 730.464ZM133.795 760.095C133.153 760.744 131.482 762.097 131.769 763.02C135.789 775.925 142.521 792.794 153.372 801.294C160.568 806.93 167.901 808.134 175.998 807.082C176.761 806.982 177.523 806.869 178.282 806.743C180.468 806.005 179.82 806.683 180.684 805.048C180.05 793.707 175.773 783.72 167.063 776.402C158.63 769.316 145.178 759.685 133.795 760.095ZM357.719 807.749C356.948 809.58 356.564 809.574 356.947 811.113C360.639 814.211 376.876 825.048 381.197 826.657L381.883 824.943C381.049 823.782 370.471 817.014 368.336 815.633C365.622 813.877 359.796 808.933 357.719 807.749ZM282.034 834.676C277.545 846.901 273.42 859.533 268.827 871.613C282.751 864.878 293.292 859.735 307.878 854.299C318.449 850.541 327.198 847.988 338.008 844.986C318.777 845.913 299.862 841.698 282.034 834.676Z"/><path fill="#B1D1DA" d="M889.918 453.91C876.614 457.234 863.395 460.894 850.276 464.887C834.523 469.73 818.906 474.804 802.782 478.299C797.672 479.407 790.063 481.255 784.937 481.743C787.136 478.424 849.117 455.559 858.68 452.806C866.288 450.616 882.639 449.835 889.918 453.91Z"/><path fill="#B1D1DA" d="M754.451 491.431C756.122 490.744 769.925 488.867 772.736 488.346C786.323 485.877 799.84 483.038 813.273 479.834C841.417 473.033 868.455 461.538 897.555 456.604C898.201 457.672 897.67 457.103 898.834 457.714C904.692 460.791 916.166 467.921 921.024 472.066C902.677 474.151 884.521 477.678 866.728 482.615C851.894 486.627 837.294 491.375 822.489 495.303C795.616 502.433 768.285 507.304 740.435 507.769C733.694 507.881 718.784 508.458 712.514 507.699C716.763 506.552 723.101 503.958 727.329 502.375C734.432 499.703 741.57 497.129 748.744 494.653C750.936 493.887 753.506 493.39 754.451 491.431Z"/><path fill="#33332F" d="M122.604 519.017L120.219 518.075C119.33 516.796 117.426 504.849 117.019 502.409C115.081 490.779 112.827 478.588 111.695 466.863C111.546 465.328 112.21 464.825 113.023 463.658C114.35 464.668 114.735 465.006 115.003 466.814C117.457 483.384 120.517 499.816 123.466 516.292C123.717 517.698 123.298 517.969 122.604 519.017Z"/><defs><linearGradient id="gradient_0" gradientUnits="userSpaceOnUse" x1="381.07703" y1="475.3298" x2="379.24203" y2="560.7594"><stop offset="0" stop-color="#D0DEE4"/><stop offset="1" stop-color="#FFFAF0"/></linearGradient></defs><path fill="url(#gradient_0)" d="M438.091 559.616L437.561 555.92L437.392 562.025L436.889 562.243L436.59 562.039L436.22 559.963C435.334 554.753 434.73 553.605 431.844 549.33C433.587 534.503 429.583 513.587 420.584 501.427C405.014 480.39 371.704 480.134 351.824 494.816C334.125 507.888 332.445 528.367 329.791 548.459C327.898 550.066 324.423 553.793 321.878 553.352C321.344 552.308 321.011 551.614 321.313 550.382C326.738 528.254 327.665 504.058 345.771 488.094C367.746 467.958 404.888 470.876 424.494 492.853C440.675 510.99 439.763 536.709 438.091 559.616Z"/><path fill="#B1D1DA" d="M702.991 511.947C716.174 511.504 729.647 511.858 743.001 511.415C760.114 510.877 777.157 508.974 793.968 505.724C808.114 502.939 822.138 499.565 836.003 495.611C848.152 492.14 860.092 488.35 872.325 485.084C889.778 480.425 906.562 477.656 924.459 475.531C934.259 487.207 940.628 497.555 947.319 511.338C927.551 519.931 912.326 525.898 890.917 530.42C868.273 534.994 845.322 537.886 822.252 539.071C799.718 540.353 777.573 540.549 755.088 543.319C719.419 547.712 681.645 558.838 650.352 576.767C635.125 569.391 619.777 562.267 604.314 555.398C614.636 549.621 632.316 543.6 643.467 538.518C655.942 532.832 668.477 527.163 681.057 521.762C685.007 520.066 700.386 513.944 702.991 511.947Z"/><path fill="#B7D5DC" d="M424.119 517.168C419.766 517.518 419.041 517.361 415.348 519.802C395.613 507.955 374.682 508.113 355.459 520.713C352.494 518.982 344.629 521.362 338.964 520.792C339.56 519.072 340.202 517.368 340.888 515.682C345.481 504.916 354.175 496.424 365.046 492.085C375.868 487.729 391.233 487.031 401.957 491.921C413.74 497.294 419.659 505.49 424.119 517.168Z"/><path fill="#F8F6EE" d="M504.307 521.592C512.643 519.327 521.051 516.032 529.753 513.75C573.769 502.209 615.701 494.291 661.417 492.604C685.317 491.722 707.665 493.085 731.457 493.362C736.858 493.424 748.664 492.032 754.451 491.431C753.506 493.39 750.936 493.887 748.744 494.653C741.57 497.129 734.432 499.703 727.329 502.375C723.101 503.958 716.763 506.552 712.514 507.699C647.742 507.532 599.273 512.169 536.511 529.907C524.991 526.559 515.744 524.413 504.307 521.592Z"/><path fill="#F8F6EE" d="M543.802 532.441C597.46 516.697 647.084 510.885 702.991 511.947C700.386 513.944 685.007 520.066 681.057 521.762C668.477 527.163 655.942 532.832 643.467 538.518C632.316 543.6 614.636 549.621 604.314 555.398C583.791 547.319 566.014 538.028 543.802 532.441Z"/><path fill="#B1D1DA" d="M654.231 578.595C681.407 565.492 705.309 555.709 735.066 549.964C767.067 543.786 798.308 544.034 830.569 542.091C861.526 540.226 893.469 535.693 922.779 525.305C931.705 522.141 940.921 518.305 949.743 514.755C956.643 530.363 961.791 544.548 966.044 561.236C966.725 563.906 968.532 577.3 969.762 578.398C967.784 579.91 963.547 584.159 961.414 586.127C953.475 593.448 946.478 598.804 936.766 603.49C915.854 613.581 895.488 614.176 872.971 616.401C860.682 617.568 848.423 619.029 836.204 620.784C810.998 624.401 789.885 628.759 765.078 633.311C745.249 626.073 724.357 614.974 705.715 605.172L654.231 578.595Z"/><path fill="#F8F6EE" d="M341.895 545.85C349.933 528.23 359.043 519.006 378.788 515.641C386.828 514.695 394.977 515.55 402.646 518.146C412.264 521.325 423.021 528.465 427.632 537.73C427.542 544.316 426.555 549.164 424.807 555.469C424.563 554.592 424.311 553.716 424.054 552.842C417.944 532.139 400.066 524.692 380.059 531.405C363.507 539.066 359.456 551.736 355.249 568.193C352.411 557.322 350.109 553.251 341.895 545.85ZM358.612 535.275C356.077 538.583 350.787 547.955 353.978 551.814L356.102 552.378C357.564 550.251 357.205 546.07 358.186 543.134C359.002 540.687 360.968 538.553 361.001 536.517C359.797 535.268 360.515 535.757 358.612 535.275Z"/><path fill="#F8F6EE" d="M415.348 519.802C419.041 517.361 419.766 517.518 424.119 517.168C425.528 521.753 426.208 524.613 427.105 529.332C423.325 525.714 419.733 522.697 415.348 519.802Z"/><path fill="#F8F6EE" d="M338.964 520.792C344.629 521.362 352.494 518.982 355.459 520.713C346.043 528.541 342.716 533.849 338.152 544.667C337.805 545.491 336.652 545.567 335.848 545.648C332.431 542.569 337.637 525.184 338.964 520.792Z"/><path fill="#F8F6EE" d="M145.518 603.62C142.413 601.269 132.888 587.588 127.103 583.719C118.817 578.176 113.439 543.368 112.904 532.889C134.221 543.097 139.556 553.397 141.054 576.076C141.578 584.016 143.9 595.692 145.518 603.62Z"/><path fill="#F8F6EE" d="M353.481 595.87C356.196 589.179 357.019 583.533 358.126 576.407C361.255 556.253 366.925 536.424 390.046 533.164C416.198 530.485 424.511 554.401 419.192 575.749C415.761 589.518 409.949 616.46 398.043 624.394C393.267 624.7 391.604 625.035 387.297 622.892C377.719 618.095 371.128 613.098 363.408 605.514C360.151 602.315 357.182 598.396 353.481 595.87Z"/><path fill="#33332F" d="M356.102 552.378L353.978 551.814C350.787 547.955 356.077 538.583 358.612 535.275C360.515 535.757 359.797 535.268 361.001 536.517C360.968 538.553 359.002 540.687 358.186 543.134C357.205 546.07 357.564 550.251 356.102 552.378Z"/><path fill="#F8F6EE" d="M337.241 604.376C335.244 605.016 334.968 605.087 332.894 605.258L332.752 604.674C343.918 592.321 345.912 581.888 343.947 565.403C342.604 554.144 335.127 551.843 334.199 549.201C345.831 546.904 351.219 565.318 351.613 574.15C352.163 586.466 347.398 597.349 337.241 604.376Z"/><path fill="#F8F6EE" d="M327.576 602.346C325.848 602.388 323.52 602.346 322.617 600.752C323.059 598.881 327.404 595.686 329.291 591.459C333.158 582.795 334.104 573.264 331.754 564.045C331.226 561.977 329.451 558.842 328.587 556.232C328.645 554.41 329.511 553.675 330.652 552.213C345.886 556.499 343.424 593.661 327.576 602.346Z"/><path fill="#F8F6EE" d="M422.642 601.993C420.92 601.411 418.572 600.806 417.632 599.333C418.058 595.271 420.719 586.692 421.732 582.131C424.059 571.654 424.481 563.101 429.127 553.301C437.514 561.305 428.803 598.448 422.642 601.993Z"/><path fill="#F8F6EE" d="M436.59 562.039L436.889 562.243L437.392 562.025L437.561 555.92L438.091 559.616C439.843 576.564 441.63 587.176 428.558 600.263C434.12 586.537 436.826 576.75 436.59 562.039Z"/><path fill="#F8F6EE" d="M320.095 595.892C306.194 597.771 305.365 565.27 317.444 556.999C319.464 556.857 320.518 556.851 322.54 556.968C332.66 562.736 330.521 589.379 320.095 595.892Z"/><path fill="#B1D1DA" d="M598.672 557.181C643.5 576.533 686.688 599.529 730.045 621.921C738.867 626.477 749.089 630.571 758.257 634.563L757.706 634.742C747.222 638.086 735.312 640.473 724.069 644.017C691.215 654.41 659.938 669.249 631.107 688.121C614.534 699.004 601.015 710.136 586.02 722.317C562.886 741.111 514.696 786.42 487.036 794.994C497.949 765.039 476.263 737.015 465.799 710.111C459.969 695.122 456.425 685.26 447.211 671.739C449.638 668.625 451.821 664.315 454.006 660.897C462.967 646.877 473.253 634.776 485.042 623.067C505.32 602.927 529.78 589.136 555.074 576.352C568.998 569.315 583.799 564.096 597.966 557.704C598.202 557.53 598.437 557.356 598.672 557.181Z"/><path fill="#F8F6EE" d="M154.783 640.356C148.763 606.689 148.886 596.641 175.52 573.875C175.723 574.058 176.119 574.738 176.289 575.004C177.876 587.071 172.252 606.362 166.667 616.958C162.302 625.238 158.304 631.827 155.251 640.871L154.783 640.356Z"/><path fill="#F8F6EE" d="M150.79 641.786C151.52 642.291 132.273 620.482 132.11 620.269C124.86 610.756 119.756 593.743 116.428 582.198C126.256 586.262 129.298 590.824 136.052 598.212C149.113 612.499 147.77 624.037 150.79 641.786Z"/><path fill="#B1D1DA" d="M377.143 839.687C394.126 836.313 421.93 825.689 438.19 819.16C460.379 810.25 491.099 799.728 510.859 787.12C530.941 774.307 553.214 755.09 571.363 739.371C609.283 706.214 649.029 676.676 696.184 657.825C744.594 638.472 796.718 629.964 848.122 622.611C873.456 618.987 899.962 619.981 924.589 612.444C942.792 606.873 956.697 596.623 969.992 583.438C979.9 642.11 967.702 719.319 933.235 768.163C895.579 821.526 824.627 852.625 761.993 863.949C731.272 869.504 700.506 873.597 671.669 886.22C612.897 912.644 562.267 956.435 496.791 967.025C471.697 971.083 442.839 971.409 421.406 955.645C382.105 927.086 374.977 884.713 377.143 839.687Z"/><path fill="#F8F6EE" d="M379.776 639.086C370.267 644.44 355.917 640.997 350.408 631.457C346.859 625.312 350.28 606.589 352.183 599.704C354.141 600.879 360.783 608.259 363.043 610.375C370.254 617.058 378.149 622.965 386.595 627.998C384.79 633.51 384.191 635.471 379.776 639.086Z"/><path fill="#F8F6EE" d="M161.532 675.606C157.353 659.585 153.731 652.775 161.276 636.558C167.586 622.992 173.07 613.851 183.28 602.88C184.262 606.346 179.381 646.118 177.188 650.464C172.92 658.918 166.606 669.377 162.849 680.576C162.339 679.002 161.939 677.227 161.532 675.606Z"/><path fill="#F8F6EE" d="M398.927 628.484C408.094 623.505 411.765 612.944 415.482 603.723C418.643 605.413 419.926 605.716 423.354 606.71C420.312 618.848 417.829 631.12 415.913 643.486C412.098 641.293 407.738 639.076 403.826 636.978C399.351 634.356 392.869 633.843 390.978 631.336C390.886 629.678 390.672 630.419 391.699 629.055C393.803 628.035 396.474 628.413 398.927 628.484Z"/><path fill="#F8F6EE" d="M344.297 628.564C347.368 634.833 351.735 639.632 356.199 644.93C362.875 652.856 369.082 661.245 376.107 668.856C377.253 670.098 377.481 670.148 379.009 670.487C384.851 668.651 390.703 651.886 393.653 646.234C395.225 643.223 394.034 641.114 393.844 637.952L394.458 637.704C397.6 638.331 402.413 640.74 405.469 642.176C422.791 650.321 434.387 660.286 445.395 675.96C438.827 683.831 431.193 713.454 427.915 716.918C412.863 704.894 395.225 703.014 376.814 702.964C364.749 687.835 350.805 672.69 338.722 657.343C332.061 648.881 325.781 642.679 319.659 633.342C322.643 632.185 329.158 630.8 332.591 629.91C336.888 619.239 335.716 618.067 345.629 611.406C345.408 617.45 344.928 622.578 344.297 628.564ZM419.58 654.043C416.905 661.647 412.017 694.41 414.164 703.94C414.368 704.85 415.572 705.512 416.407 705.943C417.379 703.833 418.115 687.351 418.576 682.759C419.152 677.031 422.236 659.964 421.982 655.549C420.835 654.127 421.545 654.704 419.58 654.043Z"/><path fill="#F8F6EE" d="M159.094 684.787C153.222 677.725 145.343 671.834 138.656 665.519C131.164 658.443 128.955 650.107 125.515 640.741C122.571 632.725 119.303 625.232 117.465 616.828C128.052 619.746 140.811 635.522 147.344 643.844C152.662 650.619 152.887 657.189 154.57 665.219C155.942 671.766 157.837 678.196 159.094 684.787Z"/><path fill="#F8F6EE" d="M415.473 758.396C411.349 748.684 382.351 722.91 374.177 713.585C369.192 707.898 364.239 700.265 359.225 694.111L310.718 634.342C308.513 631.629 297.855 620.346 297.408 618.354C302.129 617.415 306.744 623.817 309.362 627.13C316.098 635.654 322.695 644.403 329.572 652.814C341.633 667.478 353.828 682.032 366.155 696.473C372.005 703.411 378.904 712.206 384.793 718.757C392.525 727.359 404.425 735.963 411.836 745.485C414.522 748.936 416.278 753.416 417.958 757.427L415.473 758.396Z"/><path fill="#F8F6EE" d="M407.36 770.856C396.691 757.943 385.816 745.21 375.473 732.031C352.82 703.167 331.696 673.15 309.234 644.146C307.021 641.288 291.983 623.301 291.628 621.548C292.052 619.803 291.567 620.39 292.912 619.565C297.409 621.379 318.672 649.537 323.013 655.115C333.926 669.135 345.52 683.668 356.826 697.478C361.275 702.912 367.421 712.216 371.851 716.938C384.269 730.173 401.183 744.759 412.095 759.028C410.405 762.076 408.715 767.407 407.36 770.856Z"/><path fill="#F8F6EE" d="M399.946 791.89C390.492 786.197 376.742 759.42 369.593 748.667L303.785 650.699C300.594 646.031 287.089 629.208 287.44 625.361C288.431 623.764 288.1 623.755 289.524 623.01C292.013 625.108 299.198 635.016 301.661 638.125C315.953 656.169 328.392 675.472 341.996 693.994C354.897 711.847 368.216 729.395 381.942 746.623C389.343 755.846 396.944 764.377 404.354 773.429C402.74 778.407 400.366 784.617 400.264 789.698C400.247 790.582 400.249 791.131 399.946 791.89Z"/><path fill="#F8F6EE" d="M360.934 644.421C373.252 647.288 381.184 646.684 388.081 634.794C389.611 637.534 389.924 639.517 390.614 642.531C388.748 649.042 382.547 659.96 379.15 666.139C376.599 663.412 374.036 660.457 371.535 657.663C367.945 653.485 364.363 648.77 360.934 644.421Z"/><path fill="#F8F6EE" d="M170.267 717.78C168.216 712.034 167.052 706.125 165.843 700.171C161.542 678.986 179.487 655.591 189.946 637.86C194.852 642.766 189.689 685.809 184.911 692.135C182.814 694.912 173.737 717.966 170.962 719.216L170.267 717.78Z"/><path fill="#F8F6EE" d="M395.179 793.218C379.616 789.969 375.762 779.739 368.799 767.348C363.843 758.539 358.8 749.78 353.669 741.072C347.21 730.343 339.913 720.752 333.242 710.333C319.675 689.272 307.377 667.42 296.416 644.894C297.872 646.304 301.628 652.569 302.864 654.589C321.254 684.634 341.485 713.428 360.881 742.812C365.032 749.116 369.085 755.485 373.038 761.915C379.136 771.981 386.341 785.445 395.179 793.218Z"/><path fill="#33332F" d="M416.407 705.943C415.572 705.512 414.368 704.85 414.164 703.94C412.017 694.41 416.905 661.647 419.58 654.043C421.545 654.704 420.835 654.127 421.982 655.549C422.236 659.964 419.152 677.031 418.576 682.759C418.115 687.351 417.379 703.833 416.407 705.943Z"/><path fill="#F8F6EE" d="M170.124 730.825C168.389 730.246 162.905 723.908 161.671 722.358C156.506 715.866 148.124 710.472 142.675 705.362C133.976 697.205 124.654 670.346 124.47 658.76C131.138 662.409 156.89 687.778 161.371 694.501C161.695 701.241 162.9 707.911 164.957 714.338C166.522 719.154 169.991 726.302 170.124 730.825Z"/><path fill="#F8F6EE" d="M252.943 808.438C243.647 791.585 245.243 764.071 249.775 745.917C256.098 720.589 263.444 690.457 280.697 670.264C284.816 665.442 290.382 663.644 296.346 662.631C299.516 662.411 300.149 661.967 301.776 664.819C305.357 671.098 308.77 677.438 312.43 683.677C320.35 697.302 328.611 710.727 337.206 723.937C336.904 727.036 336.669 730.142 336.5 733.251C335.801 748.506 337.086 774.187 343.304 788.136C345.755 793.634 350.654 799.557 354.678 803.994C352.866 806.921 348.502 814.499 345.885 816.123C338.646 820.612 326.151 813.678 319.673 809.998C310.719 804.911 303.162 796.612 297.584 788.033C299.499 784.257 305.895 773.583 305.998 770.05C306.271 760.61 305.181 749.781 305.567 740.023C306.153 725.23 309.71 710.799 310.604 696.307C310.882 694.011 311.378 691.611 309.983 689.694C308.428 689.61 309.106 689.39 307.896 690.412C306.673 693.64 305.838 702.585 305.288 706.547C302.481 726.77 299.739 748.827 302.402 769.258C300.907 773.07 296.821 780.253 294.753 783.791C293.033 780.514 290.742 775.498 288 773.167C280.533 771.565 272.371 778.73 267.469 783.655C260.287 790.871 256.483 799.112 252.943 808.438Z"/><path fill="#B1D1DA" d="M445.395 675.96C453.993 688.461 456.919 699.237 462.711 713.128C471.483 734.167 489.056 761.523 485.757 785.123C485.199 789.115 483.22 793.478 481.445 796.956C478.682 798.39 476.428 799.595 473.523 800.731C478.412 778.716 469.598 751.798 448.647 739.67C447.359 738.924 444.929 739.661 443.646 740.31C440.9 744.77 450.093 750.373 450.602 754.149C447.62 753.527 444.681 750.164 443.176 747.735C436.316 736.671 437.983 726.617 427.915 716.918C431.193 713.454 438.827 683.831 445.395 675.96Z"/><path fill="#F8F6EE" d="M184.786 759.58C177.632 734.579 165.55 733.149 183.141 705.924C187.767 698.765 192.7 688.285 197.902 680.393C198.813 681.323 199.643 686.834 199.937 688.303C202.898 703.109 205.346 719.672 200.048 734.242C196.173 744.901 190.793 755.479 185.856 765.752C185.549 763.712 185.147 761.617 184.786 759.58Z"/><path fill="#F8F6EE" d="M180.4 783.379L180.021 784.591L179.442 784.385C168.983 768.71 157.7 766.486 144.806 756.412C132.328 746.663 124.589 715.14 123.928 699.894C149.422 710.824 182.626 743.607 182.3 773.938C182.274 776.377 181.011 780.889 180.4 783.379Z"/><path fill="#F8F6EE" d="M380.021 706.397C394.277 706.659 414.511 710.239 425.483 720.103C423.26 724.394 421.243 728.789 419.439 733.273C418.46 735.735 416.499 741.424 415.449 743.359C403.126 729.493 391.522 721.182 380.021 706.397Z"/><path fill="#B1D1DA" d="M425.483 720.103C435.801 729.786 433.01 744.607 443.335 754.405C446.916 757.803 450.884 761.29 455.368 756.744C456.515 752.424 448.913 746.035 446.238 742.205C457.831 748.383 465.022 761.284 468.72 773.484C472.163 784.845 471.418 791.469 468.715 802.633C439.993 814.196 402.016 830.42 372.569 837.126L371.843 836.263C377.191 835.429 396.393 821.239 394.65 816.389C391.47 815.826 388.143 819.324 385.729 821.24C383.249 820.16 381.458 819.066 379.136 817.714C381.696 808.984 385.159 803.58 388.997 795.664C397.323 798.327 404.768 799.754 413.027 795.904C414.058 795.423 417.936 791.856 418.475 792.081C420.084 792.753 420.037 793.764 422.295 793.663L423.058 792.49C423.068 790.742 422.077 789.917 420.944 788.493C428.989 773.507 425.072 756.756 415.449 743.359C416.499 741.424 418.46 735.735 419.439 733.273C421.243 728.789 423.26 724.394 425.483 720.103Z"/><path fill="#F8F6EE" d="M340.674 728.458C348.399 739.545 355.586 753.119 362.49 764.823C366.799 772.127 371.419 782.179 376.895 788.585C379.143 791.214 385.669 794.174 388.997 795.664C385.159 803.58 381.696 808.984 379.136 817.714C367.482 810.632 354.371 800.795 348.097 788.458C340.036 772.61 340.094 745.995 340.674 728.458Z"/><path fill="#F8F6EE" d="M184.763 803.818C184.298 802.232 183.63 799.888 183.52 798.246C181.56 768.989 198.7 751.221 214.964 730.464L215.379 731.038C215.669 735.225 215.082 739.791 214.829 744.003C213.02 774.157 215.213 790.558 184.763 803.818Z"/><path fill="#B1D1DA" d="M417.958 757.427C421.145 766.613 422.207 775.805 418.008 784.939C414.553 780.049 411.044 775.571 407.36 770.856C408.715 767.407 410.405 762.076 412.095 759.028C413.091 760.494 413.827 761.993 415.332 762.469C416.103 760.757 415.72 760.604 415.473 758.396L417.958 757.427Z"/><path fill="#F8F6EE" d="M178.282 806.743C177.523 806.869 176.761 806.982 175.998 807.082C167.901 808.134 160.568 806.93 153.372 801.294C142.521 792.794 135.789 775.925 131.769 763.02C131.482 762.097 133.153 760.744 133.795 760.095C145.178 759.685 158.63 769.316 167.063 776.402C175.773 783.72 180.05 793.707 180.684 805.048C179.82 806.683 180.468 806.005 178.282 806.743Z"/><path fill="#B7D5DC" d="M404.354 773.429C408.345 778.602 411.606 782.838 415.151 788.311C410.832 792.19 405.55 795.62 399.946 791.89C400.249 791.131 400.247 790.582 400.264 789.698C400.366 784.617 402.74 778.407 404.354 773.429Z"/><path fill="#F8F6EE" d="M354.381 813.191C361.386 820.241 368.958 822.894 376.366 828.969C377.198 829.651 377.069 829.427 377.054 830.319C371.734 830.726 356.901 821.225 353.456 822.981C353.399 824.726 353.865 825.248 354.559 826.971L354.213 827.691C354.436 829.286 354.118 831.104 355.167 831.957C358.291 834.496 367.846 835.563 371.843 836.263L372.569 837.126C360.997 839.683 353.219 841.942 341.361 841.684C311.423 841.033 277.632 834.641 256.223 811.883C258.841 803.231 262.863 795.229 268.928 788.119C271.031 785.654 282.035 774.321 286.505 778.066C288.858 781.146 290.903 784.597 292.864 787.979C302.823 805.149 322.155 820.892 342.564 821.882C347.382 822.116 351.632 816.71 354.381 813.191Z"/><path fill="#F8F6EE" d="M381.197 826.657C376.876 825.048 360.639 814.211 356.947 811.113C356.564 809.574 356.948 809.58 357.719 807.749C359.796 808.933 365.622 813.877 368.336 815.633C370.471 817.014 381.049 823.782 381.883 824.943L381.197 826.657Z"/><path fill="#F8F6EE" d="M268.827 871.613C273.42 859.533 277.545 846.901 282.034 834.676C299.862 841.698 318.777 845.913 338.008 844.986C327.198 847.988 318.449 850.541 307.878 854.299C293.292 859.735 282.751 864.878 268.827 871.613Z"/><path fill="#33332F" d="M88.7945 940.164C86.8861 939.828 87.6152 940.272 86.4077 939.021C86.3087 937.434 86.4559 936.545 87.6967 935.364C104.198 919.667 121.882 905.401 137.234 888.459C144.124 880.879 150.152 872.559 155.206 863.649L156.916 864.149C157.409 864.707 157.887 864.968 157.903 865.765C158.146 878.492 100.334 929.514 88.7945 940.164Z"/></svg>