<?xml version="1.0" encoding="UTF-8"?>
<svg version="1.1" xmlns="http://www.w3.org/2000/svg" width="1024" height="1024">
<path d="M0 0 C337.92 0 675.84 0 1024 0 C1024 337.92 1024 675.84 1024 1024 C686.08 1024 348.16 1024 0 1024 C0 686.08 0 348.16 0 0 Z " fill="#171619" transform="translate(0,0)"/>
<path d="M0 0 C1.62944644 -0.02164999 3.25877444 -0.05583574 4.88769531 -0.10253906 C7.25068424 -0.16954208 9.61129316 -0.19698378 11.97509766 -0.21606445 C12.69918823 -0.24389511 13.42327881 -0.27172577 14.16931152 -0.30039978 C18.31312423 -0.28359642 19.75964869 0.22877171 22.79223633 3.13061523 C24.60024841 5.88212528 26.07674629 8.38948393 27.33837891 11.41674805 C27.92921265 12.7929834 27.92921265 12.7929834 28.53198242 14.19702148 C28.93602295 15.15253906 29.34006348 16.10805664 29.75634766 17.0925293 C33.39596041 25.37256368 37.01212036 32.51581846 42.94384766 39.4050293 C43.63994141 40.24807617 44.33603516 41.09112305 45.05322266 41.9597168 C49.95514561 47.67862691 55.33075382 52.40314421 61.23925781 57.05053711 C64.73976183 59.83208914 68.18047879 62.68734228 71.63134766 65.5300293 C72.33195312 66.10398437 73.03255859 66.67793945 73.75439453 67.26928711 C86.38778141 77.65053211 86.38778141 77.65053211 91.94384766 83.4050293 C94.46888984 85.97919681 97.04150707 88.35730977 99.81884766 90.6550293 C118.37269015 106.77140621 127.78966426 129.25037939 129.94384766 153.4050293 C130.64451241 164.12418455 130.16515611 174.65292788 128.63134766 185.2800293 C128.51388184 186.0939917 128.39641602 186.9079541 128.27539062 187.74658203 C127.46454213 192.70539177 126.10400758 196.8668782 123.94384766 201.4050293 C115.81983633 200.18821703 110.39744073 189.48604571 105.72436523 183.34545898 C80.20555641 147.78069647 80.20555641 147.78069647 43.94384766 126.4050293 C41.13487206 126.06067809 38.33271537 125.90415158 35.50634766 125.7800293 C34.77480469 125.74135742 34.04326172 125.70268555 33.28955078 125.6628418 C31.50801234 125.56968946 29.72596644 125.48632643 27.94384766 125.4050293 C27.94498682 125.97487724 27.94612598 126.54472518 27.94729966 127.13184124 C28.01452419 160.95209077 28.06595287 194.77232503 28.09704364 228.59262687 C28.10079549 232.65908209 28.10467848 236.72553717 28.10864258 240.79199219 C28.10942951 241.60150475 28.11021644 242.41101731 28.11102722 243.24506056 C28.12405914 256.32966426 28.1477007 269.41422818 28.17530604 282.49880833 C28.20342199 295.93811576 28.22003697 309.37740244 28.22611314 322.81673807 C28.23021678 331.10062183 28.24314856 339.3843931 28.26759706 347.66824221 C28.28353078 353.35907108 28.28823086 359.04984232 28.28435179 364.74069185 C28.28244202 368.01749345 28.28691346 371.29405978 28.30146408 374.57083511 C28.35611781 387.51947784 28.37940892 399.84591237 24.94384766 412.4050293 C24.74655658 413.16975587 24.5492655 413.93448244 24.3459959 414.72238255 C20.7816319 427.67049582 14.65664821 439.22789251 5.94384766 449.4050293 C5.28900391 450.20424805 4.63416016 451.0034668 3.95947266 451.8269043 C-19.41958497 479.30156326 -61.38278758 495.37362506 -96.56201172 498.24389648 C-110.68976352 499.15661342 -124.30151653 498.89982962 -138.05615234 495.4050293 C-138.74902344 495.23342285 -139.44189453 495.06181641 -140.15576172 494.88500977 C-154.35595426 491.30295038 -166.79655007 486.00814933 -178.05615234 476.4050293 C-178.86955078 475.79788086 -179.68294922 475.19073242 -180.52099609 474.56518555 C-190.78980866 465.81533447 -196.6267752 451.99056248 -197.88183594 438.79711914 C-199.69237954 413.95159229 -194.82273141 392.79600894 -178.66552734 373.3581543 C-156.29419709 348.03970269 -120.0168059 331.81648982 -86.51602173 329.20718384 C-81.22602271 328.92033982 -75.9420829 328.84769254 -70.64501953 328.84912109 C-67.95247288 328.84258108 -65.26367448 328.78789594 -62.57177734 328.73120117 C-52.37786024 328.64331685 -43.22438332 329.81838854 -33.36132812 332.44824219 C-32.26679825 332.73129463 -31.17226837 333.01434708 -30.04457092 333.30597687 C-27.3792587 333.99661815 -24.71672483 334.69639053 -22.05615234 335.4050293 C-22.05691178 334.70328681 -22.05767123 334.00154433 -22.05845368 333.27853692 C-22.10316878 291.72657882 -22.13750467 250.17462352 -22.158283 208.62264622 C-22.16078454 203.63816059 -22.16337318 198.65367501 -22.16601562 193.66918945 C-22.16654025 192.67682997 -22.16706487 191.68447049 -22.16760539 190.6620395 C-22.17631804 174.57466525 -22.19209272 158.48730523 -22.21045794 142.39993943 C-22.2291331 125.90400964 -22.24026401 109.40808733 -22.24432933 92.9121474 C-22.24707935 82.72580602 -22.25577816 72.53950487 -22.27198528 62.35317586 C-22.28252277 55.37666652 -22.28576035 48.4001781 -22.2831551 41.42366137 C-22.28186874 37.39310562 -22.2838988 33.36262037 -22.29456329 29.33207703 C-22.30424267 25.64712588 -22.30482218 21.96229312 -22.29795013 18.2773367 C-22.296695 16.30243934 -22.30536839 14.32754352 -22.31431496 12.35266602 C-22.31033286 11.19219659 -22.30635077 10.03172716 -22.302248 8.836092 C-22.30300744 7.82831424 -22.30376688 6.82053648 -22.30454934 5.78222001 C-22.05615234 3.4050293 -22.05615234 3.4050293 -20.05615234 1.4050293 C-13.65746197 -0.41718728 -6.61080811 0.06604137 0 0 Z " fill="#F0EDE5" transform="translate(456.05615234375,258.594970703125)"/>
<path d="M0 0 C0.87537415 0.00359528 1.75074829 0.00719055 2.65264893 0.01089478 C4.02812141 0.01067574 4.02812141 0.01067574 5.43138123 0.01045227 C8.47773564 0.01115177 11.52402973 0.01894589 14.57037354 0.02676392 C16.67644721 0.02862796 18.78252132 0.03005193 20.88859558 0.03105164 C26.44364612 0.03487786 31.99867069 0.04470903 37.55371094 0.05575562 C43.21746469 0.0659675 48.88122262 0.07054878 54.54498291 0.07559204 C65.66673914 0.0863312 76.78847606 0.10340887 87.91021729 0.12442017 C88.52325439 2.45181274 88.52325439 2.45181274 88.91021729 5.12442017 C87.10162354 7.88613892 87.10162354 7.88613892 84.47271729 10.81192017 C83.53820914 11.87491908 82.60462725 12.93873294 81.67193604 14.00332642 C81.20320068 14.52942505 80.73446533 15.05552368 80.25152588 15.5975647 C78.35477043 17.7567035 76.56856595 19.99620719 74.78521729 22.24942017 C74.13939697 23.06152954 73.49357666 23.87363892 72.82818604 24.71035767 C71.8787915 25.9053186 71.8787915 25.9053186 70.91021729 27.12442017 C69.63967868 28.70799002 68.36883946 30.29131871 67.09771729 31.87442017 C64.40807813 35.23385273 61.74256551 38.61084654 59.09112549 42.00039673 C54.04744315 48.44695163 48.92250096 54.82057057 43.74737549 61.16201782 C40.25570046 65.44793652 36.81241987 69.76721335 33.41021729 74.12442017 C28.92821618 79.86452684 24.35065171 85.52135263 19.74615479 91.16348267 C15.79604277 96.01219836 11.91741191 100.91164891 8.06988525 105.84194946 C4.6164718 110.25547408 1.08534201 114.60099082 -2.46478271 118.93692017 C-6.99855891 124.47722969 -11.39564769 130.10291046 -15.71478271 135.81192017 C-20.02937857 141.51291283 -24.47875168 147.04108793 -29.14154053 152.45986938 C-32.6326817 156.53371375 -35.92254171 160.7425105 -39.16278076 165.01748657 C-43.25124469 170.39043322 -47.51623882 175.61495684 -51.80023193 180.83267212 C-52.32890869 181.4780896 -52.85758545 182.12350708 -53.40228271 182.78848267 C-53.87279053 183.36034302 -54.34329834 183.93220337 -54.82806396 184.52139282 C-57.43898698 187.64976414 -57.43898698 187.64976414 -57.95697021 191.53457642 C-56.90705678 194.67012872 -55.51857096 196.19664291 -53.21478271 198.56192017 C-49.52009286 202.50136865 -46.12684929 206.53658521 -42.83978271 210.81192017 C-38.34812408 216.62334223 -33.63154434 222.19375612 -28.79486084 227.71987915 C-24.10023464 233.08827115 -19.57237316 238.57773816 -15.08978271 244.12442017 C-12.09504253 247.79539201 -9.09338513 251.46069726 -6.08978271 255.12442017 C-5.567229 255.76186157 -5.04467529 256.39930298 -4.50628662 257.05606079 C1.98869978 264.97397052 8.5100724 272.8644282 15.14801025 280.66299438 C18.45314939 284.55636741 21.64551011 288.52798652 24.81646729 292.53067017 C27.29832992 295.60521641 29.84877611 298.61614496 32.41021729 301.62442017 C36.3474361 306.25034961 40.19613869 310.93203282 43.97271729 315.69082642 C47.12179806 319.64622425 50.33123578 323.55176737 53.54107666 327.45791626 C54.52728864 328.65832336 55.51289173 329.8592308 56.49810791 331.06045532 C62.99095149 338.97615919 69.51079161 346.86378384 76.14581299 354.66079712 C79.46380045 358.57007249 82.68334384 362.5463868 85.85162354 366.57754517 C87.40912897 368.50447789 88.99035704 370.37434071 90.62506104 372.23379517 C91.31813354 373.03224854 91.31813354 373.03224854 92.02520752 373.84683228 C93.34289322 375.35962744 94.67311115 376.86147966 96.00396729 378.36270142 C98.11930427 381.42733922 98.09387372 382.5367219 97.91021729 386.12442017 C84.81906968 386.44969159 71.72889233 386.6979965 58.63451767 386.84979057 C52.55308449 386.92267081 46.47442752 387.02140165 40.39459229 387.18057251 C34.51989013 387.33339941 28.64784628 387.41653937 22.7713089 387.45270157 C20.53676762 387.47844767 18.30236203 387.52873097 16.0689621 387.60464096 C-2.33046612 388.20478065 -2.33046612 388.20478065 -8.07452393 383.08370972 C-10.7541134 380.21316236 -12.9656124 377.13657965 -15.03081512 373.80267715 C-16.49304959 371.48532087 -18.2106488 369.41287799 -19.96478271 367.31192017 C-20.58868896 366.52301392 -21.21259521 365.73410767 -21.85540771 364.92129517 C-24.77168537 361.27084971 -27.74178497 357.66622914 -30.71478271 354.06192017 C-31.31169922 353.33819214 -31.90861572 352.61446411 -32.52362061 351.86880493 C-33.75593676 350.37524234 -34.98844261 348.88183623 -36.22113037 347.38858032 C-39.28393503 343.67752069 -42.34318397 339.96353475 -45.40228271 336.24942017 C-45.99001465 335.53616577 -46.57774658 334.82291138 -47.18328857 334.08804321 C-50.39217896 330.1922788 -53.58986764 326.28779455 -56.77728271 322.37442017 C-60.02397402 318.39752506 -63.32696853 314.47292054 -66.65228271 310.56192017 C-70.5673011 305.95609547 -74.39419973 301.29350155 -78.15228271 296.55801392 C-85.11621192 287.81098187 -92.29137613 279.22865429 -99.40228271 270.60098267 C-101.84261288 267.63975575 -104.2799779 264.67612912 -106.71478271 261.71035767 C-112.53418537 254.62562588 -118.38347178 247.57195542 -124.32440186 240.58877563 C-127.67736276 236.63758412 -130.93115682 232.61689232 -134.15228271 228.55801392 C-138.92631675 222.56159617 -143.81870183 216.65996741 -148.70306396 210.75332642 C-149.33389893 209.98963745 -149.96473389 209.22594849 -150.61468506 208.43911743 C-151.87286147 206.91642525 -153.13226809 205.39474858 -154.39300537 203.87417603 C-154.97227783 203.17300659 -155.55155029 202.47183716 -156.14837646 201.74942017 C-156.66714355 201.12293579 -157.18591064 200.49645142 -157.72039795 199.85098267 C-161.1094992 195.57789939 -161.1094992 195.57789939 -161.01165771 193.32754517 C-159.66059829 190.09874213 -157.53037887 187.5649449 -155.33978271 184.87442017 C-154.85316162 184.26598267 -154.36654053 183.65754517 -153.86517334 183.03067017 C-152.28131612 181.05536534 -150.68701578 179.08892119 -149.08978271 177.12442017 C-148.55675537 176.46764282 -148.02372803 175.81086548 -147.47454834 175.13418579 C-145.29684985 172.45212288 -143.11777306 169.77122001 -140.93304443 167.09487915 C-137.39002287 162.74929759 -133.90901045 158.36105669 -130.46478271 153.93692017 C-126.41344225 148.73720883 -122.21969204 143.68167479 -117.93743896 138.67105103 C-114.78338593 134.97219668 -111.76562291 131.19603485 -108.80853271 127.33926392 C-105.76178376 123.41311242 -102.58199107 119.59510255 -99.42767334 115.75527954 C-92.7590932 107.62642637 -86.11782028 99.47855625 -79.65228271 91.18692017 C-74.90079073 85.09542139 -70.00669227 79.1285511 -65.0836792 73.17520142 C-60.69621399 67.86869497 -56.36918751 62.51854851 -52.08978271 57.12442017 C-47.90622677 51.8700191 -43.69722042 46.63768124 -39.45379639 41.43154907 C-34.78287242 35.70019545 -30.14080771 29.95157435 -25.58978271 24.12442017 C-21.43724241 18.80771724 -17.21940729 13.54730342 -12.96478271 8.31192017 C-12.39566162 7.6113147 -11.82654053 6.91070923 -11.24017334 6.18887329 C-6.20776066 0.01077058 -6.20776066 0.01077058 0 0 Z " fill="#F0EEE5" transform="translate(698.0897827148438,343.8755798339844)"/>
<path d="M0 0 C0.33 0.99 0.66 1.98 1 3 C-0.86759004 6.51968892 -2.1486353 8.57431765 -5.75 10.375 C-6.4925 10.58125 -7.235 10.7875 -8 11 C-7.59007812 10.45730469 -7.18015625 9.91460938 -6.7578125 9.35546875 C-6.21898437 8.64003906 -5.68015625 7.92460938 -5.125 7.1875 C-4.59132813 6.47980469 -4.05765625 5.77210938 -3.5078125 5.04296875 C-2.29185219 3.39543703 -1.13583859 1.70375789 0 0 Z " fill="#E2E1DC" transform="translate(559,508)"/>
<path d="M0 0 C0.99 0.33 1.98 0.66 3 1 C1.02 3.31 -0.96 5.62 -3 8 C-3.66 7.34 -4.32 6.68 -5 6 C-3.35 4.02 -1.7 2.04 0 0 Z " fill="#E9E7E1" transform="translate(611,444)"/>
<path d="M0 0 C0 4.38968456 -2.12805101 5.76905739 -5 9 C-5.33 8.01 -5.66 7.02 -6 6 C-4.02 4.02 -2.04 2.04 0 0 Z " fill="#D5D4D0" transform="translate(284,625)"/>
</svg>
