<?xml version="1.0" encoding="utf-8" ?>
<svg xmlns="http://www.w3.org/2000/svg" xmlns:xlink="http://www.w3.org/1999/xlink" width="343" height="343">
	<defs>
		<linearGradient id="gradient_0" gradientUnits="userSpaceOnUse" x1="405.12479" y1="507.63226" x2="138.89572" y2="48.750355">
			<stop offset="0" stop-color="#0009FF"/>
			<stop offset="1" stop-color="#FF00F8"/>
		</linearGradient>
	</defs>
	<path fill="url(#gradient_0)" transform="matrix(0.669922 0 0 0.669922 -0.000488281 0)" d="M140.984 352.645L41.6843 279.952C40.7135 279.369 40.1508 278.839 39.4756 277.921L39.2264 334.821C39.2243 336.811 39.4749 339.339 38.8788 341.237L38.7925 341.5C37.9385 344.33 34.722 348.711 31.1707 347.602L30.875 347.501C23.63 345.149 25.027 337.947 25.0234 331.967L25.0372 261.054C25.3062 253.494 33.0564 249.721 38.4194 245.617L52.8887 234.345C56.3173 231.664 60.008 228.981 63.125 225.951C65.1927 223.941 64.439 222.654 64.3322 219.907L64.3569 111.345C65.0174 91.1576 75.2556 80.4032 95.4863 80.6861L290.899 80.8847L290.862 37.8407C290.797 35.07 290.65 32.3569 291.37 29.647L292.534 26.0166C295.957 17.715 304.705 12.2778 313.552 11.8895L464.578 11.774C474.633 12.2402 486.775 21.8659 487.264 32.0936L487.265 135.465C487.265 140.186 487.727 145.428 487.144 150.089L486.178 154.318C485.747 155.999 484.973 157.588 484.069 159.063L483.865 159.399C475.545 172.862 461.61 171.33 447.986 171.345L429.359 171.786C423.138 171.84 416.802 171.559 410.601 172.029C410.235 172.734 410.427 174.084 410.426 174.919L410.426 206.955C410.422 211.972 410.568 217.038 410.233 222.045C412.617 226.631 431.109 240.75 435.749 244.485L442.711 250.327C446.781 253.51 450.928 254.136 450.997 260L450.927 464.543C450.215 481.944 431.933 496.225 415.379 497.106C409.131 497.439 402.723 497.167 396.457 497.164L56.863 497.015C42.0301 496.395 28.266 484.981 25.5219 470.261C24.6908 465.803 25.009 460.975 25.0076 456.45L25.0144 436.677L24.96 375.793C24.9489 371.089 24.2452 363.466 31.625 363.443C34.6407 363.434 38.4958 365.464 38.96 368.75L39.0149 369.122C39.3643 371.816 39.1704 374.699 39.1734 377.422L39.1802 441.519L39.2018 459.053C39.2076 461.842 38.7236 465.974 39.5731 468.603L39.6667 468.875C40.2042 470.494 40.7762 471.595 41.8871 472.893C45.9927 470.692 49.5684 467.844 53.2929 465.077L71.0841 452.072C79.3952 446.412 86.4124 441.034 90.528 454.763C88.3326 459.719 81.4946 462.839 77.25 465.75L54.5 480.892C53.7066 481.384 52.8957 481.759 52.0459 482.146L392.844 482.515C401.4 482.513 410.322 483.258 418.614 480.825C414.651 477.779 410.144 475.63 405.914 472.993L384.328 458.389C381.166 456.178 377.626 454.142 374.728 451.613C367.188 445.036 375.976 436.524 381.75 438.78C383.496 439.463 385.07 440.72 386.585 441.802L423.676 467.177C426.593 469.251 429.327 471.458 432.589 472.987C436.977 466.333 436.459 457.158 436.472 449.508L436.346 279.954L294.017 382.392L347.5 416.52C351.909 419.3 358.404 424.697 352.125 429.968C346.536 434.66 340.477 430.267 335.71 426.911L281.309 391.264C262.915 379.168 247.045 364.83 223.375 373.759C215.195 376.845 207.91 382.553 200.628 387.264L132.268 431.804C129.764 433.362 127.257 435.114 124.568 436.334C118.786 438.957 113.589 434.285 114.533 428.185C115.169 424.08 126.505 418.336 129.7 416.167L181.423 382.345L140.984 352.645ZM143.279 337.088C143.714 337.2 144.484 337.848 144.886 338.116L189.25 370.046C196.727 375.436 194.602 374.141 202.501 368.61C221.197 355.52 244.529 351.444 265.307 363.163C270.848 366.288 275.847 370.852 281.581 373.499L395.576 292.043C397.115 290.753 396.311 288.145 396.31 286.385L396.928 171.881L378.046 171.374C375.361 171.38 371.39 170.886 368.878 171.796C363.222 178.315 358.53 185.902 354.224 193.367C351.064 198.844 344.776 214.331 336.402 205.917C333.962 203.465 334.052 199.984 334.148 196.784L335.228 177.977C335.263 175.712 335.392 173.268 335.065 171.028C320.537 169.2 307.471 173.56 297.006 160.01C292.432 154.087 291.125 148.828 291.039 141.602L291.093 95.6744L96.4932 95.4893C90.7671 95.4722 83.0063 94.8092 79.9547 101L79.796 101.28C79.0404 102.876 79.1509 105.358 79.0962 107.112L79.0294 233.563L79.6833 291.054C81.3959 292.52 83.572 293.707 85.4232 295.062L138.11 333.377C139.808 334.574 141.72 335.721 143.279 337.088ZM412.596 157.127L459.043 157.108C469.319 157.06 472.567 154.642 473.136 143.9L473.094 46.262C473.092 41.6098 473.804 32.2089 471.629 27.9546C464.749 26.2947 457.833 26.4649 450.814 26.4577L335.827 26.4767C329.3 26.4774 304.862 24.0133 304.96 33.9255L305.082 132.61C305.092 148.599 304.356 155.877 322.928 156.156L336.651 156.204C344.166 156.225 346.157 155.539 348.927 163.634L349.033 163.925C349.967 166.634 349.736 171.503 349.454 174.374C352.555 170.395 359.694 157.682 364.625 157.047L412.596 157.127ZM411.002 241.495L411.139 281.279C412.294 279.856 413.884 278.672 415.273 277.478L423.52 270.694L434.149 262.611L411.002 241.495ZM65.3402 242.625L42.2197 261.76L52.6571 269.498L65.0595 279.288C64.7056 270.471 64.234 265.3 64.9873 255.882L65.3091 246.981C65.3889 245.6 65.7393 244.037 65.5411 242.682L65.3402 242.625Z"/>
	<path fill="#E200F7" transform="matrix(0.669922 0 0 0.669922 -0.000488281 0)" d="M352.883 48.5128C359.179 48.0976 369.652 61.6264 371.745 66.7683C370.72 69.8761 368.266 72.4714 365.54 74.2105C360.638 75.5211 349.402 60.3976 347.96 56.797C346.238 52.4975 348.918 49.9834 352.883 48.5128Z"/>
	<path fill="#B000FB" transform="matrix(0.669922 0 0 0.669922 -0.000488281 0)" d="M409.383 108.29C413.855 108.04 416.222 111.856 419.232 114.625C424.44 119.418 435.253 127.068 423.575 132.314C418.119 134.055 415.001 130.103 411.515 126.508C406.229 121.055 398.766 112.36 409.383 108.29Z"/>
	<path fill="#B000FB" transform="matrix(0.669922 0 0 0.669922 -0.000488281 0)" d="M420.55 49.3002C426.503 48.5766 429.606 53.9063 427.81 58.2468C426.917 60.4046 424.79 62.4771 423.202 64.1523L390.765 95.4221C382.393 103.386 369.16 118.799 358.674 123.476C357.918 123.531 357.141 123.604 356.412 123.35C348.857 120.719 351.058 114.509 355.128 110.087C363.818 100.646 373.73 92.1204 382.965 83.2013L405.777 61.4357C410.316 57.1909 414.69 51.7209 420.55 49.3002Z"/>
	<path fill="#E200F7" transform="matrix(0.669922 0 0 0.669922 -0.000488281 0)" d="M263.5 129.854C276.477 130.38 279.304 140.905 267.934 144.126C255.659 145.308 250.417 131.178 263.5 129.854Z"/>
	<path fill="#E200F7" transform="matrix(0.669922 0 0 0.669922 -0.000488281 0)" d="M153.155 129.55L214.007 129.532C217.281 129.533 222.066 128.939 225.136 130.063L225.5 130.203C227.872 131.087 229.752 132.949 230.263 135.512L230.33 135.875C231.577 142.333 227.045 144.704 221.602 144.652L197.625 144.575L138.255 144.538C134.589 144.533 127.972 145.456 124.748 143.628L124.375 143.41C119.425 140.56 119.398 134.366 124.223 131.073L124.846 130.649C128.147 128.79 148.128 129.556 153.155 129.55Z"/>
	<path fill="#B000FB" transform="matrix(0.669922 0 0 0.669922 -0.000488281 0)" d="M129.336 234.875L286.975 235.143C288.428 235.149 290.23 235.025 291.61 235.488L291.875 235.585C297.674 237.675 299.101 248.918 288.273 249.61C281.663 249.72 274.772 249.322 268.133 249.317L129.071 249.214C127.632 249.18 126.026 249.213 124.76 248.439L124.5 248.272C118.833 244.826 119.851 235.707 129.336 234.875Z"/>
	<path fill="#B000FB" transform="matrix(0.669922 0 0 0.669922 -0.000488281 0)" d="M128.397 181.843L297.523 181.93C304.04 182.053 304.886 193.625 295.426 196.333L141.984 195.933C137.127 195.936 132.105 196.189 127.267 195.858C118.372 195.248 118.012 182.996 128.397 181.843Z"/>
</svg>
